<svg height="24" width="24" viewBox="0 0 48 48" fill="none" xmlns="http://www.w3.org/2000/svg"><path fill-rule="evenodd" clip-rule="evenodd" d="M24 2c12.15 0 22 9.85 22 22s-9.85 22-22 22S2 36.15 2 24 11.85 2 24 2zm0 4C14.059 6 6 14.059 6 24s8.059 18 18 18 18-8.059 18-18S33.941 6 24 6zm1 15a1 1 0 011 1v9h1.625a1 1 0 011 1v2.125a1 1 0 01-1 1H20a1 1 0 01-1-1V32a1 1 0 011-1h2v-5.875h-1a1 1 0 01-1-1V22a1 1 0 011-1h4zm0-8a1 1 0 011 1v3a1 1 0 01-1 1h-3a1 1 0 01-1-1v-3a1 1 0 011-1h3z" fill="#000"/></svg>
