<svg width="24" height="24" viewBox="0 0 48 48" fill="none" xmlns="http://www.w3.org/2000/svg"><path d="M23.024 1.45654C22.7423 1.45654 22.514 1.68484 22.514 1.96647L22.514 6.23823C22.514 6.51986 22.7423 6.74816 23.024 6.74816L25.3769 6.74816C25.6585 6.74816 25.8868 6.51986 25.8868 6.23823L25.8868 1.96647C25.8868 1.68485 25.6585 1.45654 25.3769 1.45654L23.024 1.45654Z" fill="#DA9409"/><path d="M7.91794 9.00199C8.09094 8.77976 8.41133 8.73985 8.63356 8.91284L12.0044 11.5369C12.2266 11.7099 12.2665 12.0303 12.0935 12.2525L10.6482 14.1092C10.4752 14.3314 10.1548 14.3713 9.93255 14.1983L6.56174 11.5743C6.33952 11.4013 6.2996 11.0809 6.4726 10.8587L7.91794 9.00199Z" fill="#DA9409"/><path d="M40.0432 8.97978C39.8663 8.76065 39.5453 8.72641 39.3261 8.90331L36.0023 11.5866C35.7832 11.7635 35.7489 12.0845 35.9258 12.3037L37.4038 14.1345C37.5807 14.3536 37.9017 14.3878 38.1209 14.2109L41.4447 11.5277C41.6638 11.3508 41.6981 11.0297 41.5212 10.8106L40.0432 8.97978Z" fill="#DA9409"/><path d="M7.99707 41.6709C7.99707 41.1121 8.45008 40.6591 9.0089 40.6591H38.9917C39.5505 40.6591 40.0036 41.1121 40.0036 41.6709V43.1472C40.0036 43.706 39.5505 44.1591 38.9917 44.1591H9.0089C8.45008 44.1591 7.99707 43.706 7.99707 43.1472V41.6709Z" fill="#141414" fill-opacity=".08"/><path d="M7.99707 40.1688C7.99707 39.6055 8.45367 39.1489 9.01692 39.1489H38.9837C39.547 39.1489 40.0036 39.6055 40.0036 40.1688V41.6291C40.0036 42.1923 39.547 42.6489 38.9837 42.6489H9.01692C8.45367 42.6489 7.99707 42.1923 7.99707 41.6291V40.1688Z" fill="#DA9409"/><path d="M10.2603 23.2756C10.2603 15.6872 16.4118 9.53564 24.0002 9.53564C31.5885 9.53564 37.7401 15.6872 37.7401 23.2756V42.5423H10.2603V23.2756Z" fill="#F0A50F"/><path opacity=".7" fill-rule="evenodd" clip-rule="evenodd" d="M34.3115 39.1138V23.2756C34.3115 17.5808 29.695 12.9642 24.0002 12.9642C18.3054 12.9642 13.6888 17.5808 13.6888 23.2756V39.1138H34.3115ZM24.0002 9.53564C16.4118 9.53564 10.2603 15.6872 10.2603 23.2756V42.5423H37.7401V23.2756C37.7401 15.6872 31.5885 9.53564 24.0002 9.53564Z" fill="#D08D06"/><path fill-rule="evenodd" clip-rule="evenodd" d="M22.9417 19.7117C23.0084 19.5844 23.1402 19.5046 23.2839 19.5046H29.2947C29.617 19.5046 29.7976 19.8761 29.5984 20.1296L26.2787 24.3547C26.0795 24.6081 26.2601 24.9796 26.5824 24.9796H30.7715C31.1082 24.9796 31.2837 25.3805 31.0553 25.6279L23.3202 34.0076C23.0472 34.3034 22.5604 34.0366 22.6628 33.6473L24.0959 28.2017C24.1603 27.9568 23.9756 27.7171 23.7223 27.7171H19.3868C19.0965 27.7171 18.9099 27.4088 19.0446 27.1516L22.9417 19.7117Z" fill="#141414" fill-opacity=".2"/><path fill-rule="evenodd" clip-rule="evenodd" d="M21.9417 19.7117C22.0084 19.5844 22.1402 19.5046 22.2839 19.5046H28.2947C28.617 19.5046 28.7976 19.8761 28.5984 20.1296L25.2787 24.3547C25.0795 24.6081 25.2601 24.9796 25.5824 24.9796H29.7715C30.1082 24.9796 30.2837 25.3805 30.0553 25.6279L22.3202 34.0076C22.0472 34.3034 21.5604 34.0366 21.6628 33.6473L23.0959 28.2017C23.1603 27.9568 22.9756 27.7171 22.7223 27.7171H18.3868C18.0965 27.7171 17.9099 27.4088 18.0446 27.1516L21.9417 19.7117Z" fill="#F6F8FA"/></svg>
