<svg width="24.5" height="24" viewBox="0 0 49 48" fill="currentColor" xmlns="http://www.w3.org/2000/svg"><path d="M34.0245 12.5077L36.1695 14.6527C36.8464 15.3296 36.8464 16.4272 36.1695 17.1041L29.2728 23.9996L36.1695 30.8959C36.8464 31.5728 36.8464 32.6704 36.1695 33.3473L34.0245 35.4923C33.3475 36.1692 32.25 36.1692 31.5731 35.4923L24.6749 28.5931L17.7838 35.4898C17.1069 36.1667 16.0093 36.1667 15.3324 35.4898L13.1874 33.3448C12.5105 32.6679 12.5105 31.5703 13.1874 30.8934L20.077 23.9996L13.1874 17.1066C12.5105 16.4297 12.5105 15.3321 13.1874 14.6552L15.3324 12.5102C16.0093 11.8333 17.1069 11.8333 17.7838 12.5102L24.6749 19.4017L31.5731 12.5077C32.25 11.8308 33.3475 11.8308 34.0245 12.5077Z" fill="currentColor"/></svg>
