<svg width="24" height="24" viewBox="0 0 49 49" fill="none" xmlns="http://www.w3.org/2000/svg"><path d="M32.2251 3.08579C31.85 2.71071 31.3413 2.5 30.8109 2.5H8.22168C7.11711 2.5 6.22168 3.39543 6.22168 4.5V44.5C6.22168 45.6046 7.11711 46.5 8.22168 46.5H40.2217C41.3262 46.5 42.2217 45.6046 42.2217 44.5V13.9108C42.2217 13.3804 42.011 12.8717 41.6359 12.4966L32.2251 3.08579Z" fill="#387AFB"/><path d="M42.2212 13.999H32.7207C31.6161 13.999 30.7207 13.1036 30.7207 11.999V2.5H30.8104C31.3408 2.5 31.8495 2.71071 32.2246 3.08579L41.6354 12.4966C42.0105 12.8717 42.2212 13.3804 42.2212 13.9108V13.999Z" fill="#1759DD"/><g filter="url(#svg_bdadf006ac__filter0_d_7669_37740)"><path fill-rule="evenodd" clip-rule="evenodd" d="M14.7207 21.9824C14.4446 21.9824 14.2207 22.2063 14.2207 22.4824V25.0824C14.2207 25.3586 14.4446 25.5824 14.7207 25.5824H33.7212C33.9973 25.5824 34.2212 25.3586 34.2212 25.0824V22.4824C34.2212 22.2063 33.9973 21.9824 33.7212 21.9824H14.7207ZM14.7207 31.9824C14.4446 31.9824 14.2207 32.2063 14.2207 32.4824V35.0824C14.2207 35.3586 14.4446 35.5824 14.7207 35.5824H33.7212C33.9973 35.5824 34.2212 35.3586 34.2212 35.0824V32.4824C34.2212 32.2063 33.9973 31.9824 33.7212 31.9824H14.7207Z" fill="#fff"/></g><defs><filter id="svg_bdadf006ac__filter0_d_7669_37740" x="6.221" y="15.982" width="36" height="29.6" filterUnits="userSpaceOnUse" color-interpolation-filters="sRGB"><feFlood flood-opacity="0" result="BackgroundImageFix"/><feColorMatrix in="SourceAlpha" values="0 0 0 0 0 0 0 0 0 0 0 0 0 0 0 0 0 0 127 0" result="hardAlpha"/><feOffset dy="2"/><feGaussianBlur stdDeviation="4"/><feComposite in2="hardAlpha" operator="out"/><feColorMatrix values="0 0 0 0 0 0 0 0 0 0 0 0 0 0 0 0 0 0 0.15 0"/><feBlend in2="BackgroundImageFix" result="effect1_dropShadow_7669_37740"/><feBlend in="SourceGraphic" in2="effect1_dropShadow_7669_37740" result="shape"/></filter></defs></svg>
