<svg width="24" height="24" viewBox="0 0 48 48" fill="currentColor" xmlns="http://www.w3.org/2000/svg"><path fill-rule="evenodd" clip-rule="evenodd" d="M43 39.9998C43.5523 39.9998 44 40.4475 44 40.9998V42.9998C44 43.5521 43.5523 43.9998 43 43.9998H5C4.44772 43.9998 4 43.5521 4 42.9998V40.9998C4 40.4475 4.44772 39.9998 5 39.9998H43ZM28.8708 3.88595L29.0017 4.00649V4.00649L35.8701 10.911C36.6477 11.6927 36.646 12.9561 35.8664 13.7357L35.127 14.474L35.1404 14.4876L13.628 35.9998H6C4.94564 35.9998 4.08183 35.1839 4.00549 34.1491L4 33.9998V26.3717L24.778 5.43199L24.7591 5.41328L26.1696 4.00278C26.9096 3.26284 28.085 3.22389 28.8708 3.88595ZM21.763 14.092L8.06504 28.0587L8.065 28.0645L11.935 31.9345L11.9411 31.9347L25.766 18.095L21.763 14.092ZM27.537 8.20499L24.565 11.236L28.594 15.265L31.583 12.273L27.537 8.20499Z" fill="currentColor"/></svg>
