 <svg width="20" height="20" viewBox="0 0 20 20" fill="none" xmlns="http://www.w3.org/2000/svg">
    <path
      d="M14.016 5.4599L2.31917 7.5515C1.50523 7.6971 1.23456 8.72844 1.8722 9.255L4.94318 11.7908C5.10289 11.9226 5.30057 11.9999 5.50734 12.0113C5.71412 12.0228 5.91913 11.9678 6.09241 11.8544L10.6778 8.85372C10.9264 8.69107 11.1934 9.03206 10.9757 9.23445L6.96044 12.9643C6.80871 13.1052 6.70605 13.2909 6.66748 13.4944C6.62891 13.6978 6.65644 13.9082 6.74606 14.0949L8.46837 17.6851C8.82591 18.4304 9.8923 18.4157 10.2294 17.6609L15.0727 6.81074C15.3902 6.09939 14.7826 5.32286 14.016 5.4599Z"
      fill="#FAF9FF"
      transform="translate(2, -0.5)"
    />
  </svg>
