<svg height="1em" width="1em" viewBox="0 0 48 48" fill="none" xmlns="http://www.w3.org/2000/svg"><path fill-rule="evenodd" clip-rule="evenodd" d="M40 2c1.105 0 2 .938 2 2.095v39.81C42 45.062 41.105 46 40 46H8c-1.105 0-2-.938-2-2.095V4.095C6 2.938 6.895 2 8 2h32zm-2 4H10v36h28V6zm-5 24a1 1 0 011 1v2a1 1 0 01-1 1H15a1 1 0 01-1-1v-2a1 1 0 011-1h18zm0-8a1 1 0 011 1v2a1 1 0 01-1 1H15a1 1 0 01-1-1v-2a1 1 0 011-1h18zm-12-8a1 1 0 011 1v2a1 1 0 01-1 1h-6a1 1 0 01-1-1v-2a1 1 0 011-1h6z" fill="white"/></svg>