<svg width="1em" height="1em" viewBox="0 0 72 72" fill="none" xmlns="http://www.w3.org/2000/svg">
<rect width="72" height="72" rx="6.75" fill="url(#paint0_linear_3320_61272)"/>
<g filter="url(#filter0_d_3320_61272)">
<path d="M43.3121 37.2421C42.7198 37.2421 42.1518 37.0069 41.733 36.5883C41.3141 36.1697 41.0789 35.6019 41.0789 35.0098C41.0789 34.4178 41.3141 33.85 41.733 33.4314C42.1518 33.0128 42.7198 32.7776 43.3121 32.7776C43.9044 32.7776 44.4724 33.0128 44.8912 33.4314C45.3101 33.85 45.5453 34.4178 45.5453 35.0098C45.5453 35.6019 45.3101 36.1697 44.8912 36.5883C44.4724 37.0069 43.9044 37.2421 43.3121 37.2421ZM38.9821 45.9865C38.9634 45.9984 38.9452 46.0109 38.927 46.0235C38.7522 46.1454 37.7311 46.8024 36.0304 46.8024C34.1879 46.8024 33.2595 46.1933 33.0542 46.0393C33.024 46.0166 32.9936 45.9943 32.9619 45.9739C32.092 45.4128 31.5481 44.4636 31.5481 42.949C31.5481 40.0561 34.5664 36.2973 35.983 36.2973C37.5869 36.2973 40.4179 40.0561 40.4179 42.949C40.4179 44.4751 39.8657 45.4272 38.9821 45.9865ZM28.6539 37.2421C28.0616 37.2421 27.4936 37.0069 27.0748 36.5883C26.6559 36.1697 26.4207 35.6019 26.4207 35.0098C26.4207 34.4178 26.6559 33.85 27.0748 33.4314C27.4936 33.0128 28.0616 32.7776 28.6539 32.7776C29.2462 32.7776 29.8142 33.0128 30.233 33.4314C30.6519 33.85 30.8871 34.4178 30.8871 35.0098C30.8871 35.6019 30.6519 36.1697 30.233 36.5883C29.8142 37.0069 29.2462 37.2421 28.6539 37.2421ZM57.668 24.958C57.5301 24.6972 57.3803 24.4429 57.2191 24.1959L57.1938 24.1538C57.1926 24.1518 57.1912 24.15 57.1896 24.1483C57.1882 24.147 57.187 24.1455 57.1859 24.1438C57.0552 23.9446 56.9165 23.7508 56.7701 23.5628C56.7695 23.562 56.7703 23.5608 56.7713 23.5612C56.7723 23.5615 56.7732 23.5603 56.7725 23.5595C55.8514 22.3815 54.6109 21.4931 53.1989 21.0001C53.1918 20.9976 53.1841 20.9971 53.1766 20.9986C53.1693 21.0001 53.1617 20.9996 53.1546 20.9972C52.883 20.9054 52.607 20.8272 52.3276 20.763C52.3226 20.7618 52.3218 20.7551 52.3264 20.7528C52.331 20.7505 52.3302 20.7438 52.3252 20.7426C51.3222 20.5048 50.2866 20.4351 49.2606 20.5364L48.8659 20.5679C47.2022 20.7527 45.6199 21.3729 44.2772 22.3617C44.0271 22.5459 43.6874 22.5595 43.4268 22.3905C41.3227 21.0261 38.842 20.25 35.983 20.25C32.9563 20.25 30.3547 21.1214 28.1737 22.633C28.1072 22.6791 28.0178 22.6744 27.9556 22.6226C27.9065 22.5815 27.8566 22.5413 27.8062 22.5019C27.8035 22.4998 27.8033 22.4959 27.8057 22.4936C27.8081 22.4912 27.8078 22.4872 27.805 22.4852C27.7389 22.4371 27.6686 22.3931 27.6004 22.347C26.8222 21.7742 25.1935 20.7776 23.0482 20.5679C22.9513 20.5593 22.8543 20.5518 22.7572 20.5454C21.7126 20.4353 20.6568 20.5025 19.6345 20.7441C19.6319 20.7447 19.6316 20.7484 19.6341 20.7494C19.6366 20.7505 19.6363 20.7542 19.6336 20.7548C19.351 20.8218 19.0683 20.8998 18.7879 20.9975C18.7858 20.9982 18.7837 20.9986 18.7815 20.9986C18.7792 20.9986 18.7769 20.999 18.7748 20.9998L18.5005 21.1001C17.596 21.4495 16.7117 21.9794 15.9154 22.7551C15.6588 23.0026 15.4156 23.2726 15.1927 23.5605C15.1921 23.5612 15.1926 23.5623 15.1935 23.5623C15.1945 23.5623 15.195 23.5633 15.1944 23.5641C15.0483 23.7525 14.9099 23.9469 14.7797 24.1467C14.7789 24.1478 14.7776 24.1485 14.7763 24.1485C14.7748 24.1485 14.7735 24.1493 14.7728 24.1505L14.7288 24.2229C14.589 24.4439 14.4536 24.6739 14.3228 24.9197C12.8565 27.7021 13.3709 31.2827 15.6988 34.3672C16.3643 35.4631 17.9479 36.8836 19.5743 37.8915C19.6726 37.9538 19.7713 38.0156 19.871 38.0767C20.0821 38.206 20.2124 38.4355 20.2202 38.6829C20.4536 46.1337 28.2575 52.0312 35.983 52.0312C43.661 52.0312 51.4152 46.2037 51.7386 38.82C51.7493 38.5765 51.88 38.351 52.088 38.2239C57.7764 34.7501 59.8074 29.0115 57.668 24.958Z" fill="url(#paint1_linear_3320_61272)" shape-rendering="crispEdges"/>
</g>
<path d="M27.0916 36.4357C27.5104 36.8543 28.0785 37.0895 28.6707 37.0895C29.263 37.0895 29.8311 36.8543 30.2499 36.4357C30.6687 36.0171 30.904 35.4493 30.904 34.8572C30.904 34.2652 30.6687 33.6974 30.2499 33.2788C29.8311 32.8602 29.263 32.625 28.6707 32.625C28.0785 32.625 27.5104 32.8602 27.0916 33.2788C26.6728 33.6974 26.4375 34.2652 26.4375 34.8572C26.4375 35.4493 26.6728 36.0171 27.0916 36.4357Z" fill="#3F69F6"/>
<path d="M41.7166 36.4357C42.1354 36.8543 42.7035 37.0895 43.2957 37.0895C43.888 37.0895 44.4561 36.8543 44.8749 36.4357C45.2937 36.0171 45.529 35.4493 45.529 34.8572C45.529 34.2652 45.2937 33.6974 44.8749 33.2788C44.4561 32.8602 43.888 32.625 43.2957 32.625C42.7035 32.625 42.1354 32.8602 41.7166 33.2788C41.2978 33.6974 41.0625 34.2652 41.0625 34.8572C41.0625 35.4493 41.2978 36.0171 41.7166 36.4357Z" fill="#3F69F6"/>
<path d="M35.9823 46.7863C37.683 46.7863 38.7041 46.1293 38.8789 46.0074C38.8971 45.9948 38.9153 45.9823 38.934 45.9705C39.8176 45.4111 40.3698 44.459 40.3698 42.9329C40.3698 40.04 37.5388 36.2812 35.9349 36.2812C34.5183 36.2812 31.5 40.04 31.5 42.9329C31.5 44.4475 32.0439 45.3967 32.9138 45.9578C32.9455 45.9782 32.9759 46.0006 33.0061 46.0232C33.2114 46.1772 34.1398 46.7863 35.9823 46.7863Z" fill="#3F69F6"/>
<path d="M13.7428 8.4375H18.5938H18.5952C18.7356 8.43786 18.8701 8.49333 18.9694 8.59178C19.0687 8.69023 19.1246 8.82366 19.125 8.96289V10.7024C19.125 10.8419 19.0692 10.9756 18.9699 11.0744C18.8706 11.1731 18.7358 11.2288 18.5952 11.2292H13.7456C12.5939 11.2292 11.2528 12.5603 11.2528 13.7009V18.5982C11.2528 18.738 11.1969 18.8719 11.0972 18.9707C10.9976 19.0695 10.8625 19.125 10.7216 19.125H8.96735C8.67497 19.125 8.4375 18.8895 8.4375 18.5996V13.6996C8.44184 12.3056 9.00214 10.9698 9.99611 9.98397C10.9901 8.9981 12.337 8.44217 13.7428 8.4375Z" fill="#3151BA" fill-opacity="0.6"/>
<path d="M13.7428 63.5625H18.5938H18.5952C18.7356 63.5621 18.8701 63.5067 18.9694 63.4082C19.0687 63.3098 19.1246 63.1763 19.125 63.0371V61.2976C19.125 61.1581 19.0692 61.0244 18.9699 60.9256C18.8706 60.8269 18.7358 60.7712 18.5952 60.7708H13.7456C12.5939 60.7708 11.2528 59.4397 11.2528 58.2991V53.4018C11.2528 53.262 11.1969 53.1281 11.0972 53.0293C10.9976 52.9305 10.8625 52.875 10.7216 52.875H8.96735C8.67497 52.875 8.4375 53.1105 8.4375 53.4004V58.3004C8.44184 59.6944 9.00214 61.0302 9.99611 62.016C10.9901 63.0019 12.337 63.5578 13.7428 63.5625Z" fill="#3151BA" fill-opacity="0.6"/>
<path d="M58.2572 8.4375H53.4062H53.4048C53.2644 8.43786 53.1299 8.49333 53.0306 8.59178C52.9313 8.69023 52.8754 8.82366 52.875 8.96289V10.7024C52.875 10.8419 52.9308 10.9756 53.0301 11.0744C53.1294 11.1731 53.2642 11.2288 53.4048 11.2292H58.2544C59.4061 11.2292 60.7472 12.5603 60.7472 13.7009V18.5982C60.7472 18.738 60.8031 18.8719 60.9028 18.9707C61.0024 19.0695 61.1375 19.125 61.2784 19.125H63.0327C63.325 19.125 63.5625 18.8895 63.5625 18.5996V13.6996C63.5582 12.3056 62.9979 10.9698 62.0039 9.98397C61.0099 8.9981 59.663 8.44217 58.2572 8.4375Z" fill="#3151BA" fill-opacity="0.6"/>
<path d="M58.2572 63.5625H53.4062H53.4048C53.2644 63.5621 53.1299 63.5067 53.0306 63.4082C52.9313 63.3098 52.8754 63.1763 52.875 63.0371V61.2976C52.875 61.1581 52.9308 61.0244 53.0301 60.9256C53.1294 60.8269 53.2642 60.7712 53.4048 60.7708H58.2544C59.4061 60.7708 60.7472 59.4397 60.7472 58.2991V53.4018C60.7472 53.262 60.8031 53.1281 60.9028 53.0293C61.0024 52.9305 61.1375 52.875 61.2784 52.875H63.0327C63.325 52.875 63.5625 53.1105 63.5625 53.4004V58.3004C63.5582 59.6944 62.9979 61.0302 62.0039 62.016C61.0099 63.0019 59.663 63.5578 58.2572 63.5625Z" fill="#3151BA" fill-opacity="0.6"/>
<defs>
<filter id="filter0_d_3320_61272" x="12.375" y="19.6875" width="47.25" height="34.0312" filterUnits="userSpaceOnUse" color-interpolation-filters="sRGB">
<feFlood flood-opacity="0" result="BackgroundImageFix"/>
<feColorMatrix in="SourceAlpha" type="matrix" values="0 0 0 0 0 0 0 0 0 0 0 0 0 0 0 0 0 0 127 0" result="hardAlpha"/>
<feOffset dy="0.5625"/>
<feGaussianBlur stdDeviation="0.5625"/>
<feComposite in2="hardAlpha" operator="out"/>
<feColorMatrix type="matrix" values="0 0 0 0 0.0924205 0 0 0 0 0.0924205 0 0 0 0 0.741889 0 0 0 0.3 0"/>
<feBlend mode="normal" in2="BackgroundImageFix" result="effect1_dropShadow_3320_61272"/>
<feBlend mode="normal" in="SourceGraphic" in2="effect1_dropShadow_3320_61272" result="shape"/>
</filter>
<linearGradient id="paint0_linear_3320_61272" x1="0" y1="0" x2="72" y2="72" gradientUnits="userSpaceOnUse">
<stop offset="0.00371651" stop-color="#3F69F6"/>
<stop offset="1" stop-color="#7392FF"/>
</linearGradient>
<linearGradient id="paint1_linear_3320_61272" x1="32.8788" y1="16.94" x2="32.8788" y2="48.4404" gradientUnits="userSpaceOnUse">
<stop stop-color="white"/>
<stop offset="1" stop-color="white" stop-opacity="0.75"/>
</linearGradient>
</defs>
</svg>
