<svg width="40" height="40" viewBox="0 0 40 40" fill="none" xmlns="http://www.w3.org/2000/svg">
<g id="Frame">
<path id="Vector" fill-rule="evenodd" clip-rule="evenodd" d="M9.10375 8.025C8.75 8.72 8.75 9.63 8.75 11.45V28.55C8.75 30.37 8.75 31.28 9.10375 31.975C9.41542 32.587 9.91298 33.0846 10.525 33.3962C11.22 33.75 12.13 33.75 13.95 33.75H26.05C27.87 33.75 28.78 33.75 29.475 33.3962C30.087 33.0846 30.5846 32.587 30.8962 31.975C31.25 31.28 31.25 30.37 31.25 28.55V13.75L23.75 6.25H13.95C12.13 6.25 11.22 6.25 10.525 6.60375C9.91298 6.91542 9.41542 7.41298 9.10375 8.025Z" fill="url(#paint0_linear_1189_17395)"/>
<path id="Vector_2" d="M23.75 6.25L31.25 13.75H28.95C27.13 13.75 26.22 13.75 25.525 13.3962C24.913 13.0846 24.4154 12.587 24.1038 11.975C23.75 11.28 23.75 10.37 23.75 8.55V6.25Z" fill="white" fill-opacity="0.55"/>
<path id="Vector_3" d="M25.1431 24.9623C24.131 24.8942 23.1673 24.5039 22.3931 23.8486C20.8806 24.1897 19.4008 24.6624 17.9706 25.2611C16.8193 27.3048 15.7418 28.3448 14.8118 28.3448C14.6268 28.3448 14.4031 28.3073 14.2543 28.1961C14.0644 28.1066 13.9041 27.9647 13.7922 27.7871C13.6804 27.6094 13.6217 27.4035 13.6231 27.1936C13.6231 26.8586 13.6981 25.9298 17.2281 24.4061C18.0298 22.9361 18.6891 21.3929 19.1968 19.7973C18.7518 18.9061 17.7843 16.7136 18.4543 15.5973C18.6768 15.1898 19.1231 14.9661 19.6056 15.0036C19.9781 15.0036 20.3493 15.1898 20.5718 15.4873C21.0556 16.1561 21.0181 17.5686 20.3868 19.6498C20.9825 20.7629 21.7613 21.7678 22.6906 22.6223C23.4706 22.4723 24.2518 22.3623 25.0318 22.3623C26.7781 22.3998 27.0381 23.2161 27.0018 23.6998C27.0018 24.9623 25.7743 24.9623 25.1431 24.9623ZM14.7381 27.2673L14.8493 27.2298C15.3693 27.0448 15.7781 26.6723 16.0756 26.1898C15.5323 26.4077 15.0666 26.7829 14.7381 27.2673ZM19.6806 16.1186H19.5681C19.5318 16.1186 19.4581 16.1186 19.4206 16.1561C19.2706 16.7873 19.3831 17.4561 19.6431 18.0511C19.8656 17.4198 19.8656 16.7511 19.6806 16.1186ZM19.9406 21.5061L19.9031 21.5811L19.8656 21.5436C19.5318 22.4021 19.1601 23.2454 18.7518 24.0711L18.8268 24.0336V24.1086C19.6523 23.8087 20.4956 23.5603 21.3518 23.3648L21.3156 23.3273H21.4281C20.87 22.7743 20.3715 22.163 19.9406 21.5061ZM24.9943 23.4786C24.6606 23.4786 24.3631 23.4786 24.0281 23.5523C24.3993 23.7386 24.7718 23.8123 25.1431 23.8498C25.4031 23.8873 25.6631 23.8498 25.8868 23.7748C25.8868 23.6636 25.7368 23.4786 24.9943 23.4786Z" fill="#5A150F"/>
</g>
<defs>
<linearGradient id="paint0_linear_1189_17395" x1="31.25" y1="33.75" x2="4.445" y2="28.5838" gradientUnits="userSpaceOnUse">
<stop stop-color="#EE5872"/>
<stop offset="1" stop-color="#FF7033"/>
</linearGradient>
</defs>
</svg>
