<svg width="14" height="14" viewBox="0 0 14 14" fill="none" xmlns="http://www.w3.org/2000/svg">
<g id="close">
<rect width="14" height="14" rx="7" fill="#42464E"/>
<path id="&#229;&#189;&#162;&#231;&#138;&#182;&#231;&#187;&#147;&#229;&#144;&#136;" d="M9.04466 4.48606L9.51393 4.95528C9.66202 5.10336 9.66202 5.34345 9.51393 5.49153L8.00513 6.99991L9.51393 8.50847C9.66202 8.65655 9.66202 8.89664 9.51393 9.04472L9.04466 9.51394C8.89656 9.66202 8.65645 9.66202 8.50836 9.51394L6.99923 8.00475L5.49164 9.51339C5.34355 9.66147 5.10344 9.66147 4.95534 9.51339L4.48607 9.04417C4.33798 8.89609 4.33798 8.65601 4.48607 8.50793L5.99334 6.99991L4.48607 5.49207C4.33798 5.34399 4.33798 5.10391 4.48607 4.95583L4.95534 4.48661C5.10344 4.33853 5.34355 4.33853 5.49164 4.48661L6.99923 5.99412L8.50836 4.48606C8.65645 4.33798 8.89656 4.33798 9.04466 4.48606Z" fill="white"/>
</g>
</svg>
