<svg xmlns="http://www.w3.org/2000/svg" width="18" height="19" viewBox="0 0 18 19" fill="none">
  <path fill-rule="evenodd" clip-rule="evenodd" d="M0 9.59311C0 14.5631 4.03 18.5931 9 18.5931C13.97 18.5931 18 14.5631 18 9.59311C18 4.62211 13.97 0.593109 9 0.593109C4.03 0.593109 0 4.62211 0 9.59311Z" fill="url(#paint0_linear_1_10)"/>
  <path fill-rule="evenodd" clip-rule="evenodd" d="M10.4142 9.59312L12.5352 7.47212C12.9262 7.08112 12.9262 6.44812 12.5352 6.05712C12.1452 5.66712 11.5122 5.66712 11.1212 6.05712L9.00019 8.17912L6.87819 6.05712C6.48819 5.66712 5.85519 5.66712 5.46419 6.05712C5.07419 6.44812 5.07419 7.08112 5.46419 7.47212L7.58619 9.59312L5.46419 11.7141C5.07419 12.1051 5.07419 12.7381 5.46419 13.1291C5.85519 13.5191 6.48819 13.5191 6.87819 13.1291L9.00019 11.0071L11.1212 13.1291C11.5122 13.5191 12.1452 13.5191 12.5352 13.1291C12.9262 12.7381 12.9262 12.1051 12.5352 11.7141L10.4142 9.59312Z" fill="#5A5A5A"/>
  <defs>
    <linearGradient id="paint0_linear_1_10" x1="9" y1="0.593109" x2="9" y2="18.5931" gradientUnits="userSpaceOnUse">
      <stop stop-color="#F0F0F0"/>
      <stop offset="1" stop-color="#D5D5D5"/>
    </linearGradient>
  </defs>
</svg>
