<svg width="17" height="16" viewBox="0 0 17 16" fill="none" xmlns="http://www.w3.org/2000/svg">
<g id="PrefixIcon &#229;&#137;&#141;&#231;&#189;&#174;&#229;&#155;&#190;&#230;&#160;&#135;">
<path id="&#229;&#189;&#162;&#231;&#138;&#182;" fill-rule="evenodd" clip-rule="evenodd" d="M4.25 10.5003C4.48012 10.5003 4.66667 10.6869 4.66667 10.917V12.167H12.3333V10.917C12.3333 10.6869 12.5199 10.5003 12.75 10.5003H13.5833C13.8135 10.5003 14 10.6869 14 10.917V13.0003C14 13.4606 13.6269 13.8337 13.1667 13.8337H3.83333C3.3731 13.8337 3 13.4606 3 13.0003V10.917C3 10.6869 3.18655 10.5003 3.41667 10.5003H4.25ZM8.89578 2.28903L12.0206 5.41382C12.1833 5.57654 12.1833 5.84036 12.0206 6.00308L11.4313 6.59233C11.2686 6.75505 11.0048 6.75505 10.8421 6.59233L9.33325 5.08363L9.33333 9.28004C9.33333 9.51016 9.14679 9.69671 8.91667 9.69671H8.08333C7.85321 9.69671 7.66667 9.51016 7.66667 9.28004L7.66624 5.28574L6.36024 6.59233C6.19753 6.75505 5.93371 6.75505 5.77099 6.59233L5.18173 6.00308C5.01902 5.84036 5.01902 5.57654 5.18173 5.41382L8.30652 2.28903C8.46924 2.12631 8.73306 2.12631 8.89578 2.28903Z" fill="url(#paint0_linear_3160_19174)"/>
</g>
<defs>
<linearGradient id="paint0_linear_3160_19174" x1="3" y1="24.917" x2="20.4404" y2="21.3797" gradientUnits="userSpaceOnUse">
<stop offset="0.1" stop-color="#3B91FF"/>
<stop offset="0.5" stop-color="#0D5EFF"/>
<stop offset="0.85" stop-color="#C069FF"/>
</linearGradient>
</defs>
</svg>
