<svg xmlns="http://www.w3.org/2000/svg" width="162" height="150" viewBox="0 0 162 150" fill="none">
  <path d="M49.3525 7.0918L54.4138 15.7908" stroke="white" stroke-width="1.58163" stroke-linecap="round"/>
  <path d="M53.7808 6.30127L57.4185 13.8931" stroke="white" stroke-width="1.58163" stroke-linecap="round"/>
  <path d="M58.2109 6.14307L61.0579 12.4696" stroke="white" stroke-width="1.58163" stroke-linecap="round"/>
  <path d="M62.6382 6.30127L64.5361 11.0462" stroke="white" stroke-width="1.58163" stroke-linecap="round"/>
  <path d="M67.0684 6.77539L67.8592 9.93866" stroke="white" stroke-width="1.58163" stroke-linecap="round"/>
  <path d="M70.8628 6.14307L71.3373 8.67368" stroke="white" stroke-width="1.58163" stroke-linecap="round"/>
  <path d="M74.6592 5.51025L74.9755 7.8827" stroke="white" stroke-width="1.58163" stroke-linecap="round"/>
  <path d="M78.6128 4.71973L78.771 7.4085" stroke="white" stroke-width="1.58163" stroke-linecap="round"/>
  <path d="M82.2505 3.45459V6.93418" stroke="white" stroke-width="1.58163" stroke-linecap="round"/>
  <path d="M86.0454 2.50537V6.61762" stroke="white" stroke-width="1.58163" stroke-linecap="round"/>
  <path d="M89.8433 2.03076V6.30117" stroke="white" stroke-width="1.58163" stroke-linecap="round"/>
  <path d="M93.7953 1.55566L93.479 6.30056" stroke="white" stroke-width="1.58163" stroke-linecap="round"/>
  <path d="M97.7518 1.55566L97.2773 6.45873" stroke="white" stroke-width="1.58163" stroke-linecap="round"/>
  <path d="M101.704 1.87256L100.913 7.09195" stroke="white" stroke-width="1.58163" stroke-linecap="round"/>
  <path d="M105.5 2.82129L104.551 7.88251" stroke="white" stroke-width="1.58163" stroke-linecap="round"/>
  <path d="M109.455 3.92871L108.19 8.83177M113.093 5.66851L111.67 9.78075" stroke="white" stroke-width="1.58163" stroke-linecap="round"/>
  <path d="M116.572 7.56641L115.148 11.046" stroke="white" stroke-width="1.58163" stroke-linecap="round"/>
  <path d="M119.736 9.93896L118.629 12.4696" stroke="white" stroke-width="1.58163" stroke-linecap="round"/>
  <path d="M122.898 12.311L122.107 14.0508" stroke="white" stroke-width="1.58163" stroke-linecap="round"/>
  <path d="M126.221 14.2095L125.272 15.6329" stroke="white" stroke-width="1.58163" stroke-linecap="round"/>
  <path d="M129.382 16.2651L128.433 17.6886" stroke="white" stroke-width="1.58163" stroke-linecap="round"/>
  <path d="M132.23 18.7959L131.597 19.903" stroke="white" stroke-width="1.58163" stroke-linecap="round"/>
  <path d="M135.077 21.3262L134.445 22.2752" stroke="white" stroke-width="1.58163" stroke-linecap="round"/>
  <path d="M137.606 24.0151L136.974 24.6478" stroke="white" stroke-width="1.58163" stroke-linecap="round"/>
  <path d="M140.296 26.7046L139.663 27.3372" stroke="white" stroke-width="1.58163" stroke-linecap="round"/>
  <path d="M142.195 30.0258L142.669 29.5513" stroke="white" stroke-width="1.58163" stroke-linecap="round"/>
  <path d="M144.724 32.872L145.198 32.5557" stroke="white" stroke-width="1.58163" stroke-linecap="round"/>
  <path d="M146.94 35.8774L147.414 35.561" stroke="white" stroke-width="1.58163" stroke-linecap="round"/>
  <path d="M149.311 38.7244L150.735 37.7754" stroke="white" stroke-width="1.58163" stroke-linecap="round"/>
  <path d="M151.211 41.8877L153.9 40.1479" stroke="white" stroke-width="1.58163" stroke-linecap="round"/>
  <path d="M152.95 45.2093L157.379 42.6787" stroke="white" stroke-width="1.58163" stroke-linecap="round"/>
  <path d="M154.374 48.5307L159.909 46.1582" stroke="white" stroke-width="1.58163" stroke-linecap="round"/>
  <path d="M155.956 51.8521L160.542 50.1123" stroke="white" stroke-width="1.58163" stroke-linecap="round"/>
  <path d="M157.061 55.3318L160.382 54.3828" stroke="white" stroke-width="1.58163" stroke-linecap="round"/>
  <path d="M158.168 58.9691L159.908 58.4946" stroke="white" stroke-width="1.58163" stroke-linecap="round"/>
  <path d="M158.961 62.6074L159.435 62.4492" stroke="white" stroke-width="1.58163" stroke-linecap="round"/>
  <path d="M159.75 66.2446L160.383 66.0864" stroke="white" stroke-width="1.58163" stroke-linecap="round"/>
  <path d="M160.068 69.8828H160.701" stroke="white" stroke-width="1.58163" stroke-linecap="round"/>
  <path d="M160.224 73.6787H161.014" stroke="white" stroke-width="1.58163" stroke-linecap="round"/>
  <path d="M160.224 77.3164H161.014" stroke="white" stroke-width="1.58163" stroke-linecap="round"/>
  <path d="M160.383 81.1123H160.699" stroke="white" stroke-width="1.58163" stroke-linecap="round"/>
  <path d="M160.224 84.75H160.698" stroke="white" stroke-width="1.58163" stroke-linecap="round"/>
  <path d="M159.75 88.3877H160.383" stroke="white" stroke-width="1.58163" stroke-linecap="round"/>
  <path d="M158.961 92.0249H159.594" stroke="white" stroke-width="1.58163" stroke-linecap="round"/>
  <path d="M158.011 95.6636H158.328" stroke="white" stroke-width="1.58163" stroke-linecap="round"/>
  <path d="M157.061 99.1431L157.536 99.3012" stroke="white" stroke-width="1.58163" stroke-linecap="round"/>
  <path d="M155.638 102.781H156.113" stroke="white" stroke-width="1.58163" stroke-linecap="round"/>
  <path d="M154.374 106.102L155.006 106.26" stroke="white" stroke-width="1.58163" stroke-linecap="round"/>
  <path d="M152.633 109.424L153.107 109.582" stroke="white" stroke-width="1.58163" stroke-linecap="round"/>
  <path d="M150.894 112.745L151.21 112.903" stroke="white" stroke-width="1.58163" stroke-linecap="round"/>
  <path d="M148.995 115.75L149.311 115.908" stroke="white" stroke-width="1.58163" stroke-linecap="round"/>
  <path d="M146.94 118.755L147.414 119.072" stroke="white" stroke-width="1.58163" stroke-linecap="round"/>
  <path d="M144.568 121.602L144.885 121.918" stroke="white" stroke-width="1.58163" stroke-linecap="round"/>
  <path d="M142.353 124.449L142.669 124.766" stroke="white" stroke-width="1.58163" stroke-linecap="round"/>
  <path d="M139.822 127.138L140.138 127.454" stroke="white" stroke-width="1.58163" stroke-linecap="round"/>
  <path d="M136.974 129.826L137.29 130.142" stroke="white" stroke-width="1.58163" stroke-linecap="round"/>
  <path d="M134.129 132.199L134.603 132.674" stroke="white" stroke-width="1.58163" stroke-linecap="round"/>
  <path d="M131.124 134.414L131.598 134.888" stroke="white" stroke-width="1.58163" stroke-linecap="round"/>
  <path d="M128.277 136.627L128.594 136.944" stroke="white" stroke-width="1.58163" stroke-linecap="round"/>
  <path d="M125.113 138.525L125.429 138.841" stroke="white" stroke-width="1.58163" stroke-linecap="round"/>
  <path d="M121.79 140.107L122.106 140.581" stroke="white" stroke-width="1.58163" stroke-linecap="round"/>
  <path d="M118.786 141.689L118.944 142.163" stroke="white" stroke-width="1.58163" stroke-linecap="round"/>
  <path d="M114.99 143.112L115.306 143.745" stroke="white" stroke-width="1.58163" stroke-linecap="round"/>
  <path d="M111.353 144.377L111.511 144.694" stroke="white" stroke-width="1.58163" stroke-linecap="round"/>
  <path d="M108.031 145.485L108.347 145.959" stroke="white" stroke-width="1.58163" stroke-linecap="round"/>
  <path d="M104.551 146.434L104.867 146.909" stroke="white" stroke-width="1.58163" stroke-linecap="round"/>
  <path d="M100.913 146.908L101.071 147.541" stroke="white" stroke-width="1.58163" stroke-linecap="round"/>
  <path d="M97.2773 147.383V147.857" stroke="white" stroke-width="1.58163" stroke-linecap="round"/>
  <path d="M93.479 147.699V148.49" stroke="white" stroke-width="1.58163" stroke-linecap="round"/>
  <path d="M86.0454 147.699V148.174" stroke="white" stroke-width="1.58163" stroke-linecap="round"/>
  <path d="M89.6826 147.857V148.49" stroke="white" stroke-width="1.58163" stroke-linecap="round"/>
  <path d="M82.2862 147.429L82.2505 147.857" stroke="white" stroke-width="1.58163" stroke-linecap="round"/>
  <path d="M78.5716 147L78.4287 147.429" stroke="white" stroke-width="1.58163" stroke-linecap="round"/>
  <path d="M75.142 146.428L74.9736 146.75" stroke="white" stroke-width="1.58163" stroke-linecap="round"/>
  <path d="M71.6533 145.485L71.4951 145.801" stroke="white" stroke-width="1.58163" stroke-linecap="round"/>
  <path d="M68.1737 144.377L67.8574 145.01" stroke="white" stroke-width="1.58163" stroke-linecap="round"/>
  <path d="M64.5365 143.112L64.2202 143.587" stroke="white" stroke-width="1.58163" stroke-linecap="round"/>
  <path d="M61.0561 141.847L60.7397 142.163" stroke="white" stroke-width="1.58163" stroke-linecap="round"/>
  <path d="M57.5771 140.581L57.8935 140.265" stroke="white" stroke-width="1.58163" stroke-linecap="round"/>
  <path d="M54.4135 138.684L54.0972 139" stroke="white" stroke-width="1.58163" stroke-linecap="round"/>
  <path d="M51.2489 136.786L50.9326 137.102" stroke="white" stroke-width="1.58163" stroke-linecap="round"/>
  <path d="M48.0883 134.571L47.772 134.888" stroke="white" stroke-width="1.58163" stroke-linecap="round"/>
  <path d="M45.2402 132.357L44.9238 132.673" stroke="white" stroke-width="1.58163" stroke-linecap="round"/>
  <path d="M42.7099 129.826L42.3936 130.142" stroke="white" stroke-width="1.58163" stroke-linecap="round"/>
  <path d="M39.5453 127.296L39.229 127.612" stroke="white" stroke-width="1.58163" stroke-linecap="round"/>
  <path d="M37.1737 124.607L36.8574 124.923" stroke="white" stroke-width="1.58163" stroke-linecap="round"/>
  <path d="M34.8022 121.602L34.4858 121.918" stroke="white" stroke-width="1.58163" stroke-linecap="round"/>
  <path d="M32.5883 118.755L32.272 119.072" stroke="white" stroke-width="1.58163" stroke-linecap="round"/>
  <path d="M30.5312 115.75L30.2148 116.066" stroke="white" stroke-width="1.58163" stroke-linecap="round"/>
  <path d="M28.1592 113.061L28.4755 112.745" stroke="white" stroke-width="1.58163" stroke-linecap="round"/>
  <path d="M26.4185 109.74L26.7348 109.582" stroke="white" stroke-width="1.58163" stroke-linecap="round"/>
  <path d="M24.6792 106.418L24.9955 106.26" stroke="white" stroke-width="1.58163" stroke-linecap="round"/>
  <path d="M23.7294 102.623L23.4131 102.939" stroke="white" stroke-width="1.58163" stroke-linecap="round"/>
  <path d="M22.4648 99.3013L22.1484 99.4594" stroke="white" stroke-width="1.58163" stroke-linecap="round"/>
  <path d="M21.3564 95.6636H21.04" stroke="white" stroke-width="1.58163" stroke-linecap="round"/>
  <path d="M20.5678 92.0249H20.0933" stroke="white" stroke-width="1.58163" stroke-linecap="round"/>
  <path d="M19.7159 88.4282L16.4556 88.8619" stroke="white" stroke-width="1.58163" stroke-linecap="round"/>
  <path d="M19.3022 84.75L11.2358 85.699" stroke="white" stroke-width="1.58163" stroke-linecap="round"/>
  <path d="M18.8258 80.9546L5.54004 81.5872" stroke="white" stroke-width="1.58163" stroke-linecap="round"/>
  <path d="M18.8259 77.3164H1.35059" stroke="white" stroke-width="1.58163" stroke-linecap="round"/>
  <path d="M18.8277 73.5203L1.58789 72.7295" stroke="white" stroke-width="1.58163" stroke-linecap="round"/>
  <path d="M19.1439 69.8829L3.01123 68.1431" stroke="white" stroke-width="1.58163" stroke-linecap="round"/>
  <path d="M19.7747 66.245L5.22363 63.8726" stroke="white" stroke-width="1.58163" stroke-linecap="round"/>
  <path d="M20.2508 62.449L7.75586 59.7603" stroke="white" stroke-width="1.58163" stroke-linecap="round"/>
  <path d="M21.2003 58.8108L10.1289 55.8057" stroke="white" stroke-width="1.58163" stroke-linecap="round"/>
  <path d="M22.15 55.3317L12.8184 52.1685" stroke="white" stroke-width="1.58163" stroke-linecap="round"/>
  <path d="M23.5722 51.8522L15.5059 48.689" stroke="white" stroke-width="1.58163" stroke-linecap="round"/>
  <path d="M24.9959 48.5305L18.5112 45.5254" stroke="white" stroke-width="1.58163" stroke-linecap="round"/>
  <path d="M26.5774 45.2093L21.8325 42.5205" stroke="white" stroke-width="1.58163" stroke-linecap="round"/>
  <path d="M28.3165 41.8882L24.9951 39.832" stroke="white" stroke-width="1.58163" stroke-linecap="round"/>
  <path d="M28.0005 36.9849L30.3729 38.7247" stroke="white" stroke-width="1.58163" stroke-linecap="round"/>
  <path d="M32.4297 35.7193L30.3735 34.1377" stroke="white" stroke-width="1.58163" stroke-linecap="round"/>
  <path d="M34.8014 32.7142L31.6382 30.3418" stroke="white" stroke-width="1.58163" stroke-linecap="round"/>
  <path d="M37.3314 30.0254L33.061 26.2295" stroke="white" stroke-width="1.58163" stroke-linecap="round"/>
  <path d="M39.5466 27.0203L34.6436 22.2754" stroke="white" stroke-width="1.58163" stroke-linecap="round"/>
  <path d="M42.3941 24.4897L36.7002 18.3213" stroke="white" stroke-width="1.58163" stroke-linecap="round"/>
  <path d="M45.2406 22.2754L38.7559 14.3672" stroke="white" stroke-width="1.58163" stroke-linecap="round"/>
  <path d="M48.0878 19.745L41.7612 11.5205" stroke="white" stroke-width="1.58163" stroke-linecap="round"/>
  <path d="M50.9346 17.6891L45.0825 8.67383" stroke="white" stroke-width="1.58163" stroke-linecap="round"/>
</svg>