<svg width="24" height="24" viewBox="0 0 24 24" fill="none" xmlns="http://www.w3.org/2000/svg">
<g clip-path="url(#clip0_5120_91771)">
<path d="M15.6682 1.53639C15.4963 1.35311 15.2632 1.25015 15.0201 1.25015H4.66667C4.16041 1.25015 3.75 1.68769 3.75 2.22743V21.7729C3.75 22.3126 4.16041 22.7502 4.66667 22.7502H19.3333C19.8396 22.7502 20.25 22.3126 20.25 21.7729V6.82588C20.25 6.56669 20.1534 6.31812 19.9815 6.13485L15.6682 1.53639Z" fill="#4885FF"/>
<rect x="1" y="12.4111" width="22" height="12.9548" rx="1" fill="#205BCD"/>
<path d="M21.6459 20.8409V21.5216H19.0063V20.8409H21.6459ZM19.3056 16.9328V21.5216H18.314V16.9328H19.3056Z" fill="white"/>
<path d="M21.6463 20.8406H19.3057V16.9329H18.3139V21.5222H21.6463V20.8406ZM19.4275 20.7189H21.7681V21.6439H18.1921V16.8111H19.4275V20.7189Z" fill="white"/>
<path d="M12.2629 16.9328H13.1211L14.5563 20.387L15.9879 16.9328H16.8497L14.8989 21.5216H14.2101L12.2629 16.9328ZM11.8302 16.9328H12.6704L12.8218 20.1066V21.5216H11.8302V16.9328ZM16.4386 16.9328H17.2824V21.5216H16.2908V20.1066L16.4386 16.9328Z" fill="white"/>
<path d="M17.2824 16.9329H15.9873L14.5562 20.3871L13.1216 16.9329H11.8301V21.5222H12.822V20.1066L12.7217 18.0131L14.2101 21.5222H14.8988L16.3872 18.0178L16.2905 20.1066V21.5222H17.2824V16.9329ZM17.4041 21.6439H16.1688V20.1006L16.2344 18.6922L15.011 21.5699L14.98 21.6439H14.1289L14.0979 21.5699L12.8757 18.691L12.9437 20.1006V21.6439H11.7084V16.8111H13.2027L13.2338 16.8863L14.5551 20.0672L15.8751 16.8863L15.9062 16.8111H17.4041V21.6439Z" fill="white"/>
<path d="M9.51812 16.9328V21.5216H8.53008V16.9328H9.51812ZM11.148 16.9328V17.6167H6.91821V16.9328H11.148Z" fill="white"/>
<path d="M11.1482 16.9329H6.91813V17.6168H8.52946V21.5222H9.51774V17.6168H11.1482V16.9329ZM11.2699 17.7385H9.64068V21.6439H8.40771V17.7385H6.79639V16.8111H11.2699V17.7385Z" fill="white"/>
<path d="M5.60519 18.827V19.5077H2.84302V18.827H5.60519ZM3.11347 16.9328V21.5216H2.12183V16.9328H3.11347ZM6.34081 16.9328V21.5216H5.34917V16.9328H6.34081Z" fill="white"/>
<path d="M3.11361 16.9329H2.12174V21.5222H3.11361V19.5074H5.34918V21.5222H6.34104V16.9329H5.34918V18.8271H3.11361V16.9329ZM6.46278 21.6439H5.22743V19.6304H3.23535V21.6439H2V16.8111H3.23535V18.7053H5.22743V16.8111H6.46278V21.6439Z" fill="white"/>
<path d="M20.2501 6.86899H16.229C15.5386 6.86899 14.979 6.30935 14.979 5.61899V1.25015H15.0201C15.2632 1.25015 15.4964 1.35311 15.6683 1.53639L19.9816 6.13485C20.1535 6.31812 20.2501 6.56669 20.2501 6.82588V6.86899Z" fill="#1C65F8"/>
</g>
<defs>
<clipPath id="clip0_5120_91771">
<rect width="24" height="24" fill="white"/>
</clipPath>
</defs>
</svg>
