<svg width="20" height="20" viewBox="0 0 20 20" fill="none" xmlns="http://www.w3.org/2000/svg">
<g clip-path="url(#clip0_2455_179441)">
<path fill-rule="evenodd" clip-rule="evenodd" d="M14.5807 9.16667C14.5807 8.93655 14.7673 8.75 14.9974 8.75H16.6641C16.8942 8.75 17.0807 8.93655 17.0807 9.16667V10.8333C17.0807 11.0635 16.8942 11.25 16.6641 11.25H14.9974C14.7673 11.25 14.5807 11.0635 14.5807 10.8333V9.16667ZM4.9974 8.75C5.22751 8.75 5.41406 8.93655 5.41406 9.16667V10.8333C5.41406 11.0635 5.22751 11.25 4.9974 11.25H3.33073C3.10061 11.25 2.91406 11.0635 2.91406 10.8333V9.16667C2.91406 8.93655 3.10061 8.75 3.33073 8.75H4.9974ZM10.8307 8.75C11.0608 8.75 11.2474 8.93655 11.2474 9.16667V10.8333C11.2474 11.0635 11.0608 11.25 10.8307 11.25H9.16406C8.93394 11.25 8.7474 11.0635 8.7474 10.8333V9.16667C8.7474 8.93655 8.93394 8.75 9.16406 8.75H10.8307Z" fill="#80838A"/>
</g>
<defs>
<clipPath id="clip0_2455_179441">
<rect width="20" height="20" fill="white"/>
</clipPath>
</defs>
</svg>
