<svg xmlns="http://www.w3.org/2000/svg" width="17" height="16" viewBox="0 0 17 16" fill="none">
  <g clip-path="url(#clip0_795_67745)">
    <path fill-rule="evenodd" clip-rule="evenodd" d="M8.49984 0.666748C12.5499 0.666748 15.8332 3.94999 15.8332 8.00008C15.8332 12.0502 12.5499 15.3334 8.49984 15.3334C4.44975 15.3334 1.1665 12.0502 1.1665 8.00008C1.1665 3.94999 4.44975 0.666748 8.49984 0.666748ZM8.49984 2.00008C5.18613 2.00008 2.49984 4.68637 2.49984 8.00008C2.49984 11.3138 5.18613 14.0001 8.49984 14.0001C11.8135 14.0001 14.4998 11.3138 14.4998 8.00008C14.4998 4.68637 11.8135 2.00008 8.49984 2.00008ZM7.49984 4.66675C7.68393 4.66675 7.83317 4.81599 7.83317 5.00008V11.0001C7.83317 11.1842 7.68393 11.3334 7.49984 11.3334H6.83317C6.64908 11.3334 6.49984 11.1842 6.49984 11.0001V5.00008C6.49984 4.81599 6.64908 4.66675 6.83317 4.66675H7.49984ZM10.1665 4.66675C10.3506 4.66675 10.4998 4.81599 10.4998 5.00008V11.0001C10.4998 11.1842 10.3506 11.3334 10.1665 11.3334H9.49984C9.31574 11.3334 9.1665 11.1842 9.1665 11.0001V5.00008C9.1665 4.81599 9.31574 4.66675 9.49984 4.66675H10.1665Z" fill="url(#paint0_linear_795_67745)"/>
  </g>
  <defs>
    <linearGradient id="paint0_linear_795_67745" x1="1.1665" y1="29.2667" x2="24.3062" y2="24.2891" gradientUnits="userSpaceOnUse">
      <stop offset="0.1" stop-color="#3B91FF"/>
      <stop offset="0.5" stop-color="#0D5EFF"/>
      <stop offset="0.85" stop-color="#C069FF"/>
    </linearGradient>
    <clipPath id="clip0_795_67745">
      <rect width="16" height="16" fill="white" transform="translate(0.5)"/>
    </clipPath>
  </defs>
</svg>