<svg xmlns="http://www.w3.org/2000/svg" width="17" height="16" viewBox="0 0 17 16" fill="none">
  <g clip-path="url(#clip0_898_62067)">
    <path fill-rule="evenodd" clip-rule="evenodd" d="M8.43435 0.66765C8.88869 0.659197 9.34043 0.703117 9.78032 0.797196C10.1515 0.876576 10.3408 1.27337 10.2133 1.63084C10.0883 1.98106 9.70543 2.16046 9.33946 2.09464C9.05108 2.04278 8.75672 2.01904 8.46082 2.02455C7.68759 2.03894 6.93307 2.25247 6.27564 2.64219C5.61829 3.03188 5.08243 3.58322 4.72265 4.23803C4.36291 4.89278 4.19199 5.62763 4.22693 6.36649C4.26189 7.10537 4.50151 7.82247 4.92181 8.44329C5.34218 9.06426 5.92824 9.5667 6.62004 9.89732C6.85831 10.0112 7.00938 10.2478 7.00938 10.5069V11.9762H10.0794V10.5069C10.0794 10.2471 10.2312 10.01 10.4705 9.89649C10.5908 9.83938 10.8048 9.70792 11.0176 9.56989C11.338 9.36206 11.7679 9.40817 12.0231 9.6923C12.2896 9.98905 12.2604 10.4287 11.9227 10.641C11.7326 10.7606 11.5539 10.8641 11.4686 10.9129V12.1177C11.4686 12.4432 11.3343 12.7534 11.0985 12.9806C10.8629 13.2075 10.5455 13.3333 10.2166 13.3333H6.87217C6.54323 13.3333 6.22583 13.2075 5.99031 12.9806C5.75446 12.7534 5.62015 12.4432 5.62015 12.1177V10.9118C4.87581 10.4836 4.23984 9.89618 3.76307 9.19198C3.20508 8.36767 2.88577 7.41375 2.83919 6.42914C2.79262 5.44452 3.02054 4.4663 3.49861 3.5962C3.97664 2.72617 4.68701 1.99649 5.55495 1.48197C6.4228 0.967488 7.417 0.68659 8.43435 0.66765ZM11.7152 2.67813C11.8339 2.21947 12.4847 2.21793 12.6056 2.67602L12.7256 3.13093C12.8947 3.77153 13.395 4.27184 14.0356 4.4409L14.4905 4.56095C14.9486 4.68184 14.9471 5.3326 14.4884 5.45132L14.0414 5.56702C13.397 5.73381 12.8928 6.23557 12.723 6.8792L12.6056 7.3239C12.4847 7.78199 11.8339 7.78045 11.7152 7.32178L11.6022 6.88501C11.4346 6.23755 10.929 5.73194 10.2815 5.56436L9.84476 5.45132C9.3861 5.3326 9.38455 4.68184 9.84264 4.56095L10.2873 4.4436C10.931 4.27374 11.4327 3.76959 11.5995 3.12516L11.7152 2.67813ZM6.83304 14C6.4649 14 6.16658 14.319 6.16659 14.6871C6.16659 15.0554 6.46518 15.3333 6.8335 15.3333H10.1666C10.5348 15.3333 10.8333 15.0348 10.8333 14.6666C10.8333 14.2984 10.5348 14 10.1666 14H6.83304Z" fill="url(#paint0_linear_898_62067)"/>
  </g>
  <defs>
    <linearGradient id="paint0_linear_898_62067" x1="2.83325" y1="15.3333" x2="14.8333" y2="15.3333" gradientUnits="userSpaceOnUse">
      <stop offset="0.01" stop-color="#3B91FF"/>
      <stop offset="0.4" stop-color="#0D5EFF"/>
      <stop offset="0.995" stop-color="#C069FF"/>
    </linearGradient>
    <clipPath id="clip0_898_62067">
      <rect width="16" height="16" fill="white" transform="translate(0.5)"/>
    </clipPath>
  </defs>
</svg>