<svg width="20" height="20" viewBox="0 0 20 20" fill="none" xmlns="http://www.w3.org/2000/svg">
<g clip-path="url(#clip0_3037_3968)">
<path d="M18.5577 8.7753L3.55644 0.831427C2.51252 0.278705 1.30007 1.20077 1.55392 2.35454L2.77674 7.91098C2.84036 8.1999 2.99473 8.46089 3.21729 8.6558C3.43985 8.85071 3.71892 8.96931 4.01371 8.99427L11.8143 9.65494C12.2371 9.69077 12.2374 10.3095 11.8143 10.3455L4.01324 11.0072C3.7185 11.0321 3.43948 11.1507 3.21699 11.3456C2.99451 11.5406 2.84024 11.8016 2.77674 12.0905L1.55392 17.646C1.30007 18.7992 2.51276 19.7215 3.55644 19.1691L18.5575 11.2254C19.5408 10.7045 19.5408 9.29597 18.5577 8.7753Z" fill="#CCCED0"/>
</g>
<defs>
<clipPath id="clip0_3037_3968">
<rect width="20" height="20" fill="white"/>
</clipPath>
</defs>
</svg>
