<svg xmlns="http://www.w3.org/2000/svg" width="16" height="16" viewBox="0 0 16 16" fill="none">
  <g clip-path="url(#clip0_941_72675)">
    <path fill-rule="evenodd" clip-rule="evenodd" d="M8.00033 0.666656C12.0504 0.666656 15.3337 3.9499 15.3337 7.99999C15.3337 12.0501 12.0504 15.3333 8.00033 15.3333C3.95024 15.3333 0.666992 12.0501 0.666992 7.99999C0.666992 3.9499 3.95024 0.666656 8.00033 0.666656ZM8.00033 1.99999C4.68662 1.99999 2.00033 4.68628 2.00033 7.99999C2.00033 11.3137 4.68662 14 8.00033 14C11.314 14 14.0003 11.3137 14.0003 7.99999C14.0003 4.68628 11.314 1.99999 8.00033 1.99999ZM9.40032 5.66666C9.91579 5.66666 10.3337 6.08452 10.3337 6.59999V9.39999C10.3337 9.91545 9.91579 10.3333 9.40032 10.3333H6.60033C6.08486 10.3333 5.66699 9.91545 5.66699 9.39999V6.59999C5.66699 6.08452 6.08486 5.66666 6.60033 5.66666H9.40032Z" fill="url(#paint0_linear_941_72675)"/>
  </g>
  <defs>
    <linearGradient id="paint0_linear_941_72675" x1="0.666992" y1="29.2667" x2="23.8067" y2="24.289" gradientUnits="userSpaceOnUse">
      <stop offset="0.1" stop-color="#3B91FF"/>
      <stop offset="0.5" stop-color="#0D5EFF"/>
      <stop offset="0.85" stop-color="#C069FF"/>
    </linearGradient>
    <clipPath id="clip0_941_72675">
      <rect width="16" height="16" fill="white"/>
    </clipPath>
  </defs>
</svg>
