<svg xmlns="http://www.w3.org/2000/svg" width="17" height="16" viewBox="0 0 17 16" fill="none">
  <g clip-path="url(#clip0_957_61385)">
    <path fill-rule="evenodd" clip-rule="evenodd" d="M8.83301 0.666626C12.699 0.666626 15.833 3.80063 15.833 7.66663C15.833 11.5326 12.699 14.6666 8.83301 14.6666H2.53301C2.14641 14.6666 1.83301 14.3532 1.83301 13.9666V7.66663C1.83301 3.80063 4.96701 0.666626 8.83301 0.666626ZM8.83301 1.99996C5.70339 1.99996 3.16634 4.53701 3.16634 7.66663V13.3333H8.83301C11.9626 13.3333 14.4997 10.7962 14.4997 7.66663C14.4997 4.53701 11.9626 1.99996 8.83301 1.99996ZM9.07236 5.33329C9.22095 5.33329 9.27483 5.34876 9.32915 5.37781C9.38347 5.40687 9.4261 5.4495 9.45515 5.50382C9.4842 5.55814 9.49967 5.61202 9.49967 5.76061V10.2393C9.49967 10.3879 9.4842 10.4418 9.45515 10.4961C9.4261 10.5504 9.38347 10.5931 9.32915 10.6221C9.27483 10.6512 9.22095 10.6666 9.07236 10.6666H8.59366C8.44507 10.6666 8.39119 10.6512 8.33687 10.6221C8.28255 10.5931 8.23991 10.5504 8.21086 10.4961C8.18181 10.4418 8.16634 10.3879 8.16634 10.2393V5.76061C8.16634 5.61202 8.18181 5.55814 8.21086 5.50382C8.23991 5.4495 8.28255 5.40687 8.33687 5.37781C8.39119 5.34876 8.44507 5.33329 8.59366 5.33329H9.07236ZM11.739 6.33329C11.8876 6.33329 11.9415 6.34876 11.9958 6.37781C12.0501 6.40687 12.0928 6.4495 12.1218 6.50382C12.1509 6.55814 12.1663 6.61202 12.1663 6.76061V8.90598C12.1663 9.05456 12.1509 9.10845 12.1218 9.16277C12.0928 9.21709 12.0501 9.25972 11.9958 9.28877C11.9415 9.31782 11.8876 9.33329 11.739 9.33329H11.2603C11.1117 9.33329 11.0579 9.31782 11.0035 9.28877C10.9492 9.25972 10.9066 9.21709 10.8775 9.16277C10.8485 9.10845 10.833 9.05456 10.833 8.90598V6.76061C10.833 6.61202 10.8485 6.55814 10.8775 6.50382C10.9066 6.4495 10.9492 6.40687 11.0035 6.37781C11.0579 6.34876 11.1117 6.33329 11.2603 6.33329H11.739ZM6.40569 6.33329C6.55428 6.33329 6.60816 6.34876 6.66248 6.37781C6.7168 6.40687 6.75943 6.4495 6.78849 6.50382C6.81754 6.55814 6.83301 6.61202 6.83301 6.76061V8.90598C6.83301 9.05456 6.81754 9.10845 6.78849 9.16277C6.75943 9.21709 6.7168 9.25972 6.66248 9.28877C6.60816 9.31782 6.55428 9.33329 6.40569 9.33329H5.92699C5.7784 9.33329 5.72452 9.31782 5.6702 9.28877C5.61588 9.25972 5.57325 9.21709 5.5442 9.16277C5.51515 9.10845 5.49967 9.05456 5.49967 8.90598V6.76061C5.49967 6.61202 5.51515 6.55814 5.5442 6.50382C5.57325 6.4495 5.61588 6.40687 5.6702 6.37781C5.72452 6.34876 5.7784 6.33329 5.92699 6.33329H6.40569Z" fill="url(#paint0_linear_957_61385)"/>
  </g>
  <defs>
    <linearGradient id="paint0_linear_957_61385" x1="1.83301" y1="27.9666" x2="23.9209" y2="23.2153" gradientUnits="userSpaceOnUse">
      <stop offset="0.1" stop-color="#3B91FF"/>
      <stop offset="0.5" stop-color="#0D5EFF"/>
      <stop offset="0.85" stop-color="#C069FF"/>
    </linearGradient>
    <clipPath id="clip0_957_61385">
      <rect width="16" height="16" fill="white" transform="translate(0.5)"/>
    </clipPath>
  </defs>
</svg>