<svg width="20" height="34" viewBox="0 0 20 34" fill="none" xmlns="http://www.w3.org/2000/svg">
<g clip-path="url(#clip0_695_15160)">
<path d="M10.0029 -6.10352e-05C9.47203 -6.10352e-05 9.02385 0.370739 8.97049 0.861583C8.95982 0.949615 8.95182 1.04031 8.94114 1.12835C8.58366 4.66562 8.38625 8.2109 8.56499 11.7588C8.65569 13.5302 9.26661 30.9391 9.34931 33.3773C9.35998 33.7294 9.65077 34.0069 10.0029 34.0042C10.3524 34.0042 10.6378 33.7268 10.6485 33.3773C10.7419 30.6297 11.3501 13.5302 11.4408 11.7588C11.6196 8.20823 11.4222 4.66562 11.0647 1.12835C11.054 1.04031 11.046 0.949615 11.0353 0.861583C10.982 0.370739 10.5311 -6.10352e-05 10.0029 -6.10352e-05Z" fill="url(#paint0_linear_695_15160)"/>
</g>
<g clip-path="url(#clip1_695_15160)">
<path d="M2.37573 18.1559C2.2877 17.513 2.22901 16.8914 2.06894 16.2886C1.9729 15.9258 1.62609 15.667 1.22326 15.667C0.82043 15.667 0.473621 15.9258 0.377581 16.2886C0.217516 16.8941 0.158826 17.5157 0.0707898 18.1559C-0.105282 19.3136 0.0947995 20.4607 0.198842 21.6051C0.273539 22.4668 0.457615 24.4595 0.566993 25.3158C0.585667 25.4679 0.607009 25.6199 0.628352 25.7746C0.652361 26.0841 0.908466 26.3295 1.22326 26.3295C1.53806 26.3295 1.79683 26.0841 1.81817 25.7746C1.83685 25.6226 1.85819 25.4705 1.87953 25.3158C1.98891 24.4595 2.17298 22.4668 2.24768 21.6051C2.35172 20.4607 2.55181 19.3136 2.37573 18.1559Z" fill="url(#paint1_linear_695_15160)"/>
</g>
<g clip-path="url(#clip2_695_15160)">
<path d="M15.6512 7.5841C15.6352 7.43472 15.6058 7.29066 15.5818 7.14128C15.5178 6.74113 15.1496 6.44769 14.7148 6.44769C14.7041 6.44769 14.6961 6.44769 14.6854 6.44769C14.6748 6.44769 14.6668 6.44769 14.6561 6.44769C14.2212 6.44769 13.8558 6.7438 13.7891 7.14128C13.7651 7.288 13.7357 7.43472 13.7197 7.5841C13.3489 11.1854 13.2795 12.1431 13.3782 15.571C13.4022 16.3873 13.7597 25.9054 14.0292 29.9735C14.0505 30.299 14.3226 30.5524 14.6508 30.5524C14.6641 30.5524 14.6748 30.5497 14.6881 30.5497C14.7014 30.5497 14.7121 30.5524 14.7254 30.5524C15.0536 30.5524 15.3257 30.299 15.347 29.9735C15.6165 25.9054 15.974 16.3873 15.998 15.571C16.0967 12.1431 16.0246 11.1854 15.6565 7.5841H15.6512Z" fill="url(#paint2_linear_695_15160)"/>
</g>
<g clip-path="url(#clip3_695_15160)">
<path d="M19.9323 18.1558C19.8442 17.5129 19.7855 16.8914 19.6255 16.2885C19.5294 15.9257 19.1826 15.6669 18.7798 15.6669C18.3769 15.6669 18.0301 15.9257 17.9341 16.2885C17.774 16.894 17.7153 17.5156 17.6273 18.1558C17.4512 19.3136 17.6513 20.4607 17.7554 21.6051C17.8301 22.4667 18.0141 24.4594 18.1235 25.3157C18.1422 25.4678 18.1635 25.6199 18.1849 25.7746C18.2089 26.084 18.465 26.3294 18.7798 26.3294C19.0946 26.3294 19.3533 26.084 19.3747 25.7746C19.3934 25.6225 19.4147 25.4705 19.436 25.3157C19.5454 24.4594 19.7295 22.4667 19.8042 21.6051C19.9082 20.4607 20.1083 19.3136 19.9323 18.1558Z" fill="url(#paint3_linear_695_15160)"/>
</g>
<g clip-path="url(#clip4_695_15160)">
<path d="M6.2891 7.58404C6.27309 7.43466 6.24375 7.2906 6.21974 7.14121C6.15571 6.74107 5.78756 6.44763 5.35272 6.44763C5.34204 6.44763 5.33404 6.44763 5.32337 6.44763C5.3127 6.44763 5.3047 6.44763 5.29403 6.44763C4.85918 6.44763 4.4937 6.74374 4.427 7.14121C4.40299 7.28793 4.37365 7.43466 4.35764 7.58404C3.98682 11.1853 3.91746 12.143 4.01617 15.5709C4.04018 16.3872 4.39766 25.9053 4.6671 29.9735C4.68844 30.2989 4.96056 30.5523 5.28869 30.5523C5.30203 30.5523 5.3127 30.5497 5.32604 30.5497C5.33938 30.5497 5.35005 30.5523 5.36339 30.5523C5.69152 30.5523 5.96363 30.2989 5.98497 29.9735C6.25442 25.9053 6.6119 16.3872 6.63591 15.5709C6.73461 12.143 6.66259 11.1853 6.29443 7.58404H6.2891Z" fill="url(#paint4_linear_695_15160)"/>
</g>
<defs>
<linearGradient id="paint0_linear_695_15160" x1="10.0029" y1="38.6219" x2="10.0029" y2="1.12301" gradientUnits="userSpaceOnUse">
<stop offset="0.12" stop-color="#CB63FF"/>
<stop offset="0.24" stop-color="#936CFF"/>
<stop offset="0.38" stop-color="#5476FF"/>
<stop offset="0.5" stop-color="#267DFF"/>
<stop offset="0.6" stop-color="#0A82FF"/>
<stop offset="0.65" stop-color="#0084FF"/>
<stop offset="0.96" stop-color="#25DFF7"/>
</linearGradient>
<linearGradient id="paint1_linear_695_15160" x1="1.22326" y1="38.6219" x2="1.22326" y2="1.12308" gradientUnits="userSpaceOnUse">
<stop offset="0.12" stop-color="#CB63FF"/>
<stop offset="0.24" stop-color="#936CFF"/>
<stop offset="0.38" stop-color="#5476FF"/>
<stop offset="0.5" stop-color="#267DFF"/>
<stop offset="0.6" stop-color="#0A82FF"/>
<stop offset="0.65" stop-color="#0084FF"/>
<stop offset="0.96" stop-color="#25DFF7"/>
</linearGradient>
<linearGradient id="paint2_linear_695_15160" x1="14.6854" y1="38.622" x2="14.6854" y2="1.12311" gradientUnits="userSpaceOnUse">
<stop offset="0.12" stop-color="#CB63FF"/>
<stop offset="0.24" stop-color="#936CFF"/>
<stop offset="0.38" stop-color="#5476FF"/>
<stop offset="0.5" stop-color="#267DFF"/>
<stop offset="0.6" stop-color="#0A82FF"/>
<stop offset="0.65" stop-color="#0084FF"/>
<stop offset="0.96" stop-color="#25DFF7"/>
</linearGradient>
<linearGradient id="paint3_linear_695_15160" x1="18.7798" y1="38.6219" x2="18.7798" y2="1.12302" gradientUnits="userSpaceOnUse">
<stop offset="0.12" stop-color="#CB63FF"/>
<stop offset="0.24" stop-color="#936CFF"/>
<stop offset="0.38" stop-color="#5476FF"/>
<stop offset="0.5" stop-color="#267DFF"/>
<stop offset="0.6" stop-color="#0A82FF"/>
<stop offset="0.65" stop-color="#0084FF"/>
<stop offset="0.96" stop-color="#25DFF7"/>
</linearGradient>
<linearGradient id="paint4_linear_695_15160" x1="5.32337" y1="38.6219" x2="5.32337" y2="1.12305" gradientUnits="userSpaceOnUse">
<stop offset="0.12" stop-color="#CB63FF"/>
<stop offset="0.24" stop-color="#936CFF"/>
<stop offset="0.38" stop-color="#5476FF"/>
<stop offset="0.5" stop-color="#267DFF"/>
<stop offset="0.6" stop-color="#0A82FF"/>
<stop offset="0.65" stop-color="#0084FF"/>
<stop offset="0.96" stop-color="#25DFF7"/>
</linearGradient>
<clipPath id="clip0_695_15160">
<rect width="3.00973" height="34.0043" fill="white" transform="translate(8.49719)"/>
</clipPath>
<clipPath id="clip1_695_15160">
<rect width="2.44457" height="10.6625" fill="white" transform="translate(-0.00012207 15.667)"/>
</clipPath>
<clipPath id="clip2_695_15160">
<rect width="2.70049" height="24.1047" fill="white" transform="translate(13.3357 6.44769)"/>
</clipPath>
<clipPath id="clip3_695_15160">
<rect width="2.44457" height="10.6625" fill="white" transform="translate(17.5557 15.667)"/>
</clipPath>
<clipPath id="clip4_695_15160">
<rect width="2.70049" height="24.1047" fill="white" transform="translate(3.97168 6.44769)"/>
</clipPath>
</defs>
</svg>
