<svg width="1em" height="1em" viewBox="0 0 16 16" fill="none" xmlns="http://www.w3.org/2000/svg">
<g clip-path="url(#clip0_14_261379)">
<path fill-rule="evenodd" clip-rule="evenodd" d="M7.00032 10.3335C7.00032 11.3905 6.2975 12.2833 5.33367 12.5702L5.33366 14.2395C5.33366 14.3881 5.31819 14.442 5.28914 14.4963C5.26008 14.5506 5.21745 14.5933 5.16313 14.6223C5.10881 14.6514 5.05493 14.6668 4.90634 14.6668L4.42764 14.6668C4.27905 14.6668 4.22517 14.6514 4.17085 14.6223C4.11653 14.5933 4.0739 14.5506 4.04485 14.4963C4.0158 14.442 4.00032 14.3881 4.00032 14.2395L3.99998 12.5701C3.03633 12.2831 2.33366 11.3904 2.33366 10.3335C2.33366 9.27662 3.03633 8.38385 3.99998 8.09689L4.00033 1.76081C4.00033 1.61222 4.0158 1.55834 4.04485 1.50402C4.0739 1.4497 4.11653 1.40707 4.17085 1.37802C4.22517 1.34897 4.27905 1.3335 4.42764 1.3335L4.90634 1.3335C5.05493 1.3335 5.10881 1.34897 5.16313 1.37802C5.21745 1.40707 5.26009 1.4497 5.28914 1.50402C5.31819 1.55834 5.33366 1.61222 5.33366 1.76081L5.33367 8.09679C6.2975 8.38365 7.00032 9.2765 7.00032 10.3335ZM5.66699 10.3335C5.66699 9.78121 5.21928 9.3335 4.66699 9.3335C4.11471 9.3335 3.66699 9.78121 3.66699 10.3335C3.66699 10.8858 4.11471 11.3335 4.66699 11.3335C5.21928 11.3335 5.66699 10.8858 5.66699 10.3335ZM13.667 5.66683C13.667 6.72383 12.9642 7.61668 12.0003 7.90353L12.0003 14.2395C12.0003 14.3881 11.9849 14.442 11.9558 14.4963C11.9268 14.5506 11.8841 14.5933 11.8298 14.6223C11.7755 14.6514 11.7216 14.6668 11.573 14.6668L11.0943 14.6668C10.9457 14.6668 10.8918 14.6514 10.8375 14.6223C10.7832 14.5933 10.7406 14.5506 10.7115 14.4963C10.6825 14.442 10.667 14.3881 10.667 14.2395L10.6666 7.90343C9.70299 7.61647 9.00032 6.72371 9.00033 5.66683C9.00033 4.60995 9.70299 3.71719 10.6666 3.43023L10.667 1.76081C10.667 1.61222 10.6825 1.55834 10.7115 1.50402C10.7406 1.4497 10.7832 1.40707 10.8375 1.37802C10.8918 1.34897 10.9457 1.3335 11.0943 1.3335L11.573 1.3335C11.7216 1.3335 11.7755 1.34897 11.8298 1.37802C11.8841 1.40707 11.9268 1.4497 11.9558 1.50402C11.9849 1.55834 12.0003 1.61222 12.0003 1.76081L12.0003 3.43013C12.9642 3.71698 13.667 4.60983 13.667 5.66683ZM12.3337 5.66683C12.3337 5.11454 11.8859 4.66683 11.3337 4.66683C10.7814 4.66683 10.3337 5.11454 10.3337 5.66683C10.3337 6.21911 10.7814 6.66683 11.3337 6.66683C11.8859 6.66683 12.3337 6.21911 12.3337 5.66683Z" fill="currentColor"/>
</g>
<defs>
<clipPath id="clip0_14_261379">
<rect width="16" height="16" fill="white" style="fill:white;fill-opacity:1;" transform="translate(16) rotate(90)"/>
</clipPath>
</defs>
</svg>
