<svg xmlns="http://www.w3.org/2000/svg" width="25" height="24" viewBox="0 0 25 24" fill="none">
  <path fill-rule="evenodd" clip-rule="evenodd" d="M14.324 5.86541C13.0021 5.47238 11.5886 5.51685 10.294 5.99219C8.99949 6.46753 7.89309 7.34831 7.13964 8.50336C6.38618 9.65841 6.02598 11.0259 6.11266 12.4023C6.19935 13.7786 6.72828 15.0902 7.62071 16.1415C8.51313 17.1929 9.72128 17.9279 11.0653 18.2371C12.4092 18.5463 13.8171 18.413 15.0792 17.8573C15.989 17.4566 17.0514 17.8694 17.452 18.7792C17.8526 19.689 17.4399 20.7513 16.53 21.152C14.558 22.0204 12.3582 22.2285 10.2582 21.7455C8.15826 21.2624 6.27051 20.114 4.8761 18.4712C3.48169 16.8284 2.65523 14.7791 2.51978 12.6286C2.38434 10.478 2.94716 8.34127 4.12443 6.5365C5.30171 4.73174 7.03045 3.35552 9.0532 2.6128C11.0759 1.87008 13.2845 1.8006 15.3499 2.41471C17.4154 3.02881 19.2272 4.29364 20.5156 6.02084C21.804 7.74804 22.5 9.8452 22.5 12C22.5 12.9941 21.6941 13.8 20.7 13.8C19.7059 13.8 18.9 12.9941 18.9 12C18.9 10.6209 18.4545 9.27874 17.63 8.17334C16.8054 7.06793 15.6458 6.25844 14.324 5.86541Z" fill="url(#paint0_linear_4665_119593)"/>
  <path fill-rule="evenodd" clip-rule="evenodd" d="M14.324 5.86541C13.0021 5.47238 11.5886 5.51685 10.294 5.99219C8.99949 6.46753 7.89309 7.34831 7.13964 8.50336C6.38618 9.65841 6.02598 11.0259 6.11266 12.4023C6.19935 13.7786 6.72828 15.0902 7.62071 16.1415C8.51313 17.1929 9.72128 17.9279 11.0653 18.2371C12.4092 18.5463 13.8171 18.413 15.0792 17.8573C15.989 17.4566 17.0514 17.8694 17.452 18.7792C17.8526 19.689 17.4399 20.7513 16.53 21.152C14.558 22.0204 12.3582 22.2285 10.2582 21.7455C8.15826 21.2624 6.27051 20.114 4.8761 18.4712C3.48169 16.8284 2.65523 14.7791 2.51978 12.6286C2.38434 10.478 2.94716 8.34127 4.12443 6.5365C5.30171 4.73174 7.03045 3.35552 9.0532 2.6128C11.0759 1.87008 13.2845 1.8006 15.3499 2.41471C17.4154 3.02881 19.2272 4.29364 20.5156 6.02084C21.804 7.74804 22.5 9.8452 22.5 12C22.5 12.9941 21.6941 13.8 20.7 13.8C19.7059 13.8 18.9 12.9941 18.9 12C18.9 10.6209 18.4545 9.27874 17.63 8.17334C16.8054 7.06793 15.6458 6.25844 14.324 5.86541Z" fill="url(#paint1_linear_4665_119593)"/>
  <defs>
    <linearGradient id="paint0_linear_4665_119593" x1="18.75" y1="8.25" x2="16.25" y2="17.625" gradientUnits="userSpaceOnUse">
      <stop stop-color="#7373EB"/>
      <stop offset="1" stop-color="#1717FF" stop-opacity="0"/>
    </linearGradient>
    <linearGradient id="paint1_linear_4665_119593" x1="-1.875" y1="18.875" x2="17.5" y2="22.625" gradientUnits="userSpaceOnUse">
      <stop stop-color="#ADADFF"/>
      <stop offset="1" stop-color="#8A8AFF" stop-opacity="0"/>
    </linearGradient>
  </defs>
</svg>
