<svg xmlns="http://www.w3.org/2000/svg" width="15" height="15" viewBox="0 0 15 15" fill="currentColor">
  <path fill-rule="evenodd" clip-rule="evenodd" d="M8.75727 1.35121C8.30415 1.2492 7.83864 1.19727 7.36679 1.19727C6.89483 1.19727 6.42921 1.24922 5.97599 1.35129L5.71448 1.41018L4.89937 3.26906L2.8917 3.04957L2.71021 3.24726C2.07474 3.93942 1.59799 4.76499 1.31853 5.66661L1.23975 5.92077L2.4345 7.5609L1.39642 8.98595L1.23975 9.20103L1.31853 9.4552C1.59799 10.3568 2.07474 11.1824 2.71021 11.8745L2.8917 12.0722L4.89937 11.8527L5.60683 13.4661L5.71448 13.7116L5.97599 13.7705C6.42921 13.8726 6.89483 13.9245 7.36679 13.9245C7.83864 13.9245 8.30415 13.8726 8.75727 13.7706L9.01876 13.7117L9.83419 11.8527L11.8419 12.0722L12.0234 11.8745C12.6588 11.1825 13.1355 10.357 13.415 9.45551L13.4937 9.20138L12.2991 7.5609L13.3371 6.1355L13.4937 5.92043L13.415 5.66629C13.1355 4.76479 12.6588 3.93933 12.0234 3.24726L11.8419 3.04957L9.83419 3.26906L9.01876 1.41009L8.75727 1.35121ZM6.46732 2.33475C6.7622 2.28381 7.06277 2.25798 7.36691 2.25798C7.67097 2.25798 7.97147 2.2838 8.26626 2.33471L8.91982 3.82464C9.07213 4.17185 9.43217 4.38004 9.80907 4.33885L11.4157 4.16321C11.8037 4.63025 12.1096 5.16095 12.3185 5.73284L11.3593 7.04998C11.1375 7.35455 11.1375 7.76746 11.3593 8.07204L12.3185 9.38917C12.1096 9.96106 11.8037 10.4918 11.4157 10.9588L9.80908 10.7832C9.43217 10.742 9.07213 10.9502 8.91982 11.2974L8.26626 12.7873C7.97147 12.8382 7.67097 12.864 7.36691 12.864C7.06277 12.864 6.7622 12.8382 6.46732 12.7873L5.81404 11.2974C5.6617 10.9502 5.30166 10.742 4.92476 10.7832L3.31816 10.9588C2.93007 10.4917 2.6241 9.96091 2.41524 9.38893L3.3745 8.07208C3.59636 7.76746 3.59636 7.35455 3.37453 7.04997L2.41524 5.73308C2.6241 5.1611 2.93007 4.63032 3.31816 4.16321L4.92475 4.33884C5.30166 4.38004 5.6617 4.17185 5.81401 3.82464L6.46732 2.33475ZM7.36692 4.90918C8.8263 4.90918 10.0083 6.09687 10.0083 7.5607C10.0083 9.02452 8.8263 10.2122 7.36692 10.2122C5.90754 10.2122 4.7255 9.02452 4.7255 7.5607C4.7255 6.09687 5.90754 4.90918 7.36692 4.90918ZM5.78593 7.5608C5.78593 6.6816 6.49425 5.96989 7.36674 5.96989C8.23923 5.96989 8.94755 6.6816 8.94755 7.5608C8.94755 8.44 8.23923 9.15171 7.36674 9.15171C6.49425 9.15171 5.78593 8.44 5.78593 7.5608Z" fill="currentColor"/>
</svg>
