<svg width="1em" height="1em" viewBox="0 0 18 18" fill="none" xmlns="http://www.w3.org/2000/svg">
<g id="record-stop" clip-path="url(#clip0_2356_8407)">
<path id="&#229;&#189;&#162;&#231;&#138;&#182;" fill-rule="evenodd" clip-rule="evenodd" d="M9 0.75C13.5563 0.75 17.25 4.44365 17.25 9C17.25 13.5563 13.5563 17.25 9 17.25C4.44365 17.25 0.75 13.5563 0.75 9C0.75 4.44365 4.44365 0.75 9 0.75ZM9 2.25C5.27208 2.25 2.25 5.27208 2.25 9C2.25 12.7279 5.27208 15.75 9 15.75C12.7279 15.75 15.75 12.7279 15.75 9C15.75 5.27208 12.7279 2.25 9 2.25ZM10.575 6.375C11.1549 6.375 11.625 6.8451 11.625 7.425V10.575C11.625 11.1549 11.1549 11.625 10.575 11.625H7.425C6.8451 11.625 6.375 11.1549 6.375 10.575V7.425C6.375 6.8451 6.8451 6.375 7.425 6.375H10.575Z" fill="currentColor"/>
</g>
<defs>
<clipPath id="clip0_2356_8407">
<rect width="18" height="18" fill="white"/>
</clipPath>
</defs>
</svg>
