<svg xmlns="http://www.w3.org/2000/svg" width="16" height="16" viewBox="0 0 16 16" fill="none">
  <path d="M13.2805 7.38037V3.04041C13.2805 2.69799 13.0029 2.42041 12.6605 2.42041H2.7406C2.39819 2.42041 2.12061 2.69799 2.12061 3.04041V12.9603C2.12061 13.3028 2.39819 13.5803 2.7406 13.5803H6.77057" stroke="#42464E" stroke-width="1.11599" stroke-linecap="round" stroke-linejoin="round"/>
  <path d="M8.89243 9.36192L10.4837 14.1358C10.5303 14.2755 10.7297 14.2699 10.7684 14.1279L11.4058 11.791C11.4197 11.74 11.4597 11.7001 11.5108 11.6864L13.8278 11.0656C13.9701 11.0275 13.9764 10.828 13.8369 10.7809L9.08123 9.1739C8.96479 9.13456 8.85356 9.24533 8.89243 9.36192Z" stroke="#42464E" stroke-width="1.11599"/>
</svg>
