<svg width="20" height="20" viewBox="0 0 20 20" fill="none" xmlns="http://www.w3.org/2000/svg">
<circle cx="10" cy="10" r="10" fill="#728AFF"/>
<path fill-rule="evenodd" clip-rule="evenodd" d="M16 9.5C16 12.5376 13.5376 15 10.5 15C10.3845 15 10.2698 14.9964 10.1561 14.9894C10.1533 14.9893 10.1515 14.9923 10.153 14.9947C10.1544 14.997 10.1528 14.9999 10.1501 14.9999H5.69072C5.42546 14.9999 5.28619 14.6851 5.46463 14.4888L6.34271 13.5229C6.45087 13.404 6.44759 13.2221 6.34228 13.1006C5.50603 12.1358 5 10.877 5 9.5C5 6.46243 7.46243 4 10.5 4C13.5376 4 16 6.46243 16 9.5ZM13.2398 11.6977C13.4784 11.4591 13.4784 11.0722 13.2398 10.8335C13.0011 10.5949 12.6142 10.5949 12.3755 10.8335C11.3016 11.9074 9.56037 11.9074 8.48643 10.8335C8.24777 10.5949 7.86084 10.5949 7.62218 10.8335C7.38353 11.0722 7.38353 11.4591 7.62218 11.6977C9.17343 13.249 11.6885 13.249 13.2398 11.6977Z" fill="url(#paint0_linear_10122_1634071)"/>
<defs>
<linearGradient id="paint0_linear_10122_1634071" x1="13.25" y1="4.91667" x2="8.66667" y2="11.7917" gradientUnits="userSpaceOnUse">
<stop stop-color="white" stop-opacity="0.8"/>
<stop offset="1" stop-color="white"/>
</linearGradient>
</defs>
</svg>
