<svg width="17" height="16" viewBox="0 0 17 16" fill="none" xmlns="http://www.w3.org/2000/svg">
<g clip-path="url(#clip0_795_32671)">
<path fill-rule="evenodd" clip-rule="evenodd" d="M8.50008 0.666504C12.5502 0.666504 15.8334 3.94975 15.8334 7.99984C15.8334 12.0499 12.5502 15.3332 8.50008 15.3332C4.44999 15.3332 1.16675 12.0499 1.16675 7.99984C1.16675 3.94975 4.44999 0.666504 8.50008 0.666504ZM8.50008 1.99984C5.18637 1.99984 2.50008 4.68613 2.50008 7.99984C2.50008 11.3135 5.18637 13.9998 8.50008 13.9998C11.8138 13.9998 14.5001 11.3135 14.5001 7.99984C14.5001 4.68613 11.8138 1.99984 8.50008 1.99984ZM6.85341 4.10117L12.1867 7.43451C12.6045 7.69562 12.6045 8.30406 12.1867 8.56517L6.85341 11.8985C6.40938 12.176 5.83342 11.8568 5.83342 11.3332V4.6665C5.83342 4.14288 6.40938 3.82365 6.85341 4.10117ZM7.16675 5.86934V10.1303L10.5756 7.99984L7.16675 5.86934Z" fill="url(#paint0_linear_795_32671)"/>
</g>
<defs>
<linearGradient id="paint0_linear_795_32671" x1="1.16675" y1="29.2665" x2="24.3064" y2="24.2889" gradientUnits="userSpaceOnUse">
<stop offset="0.1" stop-color="#3B91FF"/>
<stop offset="0.5" stop-color="#0D5EFF"/>
<stop offset="0.85" stop-color="#C069FF"/>
</linearGradient>
<clipPath id="clip0_795_32671">
<rect width="16" height="16" fill="white" transform="translate(0.5)"/>
</clipPath>
</defs>
</svg>
