<svg xmlns="http://www.w3.org/2000/svg" width="16" height="16" viewBox="0 0 16 16" fill="none">
  <g clip-path="url(#clip0_898_63353)">
    <path fill-rule="evenodd" clip-rule="evenodd" d="M13.1902 5.73896L13.4561 5.46706C13.7363 5.17994 13.7369 4.71461 13.4574 4.42674L10.9882 1.88386L10.9411 1.83946C10.8477 1.7588 10.7389 1.70639 10.6255 1.68224C10.4587 1.6467 10.282 1.67232 10.1295 1.75909C10.1173 1.76604 10.1052 1.77339 10.0934 1.78112C10.0496 1.8096 10.0082 1.84338 9.97004 1.88249L9.46296 2.40196L9.46975 2.40886L2.2817 9.82997C2.10103 10.0165 2 10.266 2 10.5257V12.9302L2.00197 12.9851C2.02942 13.3663 2.33996 13.6667 2.71901 13.6667H5.03964C5.30926 13.6667 5.56746 13.5579 5.75567 13.3648L13.1902 5.73896ZM10.9051 6.17291L12.1022 4.94501L10.4838 3.27836L9.26689 4.53473L10.9051 6.17291ZM9.97423 7.12769L4.89908 12.3334L3.33333 10.6607L8.33912 5.49258L9.97423 7.12769ZM2.24575 3.35517C2.79215 3.20801 3.21871 2.78081 3.36504 2.23419C3.44861 1.92204 3.89153 1.92204 3.9751 2.23419C4.12199 2.78286 4.55055 3.21142 5.09922 3.35831C5.41137 3.44187 5.41137 3.8848 5.09922 3.96836C4.5526 4.1147 4.1254 4.54127 3.97823 5.08767L3.97498 5.09976C3.89107 5.4113 3.44907 5.4113 3.36517 5.09976C3.21654 4.54793 2.78549 4.11687 2.23365 3.96824C1.92212 3.88434 1.92212 3.44234 2.23365 3.35843L2.24575 3.35517ZM10.344 11.5639C11.109 11.3579 11.7062 10.7598 11.9111 9.9945C12.0281 9.5575 12.6481 9.5575 12.7651 9.9945C12.9708 10.7626 13.5708 11.3626 14.3389 11.5683C14.7759 11.6853 14.7759 12.3054 14.3389 12.4223C13.5736 12.6272 12.9756 13.2244 12.7695 13.9894L12.765 14.0063C12.6475 14.4425 12.0287 14.4425 11.9112 14.0063C11.7032 13.2337 11.0997 12.6302 10.3271 12.4222C9.89096 12.3047 9.89096 11.6859 10.3271 11.5684L10.344 11.5639Z" fill="url(#paint0_linear_898_63353)"/>
  </g>
  <defs>
    <linearGradient id="paint0_linear_898_63353" x1="2" y1="26.3667" x2="21.9843" y2="22.0679" gradientUnits="userSpaceOnUse">
      <stop offset="0.1" stop-color="#3B91FF"/>
      <stop offset="0.5" stop-color="#0D5EFF"/>
      <stop offset="0.85" stop-color="#C069FF"/>
    </linearGradient>
    <clipPath id="clip0_898_63353">
      <rect width="16" height="16" fill="white"/>
    </clipPath>
  </defs>
</svg>