<svg xmlns="http://www.w3.org/2000/svg" width="16" height="16" viewBox="0 0 16 16" fill="none">
    <g clip-path="url(#clip0_1299_169054)">
        <path fill-rule="evenodd" clip-rule="evenodd" d="M8.00033 0.666626C12.0504 0.666626 15.3337 3.94987 15.3337 7.99996C15.3337 12.05 12.0504 15.3333 8.00033 15.3333C3.95024 15.3333 0.666992 12.05 0.666992 7.99996C0.666992 3.94987 3.95024 0.666626 8.00033 0.666626ZM8.00033 1.99996C4.68662 1.99996 2.00033 4.68625 2.00033 7.99996C2.00033 11.3137 4.68662 14 8.00033 14C11.314 14 14.0003 11.3137 14.0003 7.99996C14.0003 4.68625 11.314 1.99996 8.00033 1.99996ZM6.35366 4.10129L11.687 7.43463C12.1048 7.69574 12.1048 8.30418 11.687 8.56529L6.35366 11.8986C5.90963 12.1761 5.33366 11.8569 5.33366 11.3333V4.66663C5.33366 4.143 5.90963 3.82377 6.35366 4.10129ZM6.66699 5.86946V10.1305L10.0758 7.99996L6.66699 5.86946Z" fill="url(#paint0_linear_1299_169054)"/>
    </g>
    <defs>
        <linearGradient id="paint0_linear_1299_169054" x1="0.666992" y1="29.2666" x2="23.8067" y2="24.289" gradientUnits="userSpaceOnUse">
            <stop offset="0.1" stop-color="#ADD1FF"/>
            <stop offset="0.5" stop-color="#8ABCFF"/>
            <stop offset="0.85" stop-color="#E0BBFF"/>
        </linearGradient>
        <clipPath id="clip0_1299_169054">
            <rect width="16" height="16" fill="white"/>
        </clipPath>
    </defs>
</svg>
