<svg xmlns="http://www.w3.org/2000/svg" width="17" height="16" viewBox="0 0 17 16" fill="none">
  <g clip-path="url(#clip0_605_30367)">
    <path fill-rule="evenodd" clip-rule="evenodd" d="M13.4248 3.06487C13.7152 3.34947 13.7152 3.83996 13.4369 4.1185L12.1785 5.39012C11.8941 5.68079 11.4041 5.68079 11.1258 5.40223C10.8354 5.11158 10.8354 4.62715 11.1137 4.34255L12.3721 3.07698C12.6564 2.79238 13.1465 2.78027 13.4248 3.06487ZM3.8051 14.1037C3.44215 14.4731 2.825 14.4671 2.46806 14.1037C2.11104 13.7344 2.11104 13.1349 2.46806 12.7655L8.20961 6.97663C8.57261 6.61331 9.18973 6.61331 9.54668 6.97663C9.90968 7.346 9.90364 7.94549 9.54668 8.3088L3.8051 14.1037ZM13.449 12.9169C13.7273 12.6383 13.7213 12.1479 13.4369 11.8633L12.1724 10.6038C11.8881 10.3252 11.398 10.3312 11.1137 10.6159C10.8354 10.9005 10.8414 11.3849 11.1258 11.6695L12.3902 12.9351C12.6746 13.2137 13.1647 13.2076 13.449 12.9169ZM5.8924 4.34255C6.17074 4.62715 6.17074 5.11158 5.88027 5.40223C5.60201 5.68079 5.11196 5.68079 4.8276 5.39012L3.56313 4.12456C3.27877 3.84602 3.28478 3.35553 3.57517 3.06487C3.85352 2.78027 4.34356 2.79238 4.62793 3.07698L5.8924 4.34255ZM8.50001 1C8.09465 1 7.75584 1.34515 7.75584 1.75086V3.59774C7.75584 4.00345 8.09465 4.34255 8.50001 4.34255C8.90537 4.34255 9.25023 4.00345 9.25023 3.59774V1.75086C9.25023 1.34515 8.90537 1 8.50001 1ZM15.5 7.99998C15.5 7.59427 15.1612 7.25517 14.7558 7.25517H12.9105C12.5052 7.25517 12.1603 7.59427 12.1603 7.99998C12.1603 8.40569 12.5052 8.74479 12.9105 8.74479H14.7558C15.1612 8.74479 15.5 8.40569 15.5 7.99998ZM1.5 7.99998C1.5 8.40569 1.8449 8.74479 2.25025 8.74479H4.08947C4.49482 8.74479 4.83972 8.40569 4.83972 7.99998C4.83972 7.59427 4.49482 7.25517 4.08947 7.25517H2.25025C1.8449 7.25517 1.5 7.59427 1.5 7.99998ZM8.50001 11.6574C8.09465 11.6574 7.75584 12.0026 7.75584 12.4083V14.2491C7.75584 14.6548 8.09465 15 8.50001 15C8.90537 15 9.25023 14.6548 9.25023 14.2491V12.4083C9.25023 12.0026 8.90537 11.6574 8.50001 11.6574Z" fill="white"/>
  </g>
  <defs>
    <clipPath id="clip0_605_30367">
      <rect width="16" height="16" fill="white" transform="translate(0.5)"/>
    </clipPath>
  </defs>
</svg>