<svg width="28" height="28" viewBox="0 0 28 28" fill="none" xmlns="http://www.w3.org/2000/svg">
    <g filter="url(#filter0_b_2585_674810)">
        <path fill-rule="evenodd" clip-rule="evenodd" d="M15.2145 14.1191L14.6252 14.7083C14.4625 14.8711 14.4625 15.1349 14.6252 15.2976L18.6611 19.3329L16.1949 19.3333C16.0091 19.3333 15.9418 19.3527 15.8739 19.389C15.806 19.4253 15.7527 19.4786 15.7164 19.5465C15.6801 19.6144 15.6607 19.6818 15.6607 19.8675V20.4659C15.6607 20.6516 15.6801 20.719 15.7164 20.7869C15.7527 20.8548 15.806 20.908 15.8739 20.9444C15.9418 20.9807 16.0091 21 16.1949 21H20.6607C21.121 21 21.4941 20.6269 21.4941 20.1667V15.7008C21.4941 15.5151 21.4747 15.4477 21.4384 15.3798C21.4021 15.3119 21.3488 15.2586 21.2809 15.2223C21.213 15.186 21.1457 15.1667 20.9599 15.1667H20.3615C20.1758 15.1667 20.1085 15.186 20.0406 15.2223C19.9727 15.2586 19.9194 15.3119 19.883 15.3798C19.8467 15.4477 19.8274 15.5151 19.8274 15.7008V18.1425L15.8037 14.1191C15.641 13.9564 15.3772 13.9564 15.2145 14.1191ZM7.33968 6C6.87944 6 6.50635 6.3731 6.50635 6.83333V11.4167C6.50635 11.6468 6.6929 11.8333 6.92301 11.8333H7.75635C7.98647 11.8333 8.17301 11.6468 8.17301 11.4167L8.17321 8.91625L12.1548 12.8985C12.3175 13.0612 12.5813 13.0612 12.744 12.8985L13.3333 12.3092C13.496 12.1465 13.496 11.8827 13.3333 11.72L9.28029 7.66667H11.923C12.1531 7.66667 12.3397 7.48012 12.3397 7.25V6.41667C12.3397 6.18655 12.1531 6 11.923 6H7.33968Z" fill="white" style="fill:white;fill-opacity:1;"/>
    </g>
    <defs>
        <filter id="filter0_b_2585_674810" x="-4.66667" y="-4.66667" width="37.3333" height="37.3333" filterUnits="userSpaceOnUse" color-interpolation-filters="sRGB">
            <feFlood flood-opacity="0" result="BackgroundImageFix"/>
            <feGaussianBlur in="BackgroundImageFix" stdDeviation="2.33333"/>
            <feComposite in2="SourceAlpha" operator="in" result="effect1_backgroundBlur_2585_674810"/>
            <feBlend mode="normal" in="SourceGraphic" in2="effect1_backgroundBlur_2585_674810" result="shape"/>
        </filter>
    </defs>
</svg>
