<svg width="80" height="80" viewBox="0 0 80 80" fill="none" xmlns="http://www.w3.org/2000/svg">
<g filter="url(#filter0_ii_6857_65938)">
<path d="M32.8079 12.7881C18.7357 12.7881 7.32496 24.2491 7.32496 38.3928C7.32496 44.0956 9.18283 49.3627 12.3246 53.6216L7.32508 63.9933C7.03508 64.7467 7.60116 65.4911 8.31854 65.5186C8.6228 65.5302 8.91519 65.407 9.21186 65.3385L23.204 62.1052C26.1672 63.3184 29.4068 63.9933 32.8079 63.9933C46.8801 63.9933 58.2909 52.5323 58.2909 38.3886C58.2866 24.2491 46.8801 12.7881 32.8079 12.7881Z" fill="url(#paint0_linear_6857_65938)"/>
</g>
<path d="M32.8081 13.0107C46.7565 13.0108 58.0646 24.371 58.0688 38.3887L58.0601 39.0439C57.7141 52.7627 46.5385 63.7714 32.8081 63.7715C29.4368 63.7715 26.2258 63.1019 23.2886 61.8994L23.2231 61.873L23.1538 61.8887L9.16162 65.1221C9.08168 65.1405 9.00328 65.1625 8.9292 65.1836C8.85366 65.2051 8.78369 65.2252 8.71338 65.2432C8.57285 65.2791 8.44716 65.3015 8.32666 65.2969L8.22119 65.2861C7.73315 65.2059 7.36641 64.7102 7.49658 64.1855L7.53271 64.0732L12.5249 53.7178L12.5825 53.5977L12.5034 53.4893C9.38898 49.2673 7.54736 44.0462 7.54736 38.3926C7.54751 24.3708 18.8597 13.0107 32.8081 13.0107Z" stroke="url(#paint1_linear_6857_65938)" stroke-width="0.444444"/>
<path d="M26.2676 28.8145C26.3724 28.8145 26.458 28.9001 26.458 29.0049V35.4199C26.458 35.437 26.4679 35.4518 26.4883 35.459C26.5092 35.4662 26.5301 35.4618 26.543 35.4473L26.709 35.2695C27.5616 34.4117 28.7839 33.9971 30.3467 33.9971L30.6221 34.0029C31.9897 34.0594 33.1607 34.5679 34.083 35.5488H34.084C35.0995 36.5966 35.6035 38.0116 35.6035 39.834V48.2695C35.6035 48.3743 35.5179 48.46 35.4131 48.46H31.4824C31.3776 48.46 31.292 48.3743 31.292 48.2695V40.4473C31.292 39.6412 31.0477 39.0276 30.6387 38.6162C30.2296 38.2048 29.648 37.9873 28.959 37.9873C28.1857 37.9873 27.5632 38.2251 27.1338 38.6865C26.7038 39.1486 26.458 39.8451 26.458 40.7803V48.2695C26.458 48.3743 26.3724 48.46 26.2676 48.46H22.3369C22.2321 48.46 22.1465 48.3743 22.1465 48.2695V29.0049C22.1465 28.9001 22.2321 28.8145 22.3369 28.8145H26.2676Z" fill="#3579FB" stroke="url(#paint2_linear_6857_65938)" stroke-width="0.151804"/>
<path d="M42.981 34.3845C43.0856 34.3847 43.1703 34.4693 43.1704 34.574V48.2703C43.1704 48.3749 43.0856 48.4596 42.981 48.4597H39.0493C38.9446 48.4597 38.8599 48.375 38.8599 48.2703V34.574C38.86 34.4693 38.9446 34.3845 39.0493 34.3845H42.981ZM39.3862 28.74C40.4121 27.8933 41.8758 27.9521 42.812 28.9207L42.9927 29.116C43.781 30.0562 43.7809 31.405 42.9937 32.365L42.813 32.5642C41.8146 33.5712 40.2111 33.5704 39.187 32.5652L39.186 32.5632C38.1898 31.5307 38.1888 29.9246 39.187 28.9216L39.3862 28.74Z" fill="#3579FB" stroke="url(#paint3_linear_6857_65938)" stroke-width="0.151804"/>
<path d="M65.8605 17.2916C65.8772 17.2515 65.8971 17.2147 65.9204 17.178C65.9204 17.178 65.9237 17.1713 65.9271 17.168C65.9503 17.1312 65.9803 17.0978 66.0102 17.0644C66.0435 17.031 66.0768 17.0009 66.1134 16.9742L64.8758 16.1458C64.8559 16.1625 64.8392 16.1758 64.8226 16.1925C64.806 16.2059 64.7927 16.2192 64.776 16.2359C64.7627 16.2493 64.7528 16.2627 64.7394 16.276C64.7261 16.2894 64.7162 16.3061 64.7062 16.3195C64.7029 16.3261 64.6995 16.3328 64.6929 16.3362C64.6929 16.3362 64.6896 16.3428 64.6862 16.3462C64.6829 16.3529 64.6762 16.3596 64.6729 16.3662C64.6629 16.3829 64.653 16.3996 64.6463 16.4163C64.6396 16.4297 64.633 16.4464 64.6263 16.4631C64.6263 16.4631 64.6263 16.4665 64.6263 16.4698C64.6263 16.4698 64.6263 16.4698 64.6263 16.4731C64.6197 16.4932 64.6097 16.5132 64.6031 16.5333C64.5964 16.5566 64.5898 16.5767 64.5864 16.6001L65.8239 17.4285C65.8339 17.3818 65.8472 17.3384 65.8672 17.2983C65.8672 17.2983 65.8672 17.2949 65.8672 17.2916H65.8605Z" fill="url(#paint4_linear_6857_65938)"/>
<path d="M67.707 14.0847L68.9446 14.9132L66.1169 16.971L64.8794 16.1425L67.707 14.0847Z" fill="#A8ACB5"/>
<path d="M64.5799 16.6001L65.8174 17.4286L65.0622 20.846L63.8247 20.0209L64.5799 16.6001Z" fill="#D3D7DE"/>
<path d="M63.8251 20.0212C63.8051 20.108 63.7752 20.1882 63.7319 20.2583C63.692 20.3285 63.6388 20.3886 63.5822 20.4387C63.5822 20.4387 63.5822 20.4387 63.5789 20.4421C63.529 20.4855 63.4725 20.5189 63.4126 20.5456C63.3959 20.5523 63.3826 20.559 63.366 20.5657C63.3061 20.5891 63.2429 20.6091 63.1797 20.6125C63.05 20.6225 62.9169 20.5957 62.8071 20.5223L64.0446 21.3507C64.1544 21.4242 64.2875 21.4543 64.4172 21.4409C64.4804 21.4342 64.5436 21.4175 64.6035 21.3942C64.6202 21.3875 64.6335 21.3808 64.6501 21.3741C64.6667 21.3674 64.6834 21.3608 64.7 21.3507C64.7233 21.3374 64.7499 21.3207 64.7732 21.304C64.7865 21.2939 64.8031 21.2806 64.8164 21.2706C64.8164 21.2706 64.8164 21.2706 64.8197 21.2672C64.8197 21.2672 64.8231 21.2639 64.8264 21.2605C64.8397 21.2472 64.8563 21.2338 64.8696 21.2171C64.883 21.2037 64.8963 21.1904 64.9062 21.1737C64.9162 21.1603 64.9295 21.147 64.9395 21.1302C64.9495 21.1169 64.9595 21.1002 64.9694 21.0835C64.9794 21.0668 64.9861 21.0534 64.9961 21.0367C65.006 21.02 65.0127 21 65.0227 20.9833C65.0327 20.9632 65.0393 20.9432 65.046 20.9198C65.0526 20.8964 65.0593 20.873 65.0659 20.8463L63.8284 20.0178L63.8251 20.0212Z" fill="url(#paint5_linear_6857_65938)"/>
<path d="M69.2572 14.2784C69.2572 14.245 69.2572 14.215 69.2506 14.1849C69.2473 14.1649 69.2406 14.1482 69.2373 14.1281C69.234 14.1114 69.2306 14.0947 69.224 14.078C69.2173 14.0646 69.2107 14.0479 69.204 14.0346C69.2007 14.0246 69.1974 14.0145 69.1907 14.0045C69.1874 13.9978 69.1841 13.9912 69.1807 13.9811C69.1708 13.9611 69.1574 13.941 69.1441 13.921C69.1342 13.9076 69.1275 13.8976 69.1175 13.8876C69.1175 13.8876 69.1175 13.8876 69.1142 13.8843C69.1142 13.8843 69.1142 13.8809 69.1109 13.8776C69.1009 13.8642 69.0876 13.8509 69.0743 13.8408C69.061 13.8308 69.051 13.8174 69.0377 13.8074C69.0277 13.7974 69.0144 13.7907 69.0044 13.784L67.7669 12.9556C67.8102 12.9856 67.8468 13.019 67.88 13.0558C67.88 13.0558 67.88 13.0591 67.8833 13.0625C67.9133 13.0959 67.9366 13.136 67.9565 13.176C67.9599 13.1861 67.9665 13.1961 67.9698 13.2061C67.9831 13.2362 67.9931 13.2662 67.9998 13.2996C68.0064 13.3197 68.0098 13.3364 68.0131 13.3564C68.0197 13.3865 68.0197 13.4199 68.0197 13.45C68.0197 13.47 68.0197 13.4867 68.0197 13.5068C68.0197 13.5535 68.0131 13.6003 67.9998 13.6471C67.9998 13.6538 67.9998 13.6571 67.9965 13.6638C67.9831 13.7139 67.9665 13.764 67.9399 13.8141C67.9133 13.8642 67.8833 13.911 67.8434 13.9578C67.8434 13.9578 67.8434 13.9611 67.8401 13.9644C67.8002 14.0079 67.7569 14.0513 67.707 14.088L68.9445 14.9165C68.9445 14.9165 68.9445 14.9165 68.9479 14.9165C68.9678 14.9031 68.9878 14.8864 69.0044 14.8697C69.0211 14.8564 69.0344 14.8397 69.051 14.8263C69.061 14.8163 69.0676 14.8063 69.0776 14.7962C69.0776 14.7962 69.0809 14.7929 69.0809 14.7896C69.0809 14.7896 69.0843 14.7829 69.0876 14.7829C69.1009 14.7695 69.1109 14.7528 69.1209 14.7395C69.1308 14.7261 69.1408 14.7094 69.1508 14.6927C69.1608 14.6793 69.1674 14.6626 69.1774 14.6459C69.1874 14.6292 69.194 14.6125 69.2007 14.5925C69.2073 14.5724 69.2173 14.5524 69.224 14.5323C69.2273 14.5223 69.2306 14.509 69.234 14.4989C69.234 14.4922 69.234 14.4889 69.2373 14.4822C69.2373 14.4755 69.2406 14.4689 69.2439 14.4588C69.2506 14.4254 69.2539 14.392 69.2572 14.3586C69.2572 14.3519 69.2572 14.3486 69.2572 14.3419C69.2572 14.3219 69.2572 14.3052 69.2572 14.2851V14.2784Z" fill="url(#paint6_linear_6857_65938)"/>
<path d="M58.6452 11.6896C58.6918 11.6863 58.7384 11.6896 58.7849 11.6896L67.5174 12.8588C68.0895 12.9357 68.2093 13.7174 67.707 14.0815L64.8793 16.1393C64.7296 16.2496 64.6199 16.4133 64.5799 16.597L63.8248 20.0144C63.7483 20.3652 63.4622 20.579 63.1794 20.6057C62.9698 20.6258 62.7603 20.5389 62.6305 20.3285L58.0797 12.7686C57.8135 12.3277 58.1595 11.7297 58.6452 11.6863V11.6896Z" fill="#F2F2F2"/>
<g filter="url(#filter1_f_6857_65938)">
<path d="M58.7118 37.6838C64.9964 37.6838 69.0296 43.7533 67.7174 51.2425C66.4051 58.7316 63.3754 63.3614 57.0908 63.3614C50.8029 63.3614 44.5247 58.7316 45.8338 51.2425C47.1428 43.7533 52.4239 37.6838 58.7118 37.6838Z" fill="#A8BCF5" fill-opacity="0.71"/>
<path d="M58.7119 37.8489C61.7958 37.8489 64.3248 39.3362 65.9258 41.7463C67.4284 44.0084 68.1166 47.0897 67.6611 50.5227L67.5547 51.2141C66.9006 54.9471 65.8217 57.9444 64.1406 60.0061C62.4663 62.0594 60.1857 63.1965 57.0908 63.1965C53.985 63.1965 50.8856 62.0526 48.7275 59.9915C46.6413 57.9987 45.429 55.1441 45.9414 51.6145L45.9961 51.2708C47.298 43.8226 52.5375 37.8489 58.7119 37.8489Z" stroke="url(#paint7_linear_6857_65938)" stroke-width="0.330058"/>
</g>
<path d="M72.3177 51.4938C72.344 51.292 72.3671 51.0902 72.3835 50.8918C72.3835 50.8752 72.3868 50.8587 72.3901 50.8422C72.4099 50.6272 72.4198 50.4155 72.4297 50.2071C72.4297 50.1541 72.433 50.0979 72.4362 50.045C72.4428 49.8597 72.4461 49.6745 72.4428 49.4893C72.4428 49.4628 72.4428 49.4364 72.4428 49.4099C72.4428 49.2048 72.433 48.9997 72.4198 48.7979C72.4198 48.7483 72.4132 48.6987 72.4099 48.6458C72.3967 48.4705 72.3835 48.2985 72.3671 48.1298C72.3638 48.0967 72.3605 48.0636 72.3572 48.0305C72.3341 47.8354 72.3078 47.6402 72.2781 47.4484C72.2716 47.4021 72.2617 47.3558 72.2551 47.3094C72.2287 47.1474 72.1958 46.9853 72.1628 46.8265C72.1563 46.8 72.153 46.7736 72.1464 46.7471C72.1464 46.7372 72.1398 46.7273 72.1398 46.7174C72.097 46.5222 72.0476 46.327 71.9949 46.1385C71.9817 46.0955 71.9718 46.0525 71.9586 46.0095C71.9059 45.8276 71.8532 45.6489 71.7939 45.4736C71.7906 45.4637 71.7873 45.4505 71.784 45.4405C71.784 45.4372 71.784 45.4339 71.7808 45.4306C71.7281 45.2785 71.6721 45.1296 71.6161 44.9841C71.5996 44.9411 71.5831 44.9014 71.5666 44.8617C71.5238 44.7558 71.481 44.65 71.4349 44.5474C71.425 44.5276 71.4184 44.5044 71.4085 44.4846C71.3921 44.4482 71.3756 44.4118 71.3591 44.3787C71.3262 44.3093 71.2932 44.2365 71.2603 44.167C71.2307 44.1075 71.201 44.0513 71.1747 43.995C71.1384 43.9256 71.1022 43.8594 71.066 43.79C71.0495 43.7602 71.0363 43.7337 71.0198 43.704C71.01 43.6874 71.0001 43.6742 70.9935 43.6576C70.8815 43.4592 70.7629 43.264 70.641 43.0722C70.6312 43.0589 70.6246 43.0457 70.6147 43.0325C70.6048 43.0159 70.5916 43.0027 70.5818 42.9862C70.4632 42.8075 70.338 42.6355 70.2095 42.4668C70.2029 42.4569 70.1964 42.4503 70.1898 42.4404C70.1766 42.4238 70.1634 42.4106 70.1502 42.3941C70.0185 42.2254 69.8834 42.0633 69.7418 41.9078C69.7418 41.9078 69.7418 41.9078 69.7418 41.9045C69.6067 41.7524 69.4651 41.6101 69.3202 41.4679C69.3037 41.4547 69.2905 41.4381 69.2773 41.4216C69.2675 41.4117 69.2576 41.405 69.251 41.3984C69.1126 41.2661 68.971 41.1404 68.8228 41.018C68.8096 41.0081 68.7964 40.9949 68.7833 40.985C68.7668 40.9717 68.7503 40.9585 68.7338 40.9486C68.5823 40.8262 68.4275 40.7071 68.2694 40.5946C68.2661 40.5946 68.2628 40.588 68.2595 40.5847C68.2496 40.5781 68.2398 40.5715 68.2266 40.5649C68.0685 40.4524 67.9038 40.3499 67.7391 40.2473C67.7226 40.2374 67.7094 40.2275 67.693 40.2175C67.6732 40.2043 67.6501 40.1944 67.6304 40.1812L65.3575 38.8547C65.3938 38.8746 65.43 38.8977 65.4662 38.9209C65.6309 39.0201 65.7956 39.126 65.9538 39.2384C65.9669 39.2484 65.9834 39.2583 65.9966 39.2682C66.1547 39.3807 66.3095 39.4998 66.461 39.6221C66.4907 39.6453 66.5203 39.6685 66.5467 39.6949C66.6949 39.8173 66.8365 39.943 66.9749 40.0753C66.9979 40.0985 67.021 40.1216 67.0473 40.1448C67.1923 40.2837 67.3339 40.4292 67.469 40.5814C67.469 40.5814 67.469 40.5814 67.4723 40.5847C67.6139 40.7402 67.749 40.9056 67.8774 41.071C67.8972 41.0941 67.9169 41.1206 67.9334 41.1437C68.0619 41.3124 68.1871 41.4844 68.3056 41.663C68.3254 41.6928 68.3452 41.7226 68.3649 41.7524C68.4901 41.9409 68.6054 42.1361 68.7174 42.3378C68.7404 42.3808 68.7668 42.4238 68.7898 42.4701C68.8261 42.5363 68.8623 42.6058 68.8952 42.6719C68.9249 42.7282 68.9545 42.7877 68.9842 42.8472C69.0171 42.9167 69.0501 42.9862 69.083 43.0556C69.1094 43.1119 69.1357 43.1681 69.1621 43.2276C69.2082 43.3302 69.251 43.436 69.2938 43.5419C69.3103 43.5849 69.3301 43.6246 69.3465 43.6676C69.4025 43.8131 69.4585 43.962 69.5112 44.1141C69.5178 44.1307 69.5211 44.1439 69.5277 44.1604C69.587 44.3357 69.643 44.5144 69.6924 44.693C69.7056 44.736 69.7154 44.779 69.7286 44.822C69.7813 45.0138 69.8274 45.2057 69.8736 45.4008C69.8801 45.4372 69.89 45.4736 69.8966 45.51C69.9296 45.6688 69.9592 45.8276 69.9888 45.9896C69.9954 46.0359 70.0053 46.0823 70.0119 46.1286C70.0415 46.3204 70.0712 46.5156 70.091 46.7107C70.0942 46.7438 70.0975 46.7769 70.1008 46.81C70.1173 46.9787 70.1338 47.1507 70.1437 47.326C70.147 47.3756 70.1502 47.4285 70.1535 47.4781C70.1634 47.6799 70.1733 47.8817 70.1766 48.0868C70.1766 48.1132 70.1766 48.1397 70.1766 48.1662C70.1766 48.3514 70.1766 48.5333 70.17 48.7219C70.17 48.7748 70.1667 48.831 70.1634 48.8839C70.1535 49.0956 70.1437 49.3073 70.1239 49.519C70.1239 49.5356 70.1206 49.5521 70.1173 49.5687C70.1008 49.7671 70.0778 49.9689 70.0514 50.1707C70.0448 50.2269 70.0382 50.2831 70.0284 50.3394C69.9987 50.5577 69.9658 50.776 69.9263 50.9976C69.8933 51.1696 69.8571 51.3416 69.8208 51.5136C69.7912 51.6493 69.7616 51.7882 69.7286 51.9238C69.7056 52.0263 69.6792 52.1289 69.6529 52.2314C69.6166 52.3704 69.5771 52.506 69.5376 52.6416C69.5079 52.7441 69.4783 52.8467 69.4486 52.9492C69.4256 53.0286 69.3992 53.1047 69.3729 53.1808C69.33 53.3098 69.2872 53.4421 69.2411 53.5678C69.2148 53.6472 69.1851 53.7266 69.1555 53.8059C69.1028 53.9482 69.0501 54.0871 68.9941 54.226C68.9743 54.2756 68.9545 54.3286 68.9348 54.3782C68.859 54.5667 68.78 54.752 68.6943 54.9372C68.579 55.1919 68.4572 55.4433 68.332 55.6947C68.2958 55.7675 68.2562 55.8369 68.22 55.9097C68.1311 56.0817 68.0355 56.2504 67.9433 56.4191C67.9005 56.4952 67.8577 56.5713 67.8148 56.644C67.716 56.816 67.6106 56.9847 67.5052 57.1501C67.4723 57.203 67.4393 57.2593 67.4031 57.3122C67.2647 57.5272 67.1198 57.7389 66.9749 57.944C66.9419 57.9903 66.909 58.0333 66.8761 58.0763C66.7575 58.2384 66.6389 58.3971 66.517 58.5526C66.4643 58.6188 66.4116 58.6882 66.3556 58.7544C66.2469 58.89 66.1349 59.0256 66.0229 59.1579C65.9669 59.2241 65.9076 59.2903 65.8516 59.3564C65.7232 59.5053 65.5881 59.6475 65.4531 59.7897C65.4102 59.836 65.3707 59.879 65.3279 59.9253C65.1467 60.1139 64.9623 60.2958 64.7712 60.4744C64.7284 60.5141 64.6856 60.5538 64.6428 60.5935C64.4814 60.7424 64.3167 60.8879 64.1487 61.0301C64.0729 61.0963 63.9971 61.1592 63.9214 61.222C63.872 61.2617 63.8226 61.3014 63.7732 61.3411C63.6546 61.437 63.536 61.5296 63.4141 61.6189C63.3779 61.6454 63.3416 61.6752 63.3054 61.7016C63.144 61.8207 62.9793 61.9398 62.8113 62.0523C62.7948 62.0622 62.7784 62.0754 62.7619 62.0853C62.6137 62.1846 62.4655 62.2805 62.3172 62.3764C62.1591 62.4757 62.001 62.5683 61.8396 62.6609C61.8067 62.6807 61.7737 62.7006 61.7408 62.7204C61.5464 62.8296 61.3521 62.9321 61.1545 63.0314C61.0952 63.0611 61.0392 63.0876 60.9799 63.1141C60.8382 63.1835 60.6999 63.2497 60.5583 63.3125C60.4825 63.3456 60.4067 63.3754 60.3277 63.4084C60.2025 63.4614 60.0773 63.5143 59.9522 63.5606C59.8698 63.5937 59.7842 63.6201 59.7018 63.6532C59.58 63.6962 59.4581 63.7392 59.3362 63.7789C59.2506 63.8054 59.1616 63.8318 59.076 63.8583C58.9541 63.8947 58.8322 63.9278 58.7136 63.9608C58.6247 63.984 58.5391 64.0072 58.4501 64.027C58.3283 64.0568 58.2031 64.0832 58.0812 64.1097C57.9956 64.1262 57.9066 64.1461 57.821 64.1626C57.6925 64.1858 57.5641 64.2056 57.4356 64.2222C57.3532 64.2354 57.2709 64.2486 57.1885 64.2585C57.0469 64.2751 56.9053 64.2883 56.7636 64.2982C56.6945 64.3049 56.6253 64.3115 56.5561 64.3148C56.3453 64.328 56.1312 64.3346 55.9204 64.3346C54.8433 64.3346 53.832 64.1659 52.9031 63.8517C52.3431 63.6631 51.8128 63.4184 51.3154 63.1306L53.5883 64.457C54.9157 65.231 56.4705 65.6644 58.1932 65.6644C58.404 65.6644 58.6181 65.6577 58.8289 65.6445C58.8981 65.6412 58.9673 65.6313 59.0365 65.628C59.1781 65.618 59.3197 65.6048 59.4614 65.5883C59.5437 65.5784 59.6261 65.5651 59.7084 65.5519C59.8369 65.532 59.9653 65.5155 60.0938 65.4924C60.1795 65.4758 60.2684 65.4593 60.354 65.4394C60.4759 65.413 60.6011 65.3865 60.723 65.3567C60.8119 65.3369 60.8975 65.3137 60.9865 65.2906C61.1083 65.2575 61.2302 65.2244 61.3488 65.188C61.4344 65.1616 61.5234 65.1351 61.609 65.1087C61.7309 65.069 61.8528 65.026 61.9747 64.983C62.057 64.9532 62.1426 64.9234 62.225 64.8903C62.3502 64.8407 62.4753 64.7911 62.6005 64.7382C62.6763 64.7051 62.7553 64.6753 62.8311 64.6423C62.9727 64.5794 63.1144 64.5133 63.2527 64.4438C63.3021 64.4206 63.3548 64.3975 63.4042 64.371C63.4108 64.3677 63.4174 64.3644 63.4273 64.3611C63.6249 64.2619 63.8193 64.1593 64.0136 64.0502C64.0466 64.0303 64.0795 64.0105 64.1124 63.9906C64.2705 63.898 64.4319 63.8054 64.5868 63.7061C64.5999 63.6995 64.6098 63.6929 64.623 63.683C64.7613 63.597 64.8964 63.5044 65.0314 63.4151C65.0479 63.4051 65.0644 63.3952 65.0809 63.382C65.2357 63.2761 65.3872 63.167 65.5387 63.0545C65.5486 63.0446 65.5618 63.038 65.5717 63.028C65.6079 63.0016 65.6441 62.9718 65.6771 62.9454C65.7989 62.8527 65.9175 62.7601 66.0361 62.6675C66.0855 62.6278 66.1349 62.5881 66.181 62.5484C66.2239 62.512 66.27 62.4756 66.3128 62.4393C66.3457 62.4128 66.3754 62.383 66.4083 62.3533C66.5763 62.211 66.7377 62.0655 66.9024 61.9166C66.9321 61.8869 66.965 61.8604 66.9979 61.8339C67.0111 61.824 67.021 61.8108 67.0342 61.8009C67.2219 61.6222 67.4097 61.4403 67.5908 61.2518C67.6007 61.2418 67.6106 61.2319 67.6205 61.222C67.6534 61.1856 67.6864 61.1492 67.7193 61.1161C67.8544 60.9739 67.9861 60.8284 68.1179 60.6795C68.1442 60.6498 68.1706 60.6233 68.1936 60.5968C68.2266 60.5604 68.2562 60.5207 68.2892 60.4811C68.4012 60.3487 68.5131 60.2164 68.6218 60.0808C68.6548 60.0378 68.691 59.9981 68.7273 59.9551C68.747 59.932 68.7635 59.9055 68.7833 59.879C68.9051 59.7236 69.0237 59.5615 69.1423 59.4027C69.1686 59.3663 69.1983 59.3299 69.2246 59.2936C69.2312 59.2869 69.2345 59.277 69.2411 59.2704C69.3893 59.062 69.531 58.8536 69.6693 58.6386C69.6759 58.6254 69.6858 58.6155 69.6924 58.6055C69.7187 58.5625 69.7451 58.5195 69.7714 58.4765C69.8768 58.3111 69.9823 58.1424 70.0811 57.9704C70.1008 57.9374 70.1206 57.9076 70.1404 57.8745C70.1634 57.8315 70.1865 57.7885 70.2128 57.7455C70.3084 57.5768 70.4006 57.4081 70.4895 57.2361C70.5159 57.1898 70.5422 57.1435 70.5653 57.0972C70.5785 57.074 70.5883 57.0476 70.6015 57.0244C70.7267 56.7763 70.8486 56.5249 70.9639 56.2669C70.9639 56.2603 70.9704 56.2537 70.9737 56.2471C71.0528 56.0685 71.1286 55.8865 71.2043 55.7046C71.2241 55.655 71.2438 55.6021 71.2669 55.5491C71.2998 55.4631 71.3361 55.3804 71.369 55.2944C71.3888 55.2415 71.4085 55.1853 71.4283 55.1324C71.4579 55.053 71.4876 54.9736 71.5139 54.8942C71.5601 54.7652 71.6029 54.6362 71.6424 54.5072C71.6688 54.4278 71.6918 54.3517 71.7182 54.2723C71.7281 54.2393 71.7412 54.2062 71.7511 54.1698C71.7709 54.1003 71.7873 54.0309 71.8071 53.9647C71.8466 53.8291 71.8862 53.6902 71.9224 53.5512C71.9487 53.4487 71.9718 53.3495 71.9981 53.2469C72.0311 53.1113 72.064 52.9724 72.0904 52.8368C72.1003 52.7871 72.1134 52.7408 72.1233 52.6912C72.1497 52.5688 72.1727 52.4464 72.1958 52.3207C72.2353 52.0991 72.2683 51.8808 72.2979 51.6625C72.3045 51.6063 72.3144 51.55 72.321 51.4938H72.3177Z" fill="url(#paint8_linear_6857_65938)"/>
<path d="M64.9137 63.4481L63.1021 61.4634L67.8783 56.5017L69.5253 58.6518L71.2832 63.5405C71.4543 64.0163 71.0489 64.4999 70.5505 64.4145L64.9137 63.4481Z" fill="url(#paint9_linear_6857_65938)"/>
<mask id="path-15-inside-1_6857_65938" fill="white">
<path d="M60.7476 37.6475C67.147 37.6483 71.2534 43.6255 69.9195 50.998C69.5688 52.9356 68.8742 54.7749 67.9292 56.4365L70.0503 62.2939C70.1814 62.656 69.8666 63.0225 69.4888 62.9482L63.2827 61.7285C61.059 63.3734 58.4995 64.3476 55.9175 64.3477C49.5142 64.3477 45.4098 58.371 46.7437 50.998C48.0776 43.6257 54.3448 37.6487 60.7476 37.6475Z"/>
</mask>
<path d="M60.7476 37.6475C67.147 37.6483 71.2534 43.6255 69.9195 50.998C69.5688 52.9356 68.8742 54.7749 67.9292 56.4365L70.0503 62.2939C70.1814 62.656 69.8666 63.0225 69.4888 62.9482L63.2827 61.7285C61.059 63.3734 58.4995 64.3476 55.9175 64.3477C49.5142 64.3477 45.4098 58.371 46.7437 50.998C48.0776 43.6257 54.3448 37.6487 60.7476 37.6475Z" fill="url(#paint10_linear_6857_65938)"/>
<path d="M60.7476 37.6475L60.7476 37.3235H60.7475L60.7476 37.6475ZM69.9195 50.998L70.2383 51.0557L70.2383 51.0557L69.9195 50.998ZM67.9292 56.4365L67.6476 56.2764L67.5737 56.4063L67.6246 56.5468L67.9292 56.4365ZM70.0503 62.2939L70.355 62.1836V62.1836L70.0503 62.2939ZM69.4888 62.9482L69.4263 63.2662L69.4263 63.2662L69.4888 62.9482ZM63.2827 61.7285L63.3452 61.4106L63.205 61.383L63.0901 61.468L63.2827 61.7285ZM55.9175 64.3477V64.6717H55.9175L55.9175 64.3477ZM46.7437 50.998L46.4249 50.9404L46.4249 50.9404L46.7437 50.998ZM60.7476 37.6475L60.7475 37.9715C63.8374 37.9719 66.3653 39.4112 67.9665 41.7418C69.5709 44.0772 70.2548 47.3251 69.6006 50.9404L69.9195 50.998L70.2383 51.0557C70.9181 47.2984 70.2157 43.8715 68.5006 41.3749C66.7821 38.8736 64.0571 37.3239 60.7476 37.3235L60.7476 37.6475ZM69.9195 50.998L69.6006 50.9404C69.2569 52.8397 68.5757 54.6445 67.6476 56.2764L67.9292 56.4365L68.2109 56.5967C69.1728 54.9053 69.8807 53.0316 70.2383 51.0557L69.9195 50.998ZM67.9292 56.4365L67.6246 56.5468L69.7457 62.4043L70.0503 62.2939L70.355 62.1836L68.2339 56.3262L67.9292 56.4365ZM70.0503 62.2939L69.7457 62.4043C69.7908 62.5288 69.6824 62.6561 69.5513 62.6303L69.4888 62.9482L69.4263 63.2662C70.0508 63.3889 70.5721 62.7832 70.355 62.1836L70.0503 62.2939ZM69.4888 62.9482L69.5513 62.6303L63.3452 61.4106L63.2827 61.7285L63.2203 62.0464L69.4263 63.2662L69.4888 62.9482ZM63.2827 61.7285L63.0901 61.468C60.911 63.0798 58.4176 64.0236 55.9175 64.0237L55.9175 64.3477L55.9175 64.6717C58.5815 64.6716 61.2069 63.667 63.4754 61.989L63.2827 61.7285ZM55.9175 64.3477V64.0237C52.8256 64.0237 50.2973 62.5846 48.6962 60.2542C47.0918 57.9191 46.4084 54.6712 47.0625 51.0557L46.7437 50.998L46.4249 50.9404C45.7451 54.6978 46.4469 58.1247 48.1621 60.6212C49.8806 63.1224 52.6061 64.6717 55.9175 64.6717V64.3477ZM46.7437 50.998L47.0625 51.0557C48.3754 43.7999 54.537 37.9726 60.7477 37.9715L60.7476 37.6475L60.7475 37.3235C54.1527 37.3247 47.7798 43.4516 46.4249 50.9404L46.7437 50.998Z" fill="url(#paint11_linear_6857_65938)" mask="url(#path-15-inside-1_6857_65938)"/>
<g style="mix-blend-mode:lighten" opacity="0.8" filter="url(#filter2_f_6857_65938)">
<path d="M68.043 41.6169C71.9957 47.2402 69.1959 53.3596 68.043 56.6674" stroke="url(#paint12_linear_6857_65938)" stroke-opacity="0.8" stroke-width="0.660116"/>
</g>
<g filter="url(#filter3_d_6857_65938)">
<path d="M62.9513 51.2942L62.9372 51.2092L58.1609 56.1709L52.8906 55.1786C53.22 55.785 54.8822 57.7702 57.6669 57.3286C60.3167 56.9085 61.9037 54.7094 62.7277 53.0412C62.9942 52.5017 63.0498 51.8878 62.9513 51.2942Z" fill="#E6E6E6"/>
<path d="M53.5493 54.5172C54.3728 56.0057 59.149 58.1557 61.9489 51.3748" stroke="white" stroke-width="1.98035" stroke-linecap="round"/>
</g>
<defs>
<filter id="filter0_ii_6857_65938" x="6.80311" y="12.4885" width="51.7874" height="53.6974" filterUnits="userSpaceOnUse" color-interpolation-filters="sRGB">
<feFlood flood-opacity="0" result="BackgroundImageFix"/>
<feBlend mode="normal" in="SourceGraphic" in2="BackgroundImageFix" result="shape"/>
<feColorMatrix in="SourceAlpha" type="matrix" values="0 0 0 0 0 0 0 0 0 0 0 0 0 0 0 0 0 0 127 0" result="hardAlpha"/>
<feOffset dx="-0.444444" dy="0.888889"/>
<feGaussianBlur stdDeviation="0.333333"/>
<feComposite in2="hardAlpha" operator="arithmetic" k2="-1" k3="1"/>
<feColorMatrix type="matrix" values="0 0 0 0 1 0 0 0 0 1 0 0 0 0 1 0 0 0 1 0"/>
<feBlend mode="normal" in2="shape" result="effect1_innerShadow_6857_65938"/>
<feColorMatrix in="SourceAlpha" type="matrix" values="0 0 0 0 0 0 0 0 0 0 0 0 0 0 0 0 0 0 127 0" result="hardAlpha"/>
<feOffset dx="0.666667" dy="-0.666667"/>
<feGaussianBlur stdDeviation="0.149771"/>
<feComposite in2="hardAlpha" operator="arithmetic" k2="-1" k3="1"/>
<feColorMatrix type="matrix" values="0 0 0 0 0.842386 0 0 0 0 0.841806 0 0 0 0 0.870833 0 0 0 1 0"/>
<feBlend mode="normal" in2="effect1_innerShadow_6857_65938" result="effect2_innerShadow_6857_65938"/>
</filter>
<filter id="filter1_f_6857_65938" x="43.4786" y="35.5033" width="26.6668" height="30.0386" filterUnits="userSpaceOnUse" color-interpolation-filters="sRGB">
<feFlood flood-opacity="0" result="BackgroundImageFix"/>
<feBlend mode="normal" in="SourceGraphic" in2="BackgroundImageFix" result="shape"/>
<feGaussianBlur stdDeviation="1.09028" result="effect1_foregroundBlur_6857_65938"/>
</filter>
<filter id="filter2_f_6857_65938" x="67.4014" y="41.0972" width="3.34322" height="16.009" filterUnits="userSpaceOnUse" color-interpolation-filters="sRGB">
<feFlood flood-opacity="0" result="BackgroundImageFix"/>
<feBlend mode="normal" in="SourceGraphic" in2="BackgroundImageFix" result="shape"/>
<feGaussianBlur stdDeviation="0.165029" result="effect1_foregroundBlur_6857_65938"/>
</filter>
<filter id="filter3_d_6857_65938" x="52.2502" y="50.0754" width="11.6731" height="8.24346" filterUnits="userSpaceOnUse" color-interpolation-filters="sRGB">
<feFlood flood-opacity="0" result="BackgroundImageFix"/>
<feColorMatrix in="SourceAlpha" type="matrix" values="0 0 0 0 0 0 0 0 0 0 0 0 0 0 0 0 0 0 127 0" result="hardAlpha"/>
<feOffset dx="0.308912" dy="0.308912"/>
<feGaussianBlur stdDeviation="0.308912"/>
<feComposite in2="hardAlpha" operator="out"/>
<feColorMatrix type="matrix" values="0 0 0 0 0.278431 0 0 0 0 0.4 0 0 0 0 0.737255 0 0 0 1 0"/>
<feBlend mode="normal" in2="BackgroundImageFix" result="effect1_dropShadow_6857_65938"/>
<feBlend mode="normal" in="SourceGraphic" in2="effect1_dropShadow_6857_65938" result="shape"/>
</filter>
<linearGradient id="paint0_linear_6857_65938" x1="48.4646" y1="17.711" x2="14.2656" y2="72.8198" gradientUnits="userSpaceOnUse">
<stop stop-color="#F7F7F9"/>
<stop offset="0.855332" stop-color="#FBFBFB"/>
</linearGradient>
<linearGradient id="paint1_linear_6857_65938" x1="57.4161" y1="15.2049" x2="-2.055" y2="43.4361" gradientUnits="userSpaceOnUse">
<stop stop-color="#DEDEDF"/>
<stop offset="0.703503" stop-color="#EAEAEB"/>
<stop offset="0.962692" stop-color="#CECED2"/>
</linearGradient>
<linearGradient id="paint2_linear_6857_65938" x1="27.3566" y1="32.5044" x2="35.3233" y2="42.0202" gradientUnits="userSpaceOnUse">
<stop offset="0.0101196" stop-color="#0A5EFF"/>
<stop offset="1" stop-color="#1C6AFF"/>
</linearGradient>
<linearGradient id="paint3_linear_6857_65938" x1="40.4412" y1="31.9601" x2="46.5501" y2="34.6082" gradientUnits="userSpaceOnUse">
<stop offset="0.0101196" stop-color="#0A5EFF"/>
<stop offset="1" stop-color="#1C6AFF"/>
</linearGradient>
<linearGradient id="paint4_linear_6857_65938" x1="65.4547" y1="16.5934" x2="65.2272" y2="16.9199" gradientUnits="userSpaceOnUse">
<stop stop-color="#A8ACB5"/>
<stop offset="1" stop-color="#D3D7DE"/>
</linearGradient>
<linearGradient id="paint5_linear_6857_65938" x1="63.5922" y1="21.3106" x2="64.101" y2="20.4439" gradientUnits="userSpaceOnUse">
<stop stop-color="#A8ACB5"/>
<stop offset="1" stop-color="#D3D7DE"/>
</linearGradient>
<linearGradient id="paint6_linear_6857_65938" x1="68.1894" y1="14.2283" x2="68.7281" y2="13.4153" gradientUnits="userSpaceOnUse">
<stop stop-color="#A8ACB5"/>
<stop offset="1" stop-color="#D3D7DE"/>
</linearGradient>
<linearGradient id="paint7_linear_6857_65938" x1="56.3386" y1="37.6838" x2="65.3715" y2="58.6094" gradientUnits="userSpaceOnUse">
<stop/>
<stop offset="0.0001" stop-color="white" stop-opacity="0"/>
<stop offset="1" stop-color="white" stop-opacity="0"/>
</linearGradient>
<linearGradient id="paint8_linear_6857_65938" x1="59.9473" y1="61.0097" x2="69.3152" y2="45.9326" gradientUnits="userSpaceOnUse">
<stop stop-color="#1D5DD7"/>
<stop offset="0.52" stop-color="#2162DD"/>
<stop offset="1" stop-color="#4483FF"/>
</linearGradient>
<linearGradient id="paint9_linear_6857_65938" x1="68.7449" y1="58.2348" x2="66.2616" y2="63.4898" gradientUnits="userSpaceOnUse">
<stop stop-color="#1E5ED9"/>
<stop offset="1" stop-color="#1352C7"/>
</linearGradient>
<linearGradient id="paint10_linear_6857_65938" x1="50.4189" y1="60.2981" x2="65.8927" y2="40.6273" gradientUnits="userSpaceOnUse">
<stop stop-color="#2F75F8"/>
<stop offset="0.724666" stop-color="#4482FA"/>
<stop offset="0.964523" stop-color="#568EFB"/>
</linearGradient>
<linearGradient id="paint11_linear_6857_65938" x1="59.5895" y1="53.0623" x2="66.4789" y2="56.4926" gradientUnits="userSpaceOnUse">
<stop stop-color="#4E8BFF" stop-opacity="0"/>
<stop offset="1" stop-color="#699DFF"/>
</linearGradient>
<linearGradient id="paint12_linear_6857_65938" x1="66.7254" y1="40.2938" x2="69.5481" y2="55.8363" gradientUnits="userSpaceOnUse">
<stop offset="0.0961988" stop-color="white" stop-opacity="0"/>
<stop offset="0.577776" stop-color="white"/>
<stop offset="1" stop-color="white" stop-opacity="0"/>
</linearGradient>
</defs>
</svg>
