<svg width="14" height="14" viewBox="0 0 14 14" fill="none" xmlns="http://www.w3.org/2000/svg">
<path d="M4 0.5H10C11.933 0.5 13.5 2.067 13.5 4V10C13.5 11.933 11.933 13.5 10 13.5H4C2.067 13.5 0.5 11.933 0.5 10V4C0.5 2.067 2.067 0.5 4 0.5Z" fill="#EEF9F1"/>
<path d="M4 0.5H10C11.933 0.5 13.5 2.067 13.5 4V10C13.5 11.933 11.933 13.5 10 13.5H4C2.067 13.5 0.5 11.933 0.5 10V4C0.5 2.067 2.067 0.5 4 0.5Z" stroke="#E1F6E6"/>
<path d="M9.7736 3.38709C10.0322 3.07932 10.4918 3.03921 10.8 3.29724L11.3586 3.76599C11.6665 4.02437 11.7066 4.48334 11.4484 4.79138H11.4474L7.04313 10.0375L6.56754 10.6097C6.31043 10.9191 5.85151 10.9616 5.54215 10.7045C5.53836 10.7013 5.53416 10.6979 5.53043 10.6947L4.50114 9.8031L4.43473 9.74744V9.74548L2.63297 8.18494C2.32917 7.92152 2.29643 7.46155 2.55973 7.15759C2.56276 7.1541 2.56543 7.15029 2.56852 7.14685L3.05778 6.60486C3.32269 6.31064 3.77431 6.28116 4.07438 6.53943L5.84586 8.06482L9.7736 3.38709Z" fill="#309256"/>
</svg>
