<svg width="20" height="24" viewBox="0 0 20 24" fill="none" xmlns="http://www.w3.org/2000/svg">
<path fill-rule="evenodd" clip-rule="evenodd" d="M18.3333 12.8248C18.3333 17.4067 14.6189 21.1211 10.037 21.1211C5.45509 21.1211 1.74072 17.4067 1.74072 12.8248C1.74072 8.24293 5.45509 4.52856 10.037 4.52856C14.6189 4.52856 18.3333 8.24293 18.3333 12.8248Z" fill="#141414" fill-opacity="0.08"/>
<path d="M9.99983 20.3285C14.6022 20.3285 18.3332 16.5975 18.3332 11.9952C18.3332 7.39281 14.6022 3.66187 9.99983 3.66187C5.39746 3.66187 1.6665 7.39281 1.6665 11.9952C1.6665 16.5975 5.39746 20.3285 9.99983 20.3285Z" fill="#387BFF"/>
<path fill-rule="evenodd" clip-rule="evenodd" d="M9.99983 18.9396C13.8351 18.9396 16.9443 15.8305 16.9443 11.9952C16.9443 8.15987 13.8351 5.05075 9.99983 5.05075C6.16452 5.05075 3.05539 8.15987 3.05539 11.9952C3.05539 15.8305 6.16452 18.9396 9.99983 18.9396ZM18.3332 11.9952C18.3332 16.5975 14.6022 20.3285 9.99983 20.3285C5.39746 20.3285 1.6665 16.5975 1.6665 11.9952C1.6665 7.39281 5.39746 3.66187 9.99983 3.66187C14.6022 3.66187 18.3332 7.39281 18.3332 11.9952Z" fill="#1664FF"/>
<path fill-rule="evenodd" clip-rule="evenodd" d="M10.9296 10.5367C11.0409 10.5367 11.1312 10.6269 11.1312 10.7383L11.1324 15.0561H12.065C12.1763 15.0561 12.2666 15.1464 12.2666 15.2577V16.3536C12.2666 16.4649 12.1763 16.5552 12.065 16.5552L8.69042 16.5554C8.57906 16.5554 8.48877 16.4651 8.48877 16.3537V15.2577C8.48877 15.1464 8.57905 15.0561 8.69042 15.0561H9.61594L9.61507 12.0357H9.29765C9.18629 12.0357 9.09601 11.9454 9.09601 11.834V10.7383C9.09601 10.627 9.18629 10.5367 9.29765 10.5367H10.9296ZM10.764 8.26465C10.8753 8.26465 10.9656 8.35493 10.9656 8.46629V9.57201C10.9656 9.68338 10.8753 9.77366 10.764 9.77366H9.61171C9.50034 9.77366 9.41006 9.68338 9.41006 9.57201V8.46629C9.41006 8.35493 9.50034 8.26465 9.61171 8.26465L10.764 8.26465Z" fill="#141414" fill-opacity="0.2"/>
<path fill-rule="evenodd" clip-rule="evenodd" d="M10.515 10.1219C10.6264 10.1219 10.7167 10.2122 10.7167 10.3235L10.7179 14.6413H11.6504C11.7618 14.6413 11.8521 14.7316 11.8521 14.8429V15.9388C11.8521 16.0501 11.7618 16.1404 11.6504 16.1404L8.27587 16.1406C8.1645 16.1406 8.07422 16.0503 8.07422 15.9389V14.8429C8.07422 14.7316 8.1645 14.6413 8.27586 14.6413H9.20139L9.20052 11.6209H8.8831C8.77174 11.6209 8.68146 11.5306 8.68146 11.4192V10.3236C8.68146 10.2122 8.77174 10.1219 8.8831 10.1219H10.515ZM10.3494 7.84985C10.4608 7.84985 10.5511 7.94013 10.5511 8.0515V9.15722C10.5511 9.26858 10.4608 9.35886 10.3494 9.35886H9.19716C9.08579 9.35886 8.99551 9.26858 8.99551 9.15722V8.0515C8.99551 7.94013 9.08579 7.84985 9.19716 7.84985L10.3494 7.84985Z" fill="white"/>
</svg>
