<svg width="14" height="14" viewBox="0 0 14 14" fill="none" xmlns="http://www.w3.org/2000/svg">
  <path fillRule="evenodd" clipRule="evenodd" d="M7.00016 0.583313C10.5439 0.583313 13.4168 3.45623 13.4168 6.99998C13.4168 10.5437 10.5439 13.4166 7.00016 13.4166C3.45641 13.4166 0.583496 10.5437 0.583496 6.99998C0.583496 3.45623 3.45641 0.583313 7.00016 0.583313ZM7.00016 1.74998C4.1007 1.74998 1.75016 4.10052 1.75016 6.99998C1.75016 9.89944 4.1007 12.25 7.00016 12.25C9.89962 12.25 12.2502 9.89944 12.2502 6.99998C12.2502 4.10052 9.89962 1.74998 7.00016 1.74998ZM7.00016 4.95831C7.26828 4.95831 7.53377 5.01112 7.78148 5.11373C8.02918 5.21633 8.25425 5.36672 8.44384 5.5563C8.63343 5.74589 8.78381 5.97096 8.88642 6.21867C8.98902 6.46637 9.04183 6.73186 9.04183 6.99998C9.04183 7.2681 8.98902 7.53359 8.88642 7.78129C8.78381 8.029 8.63343 8.25407 8.44384 8.44366C8.25425 8.63324 8.02918 8.78363 7.78148 8.88623C7.53377 8.98884 7.26828 9.04165 7.00016 9.04165C6.45868 9.04165 5.93937 8.82654 5.55649 8.44366C5.1736 8.06077 4.9585 7.54146 4.9585 6.99998C4.9585 6.4585 5.1736 5.93919 5.55649 5.5563C5.93937 5.17342 6.45868 4.95831 7.00016 4.95831Z" fill="#1A1815" />
</svg> 