<svg width="16" height="16" viewBox="0 0 16 16" fill="none" xmlns="http://www.w3.org/2000/svg">
<path d="M1.49991 6.60714V5.21429C1.49991 4.70145 1.91564 4.28571 2.42848 4.28571H5.21419C5.72703 4.28571 6.14277 3.86998 6.14277 3.35714V2.42857C6.14277 1.91574 6.5585 1.5 7.07134 1.5H8.92848C9.44132 1.5 9.85705 1.91574 9.85705 2.42857V3.35714C9.85705 3.86998 10.2728 4.28571 10.7856 4.28571H13.5713C14.0842 4.28571 14.4999 4.70145 14.4999 5.21429V6.60714C14.4999 7.11998 14.0842 7.53571 13.5713 7.53571H2.42848C1.91564 7.53571 1.49991 7.11998 1.49991 6.60714Z" stroke="#42464E" stroke-width="1.5" stroke-linecap="round"/>
<path d="M2.89267 8L1.74049 13.3769C1.61662 13.9549 2.05728 14.5 2.64845 14.5H5.91053M13.107 8L14.2591 13.3769C14.383 13.9549 13.9424 14.5 13.3512 14.5H10.3212M10.3212 14.5V11.25M10.3212 14.5H5.91053M5.91053 14.5V11.25" stroke="#42464E" stroke-width="1.5" stroke-linecap="round"/>
</svg>
