<svg width="16" height="16" viewBox="0 0 16 16" fill="none" xmlns="http://www.w3.org/2000/svg">
  <path d="M1.5 6.60714V5.21429C1.5 4.70145 1.91574 4.28571 2.42857 4.28571H5.21429C5.72712 4.28571 6.14286 3.86998 6.14286 3.35714V2.42857C6.14286 1.91574 6.55859 1.5 7.07143 1.5H8.92857C9.44141 1.5 9.85714 1.91574 9.85714 2.42857V3.35714C9.85714 3.86998 10.2729 4.28571 10.7857 4.28571H13.5714C14.0843 4.28571 14.5 4.70145 14.5 5.21429V6.60714C14.5 7.11998 14.0843 7.53571 13.5714 7.53571H2.42857C1.91574 7.53571 1.5 7.11998 1.5 6.60714Z" stroke="#C7CCD6" stroke-width="1.5" stroke-linecap="round"/>
  <path d="M2.89286 8L1.74067 13.3769C1.6168 13.9549 2.05746 14.5 2.64863 14.5H5.91071M13.1071 8L14.2593 13.3769C14.3832 13.9549 13.9425 14.5 13.3514 14.5H10.3214M10.3214 14.5V11.25M10.3214 14.5H5.91071M5.91071 14.5V11.25" stroke="#C7CCD6" stroke-width="1.5" stroke-linecap="round"/>
</svg>