<svg width="15" height="13" viewBox="0 0 15 13" fill="none" xmlns="http://www.w3.org/2000/svg">
  <path d="M13.015 0.0265529L1.31819 2.11815C0.504255 2.26375 0.233584 3.29509 0.871222 3.82165L3.94221 6.3574C4.10191 6.48924 4.2996 6.56653 4.50637 6.57798C4.71314 6.58943 4.91815 6.53443 5.09143 6.42103L9.67683 3.42037C9.9254 3.25772 10.1924 3.59871 9.97473 3.8011L5.95946 7.53093C5.80774 7.67182 5.70508 7.85757 5.6665 8.061C5.62793 8.26443 5.65547 8.47486 5.74508 8.66152L7.46739 12.2517C7.82493 12.997 8.89133 12.9824 9.22838 12.2276L14.0718 1.37739C14.3892 0.666042 13.7816 -0.110487 13.015 0.0265529Z" fill="#FAF9FF" />
</svg> 