<svg width="20" height="20" viewBox="0 0 20 20" fill="none" xmlns="http://www.w3.org/2000/svg">
<path fill-rule="evenodd" clip-rule="evenodd" d="M18.3238 10.8301C18.3238 15.4299 14.5949 19.1587 9.99514 19.1587C5.39536 19.1587 1.6665 15.4299 1.6665 10.8301C1.6665 6.2303 5.39536 2.50143 9.99514 2.50143C14.5949 2.50143 18.3238 6.2303 18.3238 10.8301Z" fill="#141414" fill-opacity="0.08"/>
<path d="M1.6665 10.0001C1.6665 5.39717 5.397 1.66666 9.99991 1.66666C14.6028 1.66666 18.3333 5.39717 18.3333 10.0001C18.3333 14.603 14.6028 18.3335 9.99991 18.3335C5.397 18.3335 1.6665 14.603 1.6665 10.0001Z" fill="#F0A50F"/>
<path fill-rule="evenodd" clip-rule="evenodd" d="M9.99991 3.05556C6.16407 3.05556 3.0554 6.16424 3.0554 10.0001C3.0554 13.8359 6.16407 16.9446 9.99991 16.9446C13.8357 16.9446 16.9444 13.8359 16.9444 10.0001C16.9444 6.16424 13.8357 3.05556 9.99991 3.05556ZM9.99991 1.66666C5.39701 1.66666 1.6665 5.39717 1.6665 10.0001C1.6665 14.603 5.39701 18.3335 9.99991 18.3335C14.6028 18.3335 18.3333 14.603 18.3333 10.0001C18.3333 5.39717 14.6028 1.66666 9.99991 1.66666Z" fill="#D08D06"/>
<path fill-rule="evenodd" clip-rule="evenodd" d="M10.7609 12.376C10.99 12.376 11.1757 12.5617 11.1757 12.7908V13.8693C11.1757 14.0984 10.99 14.2841 10.7609 14.2841H9.6824C9.4533 14.2841 9.26758 14.0984 9.26758 13.8693V12.7908C9.26758 12.5617 9.4533 12.376 9.6824 12.376H10.7609ZM10.7609 6.28357C10.99 6.28357 11.1757 6.46929 11.1757 6.69838V11.0624C11.1757 11.2915 10.99 11.4772 10.7609 11.4772H9.6824C9.4533 11.4772 9.26758 11.2915 9.26758 11.0624V6.69838C9.26758 6.46929 9.4533 6.28357 9.6824 6.28357H10.7609Z" fill="#141414" fill-opacity="0.2"/>
<path fill-rule="evenodd" clip-rule="evenodd" d="M10.3461 11.9612C10.5752 11.9612 10.7609 12.1469 10.7609 12.376V13.4545C10.7609 13.6836 10.5752 13.8693 10.3461 13.8693H9.2676C9.0385 13.8693 8.85278 13.6836 8.85278 13.4545V12.376C8.85278 12.1469 9.0385 11.9612 9.2676 11.9612H10.3461ZM10.3461 5.86874C10.5752 5.86874 10.7609 6.05446 10.7609 6.28356V10.6476C10.7609 10.8767 10.5752 11.0624 10.3461 11.0624H9.2676C9.0385 11.0624 8.85278 10.8767 8.85278 10.6476V6.28356C8.85278 6.05446 9.0385 5.86874 9.2676 5.86874H10.3461Z" fill="white"/>
</svg>
