<svg width="14" height="14" viewBox="0 0 14 14" fill="none" xmlns="http://www.w3.org/2000/svg">
<rect x="0.5" y="0.5" width="13" height="13" rx="3.5" fill="#F1F3F5"/>
<rect x="0.5" y="0.5" width="13" height="13" rx="3.5" stroke="#C7CCD6"/>
<path fill-rule="evenodd" clip-rule="evenodd" d="M7.96923 3.75319C8.30681 3.4156 8.85414 3.4156 9.19172 3.75319L10.2468 4.80831C10.5844 5.14591 10.5844 5.69323 10.2468 6.03082L5.96419 10.3135C5.84472 10.4329 5.6827 10.5 5.51377 10.5H4.15501C3.79326 10.5 3.5 10.2068 3.5 9.84503V8.48623C3.5 8.3173 3.56711 8.15528 3.68656 8.03585L7.96923 3.75319ZM8.61264 4.33227C8.59485 4.3145 8.56605 4.3145 8.54831 4.33227L4.31894 8.56161V9.68106H5.43839L9.66776 5.45173C9.6855 5.43395 9.6855 5.40515 9.66776 5.3874L8.61264 4.33227Z" fill="#737A87" stroke="#737A87" stroke-width="0.5"/>
</svg>
