<svg width="18" height="18" viewBox="0 0 18 18" fill="currentColor" xmlns="http://www.w3.org/2000/svg">
<path d="M10.5075 9.78484C10.4601 9.73737 10.4038 9.69969 10.3418 9.67401C10.2798 9.64834 10.2134 9.63512 10.1463 9.63512C10.0793 9.63512 10.0128 9.64834 9.95082 9.67401C9.88885 9.69969 9.83254 9.73737 9.78516 9.78484L8.61485 10.9558L7.29455 9.63552L8.46553 8.4652C8.5613 8.36938 8.6151 8.23946 8.6151 8.10403C8.6151 7.96854 8.5613 7.83862 8.46553 7.74285C8.36971 7.64703 8.23979 7.59322 8.10435 7.59322C7.96886 7.59322 7.83894 7.64703 7.74317 7.74285L6.57286 8.91378L5.40252 7.74285C5.30673 7.64703 5.17681 7.59322 5.04135 7.59322C4.90588 7.59322 4.77596 7.64703 4.68017 7.74285C4.58438 7.83862 4.53056 7.96854 4.53056 8.10403C4.53056 8.23946 4.58438 8.36938 4.68017 8.4652L5.08538 8.86977L3.59728 10.3572C3.40761 10.5468 3.25716 10.7719 3.15451 11.0197C3.05186 11.2675 2.99902 11.5331 2.99902 11.8013C2.99902 12.0695 3.05186 12.335 3.15451 12.5828C3.25716 12.8306 3.40761 13.0558 3.59728 13.2454L3.94059 13.5881L3.16729 14.3607C3.11986 14.4081 3.08224 14.4645 3.05656 14.5264C3.0309 14.5884 3.01768 14.6548 3.01768 14.7219C3.01768 14.7889 3.0309 14.8554 3.05656 14.9173C3.08224 14.9793 3.11986 15.0356 3.16729 15.0831C3.26308 15.1788 3.393 15.2327 3.52847 15.2327C3.59554 15.2327 3.66196 15.2194 3.72393 15.1938C3.78591 15.1681 3.84222 15.1305 3.88965 15.0831L4.6623 14.3098L5.00497 14.6531C5.19459 14.8427 5.41972 14.9932 5.6675 15.0958C5.91527 15.1985 6.18084 15.2513 6.44906 15.2513C6.71722 15.2513 6.98284 15.1985 7.23058 15.0958C7.47838 14.9932 7.70351 14.8427 7.89311 14.6531L9.38059 13.165L9.78516 13.5702C9.83259 13.6176 9.8889 13.6552 9.95087 13.6809C10.0128 13.7065 10.0793 13.7198 10.1463 13.7198C10.2134 13.7198 10.2798 13.7065 10.3418 13.6809C10.4038 13.6552 10.4601 13.6176 10.5075 13.5702C10.5549 13.5227 10.5926 13.4664 10.6182 13.4044C10.6439 13.3425 10.6571 13.276 10.6571 13.209C10.6571 13.1419 10.6439 13.0755 10.6182 13.0135C10.5926 12.9516 10.5549 12.8953 10.5075 12.8478L9.33654 11.6775L10.5075 10.5072C10.5549 10.4598 10.5926 10.4035 10.6183 10.3415C10.644 10.2795 10.6572 10.2131 10.6572 10.146C10.6572 10.0789 10.644 10.0125 10.6183 9.9505C10.5926 9.88853 10.5549 9.83222 10.5075 9.78484ZM7.17075 13.9326C6.97931 14.1239 6.71973 14.2314 6.44906 14.2314C6.17839 14.2314 5.91878 14.1239 5.72733 13.9326L4.31963 12.523C4.1283 12.3316 4.02082 12.072 4.02082 11.8013C4.02082 11.5306 4.1283 11.271 4.31963 11.0796L5.80709 9.59147L8.65885 12.4433L7.17075 13.9326ZM15.0834 3.16694C15.036 3.11948 14.9797 3.08183 14.9177 3.05614C14.8557 3.03045 14.7893 3.01722 14.7222 3.01722C14.6551 3.01722 14.5887 3.03045 14.5267 3.05614C14.4647 3.08183 14.4084 3.11948 14.361 3.16694L13.5884 3.94024L13.2457 3.59693C12.8623 3.21467 12.343 3 11.8016 3C11.2602 3 10.7409 3.21467 10.3575 3.59693L8.8701 5.08504L8.46553 4.67983C8.36971 4.58404 8.23979 4.53023 8.10435 4.53023C7.96886 4.53023 7.83894 4.58404 7.74317 4.67983C7.64735 4.77562 7.59355 4.90554 7.59355 5.04101C7.59355 5.17648 7.64735 5.30639 7.74317 5.40218L12.8482 10.5072C12.8956 10.5546 12.9519 10.5922 13.0139 10.6179C13.0758 10.6436 13.1422 10.6568 13.2093 10.6568C13.2764 10.6568 13.3428 10.6436 13.4048 10.6179C13.4668 10.5922 13.5231 10.5546 13.5705 10.5072C13.6179 10.4597 13.6556 10.4034 13.6812 10.3414C13.7069 10.2795 13.7201 10.2131 13.7201 10.146C13.7201 10.0789 13.7069 10.0125 13.6812 9.95055C13.6556 9.88858 13.6179 9.83227 13.5705 9.78484L13.1653 9.38027L14.6534 7.89278C14.843 7.70318 14.9935 7.47805 15.0961 7.23025C15.1988 6.98246 15.2516 6.7169 15.2516 6.44873C15.2516 6.18052 15.1988 5.91494 15.0961 5.66716C14.9935 5.41939 14.843 5.19426 14.6534 5.00463L14.3101 4.66196L15.0834 3.8893C15.1308 3.84189 15.1685 3.78559 15.1942 3.72361C15.2199 3.66164 15.2331 3.59521 15.2331 3.52812C15.2331 3.46104 15.2199 3.39461 15.1942 3.33263C15.1685 3.27066 15.1308 3.21436 15.0834 3.16694ZM13.931 7.16854L12.4436 8.65853L9.59179 5.80676L11.0799 4.31929C11.2714 4.12796 11.531 4.02048 11.8016 4.02048C12.0723 4.02048 12.3319 4.12796 12.5233 4.31929L13.931 5.72316C14.0263 5.81803 14.102 5.9308 14.1536 6.05498C14.2052 6.17914 14.2318 6.31233 14.2318 6.44679C14.2318 6.58126 14.2052 6.71445 14.1536 6.8386C14.102 6.96281 14.0263 7.07557 13.931 7.17042V7.16854Z" fill="currentColor"/>
</svg>
