<svg width="22" height="22" viewBox="0 0 22 22" fill="none" xmlns="http://www.w3.org/2000/svg">
<rect y="0.375" width="21.917" height="21.2506" rx="10.6253" fill="#F6F8FA"/>
<path d="M18.7458 6.12654C18.5771 6.04218 18.506 6.1998 18.4061 6.27971C18.3736 6.30781 18.3432 6.33823 18.3151 6.37073C18.2057 6.5054 18.0666 6.61295 17.9087 6.68496C17.7508 6.75697 17.5784 6.7915 17.405 6.78584C17.1391 6.76581 16.8722 6.80589 16.6239 6.90311C16.3756 7.00034 16.1525 7.15221 15.9709 7.34747C15.9379 7.11819 15.8438 6.90201 15.6985 6.72158C15.5532 6.54115 15.3621 6.4031 15.1451 6.32189C14.8988 6.23901 14.6799 6.09004 14.5125 5.89123C14.4173 5.73239 14.3483 5.55924 14.3083 5.37845C14.2727 5.27189 14.2372 5.15646 14.1151 5.14536C13.993 5.13426 13.9309 5.23637 13.8776 5.32739C13.6798 5.70312 13.5834 6.12394 13.5979 6.54831C13.5936 6.99604 13.7032 7.43752 13.9164 7.83126C14.1296 8.225 14.4393 8.5581 14.8166 8.79926C14.837 8.80794 14.8555 8.82061 14.871 8.83654C14.8865 8.85247 14.8986 8.87133 14.9066 8.89202C14.9147 8.9127 14.9186 8.93479 14.918 8.95698C14.9174 8.97918 14.9123 9.00102 14.9032 9.02125C14.8477 9.20771 14.7833 9.38752 14.7278 9.57399C14.6901 9.69164 14.6368 9.71828 14.5058 9.66723C14.0765 9.48194 13.6863 9.21677 13.3559 8.88583C12.7876 8.3353 12.2726 7.72929 11.6333 7.25423C11.4824 7.14324 11.3314 7.03225 11.176 6.94123C10.5234 6.30635 11.2626 5.7869 11.4335 5.72474C11.6045 5.66259 11.4957 5.43838 10.9163 5.4406C10.3369 5.44282 9.80637 5.63595 9.14041 5.88457C9.04043 5.92393 8.93717 5.95438 8.83184 5.97559C8.20173 5.85725 7.55736 5.83479 6.92054 5.90899C6.32714 5.96577 5.75311 6.15057 5.23803 6.45064C4.72296 6.75072 4.27909 7.15894 3.93704 7.64715C3.0491 8.86141 2.84709 10.2377 3.10237 11.6762C3.35999 13.1544 4.14959 14.4872 5.32223 15.4233C6.50468 16.4366 8.0373 16.9459 9.59104 16.8418C10.5744 16.7863 11.6688 16.6554 12.9031 15.6098C13.2755 15.7745 13.6769 15.8636 14.084 15.8717C14.4628 15.8998 14.8436 15.8714 15.214 15.7874C15.7023 15.6853 15.669 15.2324 15.4914 15.1503C14.0641 14.4843 14.3815 14.7552 14.0929 14.5354C14.8188 13.6763 15.9132 12.7839 16.3416 9.89143C16.3606 9.70544 16.3606 9.51801 16.3416 9.33203C16.3416 9.21881 16.3638 9.17441 16.4926 9.16331C16.8517 9.12568 17.2 9.01863 17.5182 8.8481C18.4439 8.34197 18.8168 7.51618 18.9056 6.51502C18.9248 6.44169 18.9196 6.36409 18.8908 6.29399C18.8619 6.22389 18.811 6.1651 18.7458 6.12654ZM10.6788 15.0881C9.29357 14.0004 8.62096 13.6408 8.34347 13.6563C8.06599 13.6719 8.12149 13.9693 8.18808 14.1625C8.24583 14.3371 8.32885 14.5024 8.43449 14.653C8.46133 14.6821 8.481 14.717 8.49192 14.755C8.50284 14.793 8.5047 14.833 8.49736 14.8718C8.49003 14.9107 8.47369 14.9473 8.44967 14.9787C8.42564 15.0101 8.39459 15.0354 8.35902 15.0526C7.91504 15.3279 7.13809 14.9594 7.10257 14.9416C6.18644 14.4233 5.42894 13.6651 4.91157 12.7484C4.39697 11.8383 4.10274 10.8203 4.05247 9.776C4.03915 9.52071 4.11463 9.4297 4.3677 9.38308C4.70236 9.32064 5.04489 9.31239 5.38218 9.35866C6.75977 9.55753 8.03363 10.2042 9.00721 11.1989C9.55713 11.7869 10.0465 12.4287 10.4679 13.1147C10.9243 13.8321 11.4778 14.4828 12.1128 15.0482C12.2993 15.2095 12.4966 15.3578 12.7033 15.4922C12.1727 15.5565 11.2848 15.5676 10.6788 15.0881ZM11.3447 10.8193C11.3447 10.7652 11.3662 10.7132 11.4045 10.6749C11.4428 10.6366 11.4948 10.6151 11.549 10.6151C11.5733 10.6148 11.5974 10.6193 11.62 10.6284C11.6489 10.638 11.6749 10.6548 11.6955 10.6773C11.732 10.7154 11.752 10.7665 11.751 10.8193C11.7457 10.8695 11.722 10.916 11.6845 10.9498C11.647 10.9836 11.5983 11.0023 11.5478 11.0023C11.4974 11.0023 11.4487 10.9836 11.4112 10.9498C11.3737 10.916 11.35 10.8695 11.3447 10.8193ZM13.407 11.876C13.2832 11.9342 13.1503 11.9703 13.0141 11.9825C12.8239 11.9884 12.6374 11.9288 12.4857 11.8138C12.3941 11.7592 12.3143 11.6866 12.2514 11.6004C12.1885 11.5142 12.1436 11.4161 12.1195 11.3121C12.0971 11.1829 12.0971 11.0507 12.1195 10.9215C12.1455 10.8347 12.1443 10.742 12.1162 10.6559C12.088 10.5698 12.0341 10.4944 11.9619 10.4397C11.8298 10.3431 11.6677 10.2967 11.5046 10.3088C11.4448 10.3052 11.3868 10.2869 11.3359 10.2555C11.3143 10.2459 11.2951 10.2319 11.2793 10.2144C11.2636 10.1968 11.2518 10.1762 11.2447 10.1537C11.2375 10.1313 11.2352 10.1076 11.238 10.0841C11.2407 10.0607 11.2483 10.0382 11.2604 10.018C11.2968 9.96712 11.3393 9.9209 11.3869 9.88033C11.5054 9.8223 11.6356 9.79214 11.7676 9.79214C11.8996 9.79214 12.0298 9.8223 12.1483 9.88033C12.4015 10.0093 12.6276 10.1856 12.8143 10.3998C12.9804 10.5879 13.129 10.7907 13.2583 11.0058C13.3809 11.1792 13.4802 11.3681 13.5535 11.5674C13.6134 11.7051 13.5579 11.8227 13.4048 11.876H13.407Z" fill="#5252FF"/>
</svg>
