<svg width="21" height="20" viewBox="0 0 21 20" fill="none" xmlns="http://www.w3.org/2000/svg">
<circle cx="10.5" cy="10" r="10" fill="#8B72FF" style="fill:#8B72FF;fill:color(display-p3 0.5445 0.4453 0.9988);fill-opacity:1;"/>
<path opacity="0.2" fill-rule="evenodd" clip-rule="evenodd" d="M13.561 7.74219C15.549 7.74219 17.1606 9.35381 17.1606 11.3418C17.1606 12.4629 16.6481 13.4643 15.8446 14.1245L16.4464 14.498C16.6515 14.6254 16.5613 14.9419 16.3198 14.9419H13.5618V14.9415C13.5615 14.9415 13.5613 14.9415 13.561 14.9415C12.6883 14.9415 11.8882 14.631 11.2651 14.1144C11.223 14.0795 12.1371 13.3401 13.0143 12.6304C13.7478 12.037 14.4556 11.4645 14.5574 11.3418C14.8886 10.943 14.3566 10.0388 13.8846 9.23645C13.4154 8.439 13.0055 7.74219 13.561 7.74219Z" fill="white" style="fill:white;fill-opacity:1;"/>
<path fill-rule="evenodd" clip-rule="evenodd" d="M16 9.44141C16 12.479 13.5376 14.9414 10.5 14.9414C10.3845 14.9414 10.2698 14.9378 10.1561 14.9308C10.1533 14.9307 10.1515 14.9337 10.153 14.9361C10.1544 14.9384 10.1528 14.9413 10.1501 14.9413H5.69072C5.42546 14.9413 5.28619 14.6265 5.46463 14.4302L6.34271 13.4643C6.45087 13.3454 6.44759 13.1635 6.34228 13.042C5.50603 12.0772 5 10.8184 5 9.44141C5 6.40384 7.46243 3.94141 10.5 3.94141C13.5376 3.94141 16 6.40384 16 9.44141ZM13.2407 11.6392C13.4794 11.4005 13.4794 11.0136 13.2407 10.7749C13.0021 10.5363 12.6151 10.5363 12.3765 10.7749C11.3025 11.8489 9.56134 11.8489 8.4874 10.7749C8.24875 10.5363 7.86181 10.5363 7.62316 10.7749C7.38451 11.0136 7.38451 11.4005 7.62316 11.6392C9.17441 13.1904 11.6895 13.1904 13.2407 11.6392Z" fill="url(#paint0_linear_1381_35451)" style=""/>
<defs>
<linearGradient id="paint0_linear_1381_35451" x1="13.25" y1="4.85807" x2="8.66667" y2="11.7331" gradientUnits="userSpaceOnUse">
<stop stop-color="#E0D9FF" style="stop-color:#E0D9FF;stop-color:color(display-p3 0.8787 0.8515 1.0000);stop-opacity:1;"/>
<stop offset="1" stop-color="white" style="stop-color:white;stop-opacity:1;"/>
</linearGradient>
</defs>
</svg>
