<svg width="14" height="14" viewBox="0 0 14 14" fill="none" xmlns="http://www.w3.org/2000/svg">
<g id="Group 2036084306">
<mask id="mask0_1178_179167" style="mask-type:alpha" maskUnits="userSpaceOnUse" x="0" y="0" width="14" height="14">
<rect id="Rectangle 279335628" width="14" height="14" fill="#D9D9D9"/>
</mask>
<g mask="url(#mask0_1178_179167)">
<path id="Star 8" d="M7.60287 0.599792C7.69985 0.393864 7.99254 0.393864 8.04859 0.599792L9.1745 4.73639C9.21598 4.8888 9.32476 5.00899 9.47229 5.06542L13.4743 6.59626C13.6736 6.67247 13.6446 6.96352 13.4303 7.03972L9.12392 8.57056C8.96517 8.627 8.83251 8.74718 8.76073 8.8996L6.81257 13.0362C6.71559 13.2421 6.42289 13.2421 6.36684 13.0362L5.24094 8.8996C5.19945 8.74718 5.09068 8.627 4.94315 8.57056L0.941103 7.03972C0.741883 6.96352 0.770811 6.67247 0.985178 6.59626L5.29152 5.06542C5.45027 5.00899 5.58293 4.8888 5.65471 4.73639L7.60287 0.599792Z" fill="#97BCFF"/>
</g>
</g>
</svg>
