<svg width="14" height="14" viewBox="0 0 14 14" fill="currentColor" xmlns="http://www.w3.org/2000/svg">
<g clip-path="url(#clip0_1186_144584)">
<path d="M12.1528 1.8479C13.1989 2.89401 12.9956 4.9125 11.8218 7.0013C12.9956 9.09096 13.198 11.1095 12.1528 12.1547C11.1066 13.2008 9.08815 12.9985 6.99935 11.8254C4.90969 12.9976 2.89034 13.2008 1.84509 12.1556C0.79897 11.1094 1.00219 9.09096 2.17521 7.00216C1.00219 4.91164 0.79897 2.8923 1.84509 1.84704C2.8912 0.800924 4.90969 1.00414 6.99935 2.17717C9.08815 1.00414 11.1066 0.800924 12.1528 1.84704V1.8479ZM2.8106 8.00454L2.78316 8.05942C2.07575 9.54285 1.98485 10.8393 2.57222 11.4276C3.16731 12.0227 4.48953 11.9215 5.99611 11.1909C5.38058 10.7534 4.80316 10.2646 4.27002 9.72978C3.73561 9.19702 3.24739 8.61988 2.8106 8.00454ZM11.1881 8.00454L11.0483 8.19748C10.6642 8.71882 10.2217 9.23502 9.72782 9.72978C9.19483 10.2645 8.61739 10.753 8.00173 11.1901C9.50745 11.9215 10.8297 12.0227 11.4248 11.4276C12.0198 10.8325 11.9187 9.51027 11.1881 8.00454ZM6.99849 3.37763L6.91789 3.42993C6.22565 3.88656 5.58204 4.41294 4.99715 5.00082C4.38661 5.60822 3.84274 6.27915 3.37482 7.00216C3.84335 7.7247 4.38749 8.39531 4.99801 9.00264C5.60537 9.61349 6.27629 10.1576 6.99935 10.6258C7.72189 10.1573 8.3925 9.61317 8.99983 9.00264C9.61077 8.39475 10.1549 7.72324 10.623 6.99959C10.1543 6.27794 9.61021 5.6082 8.99983 5.00168C8.39247 4.39084 7.72154 3.84668 6.99849 3.37848V3.37763ZM6.89902 5.85658C7.06793 5.85658 7.23519 5.88985 7.39123 5.95448C7.54729 6.01912 7.68907 6.11386 7.80851 6.2333C7.92795 6.35273 8.02269 6.49452 8.08733 6.65057C8.15196 6.80662 8.18523 6.97388 8.18523 7.14279C8.18523 7.31169 8.15196 7.47895 8.08733 7.635C8.02269 7.79105 7.92795 7.93284 7.80851 8.05227C7.68907 8.17171 7.54729 8.26645 7.39123 8.33109C7.23519 8.39572 7.06793 8.42899 6.89902 8.42899C6.5579 8.42899 6.23075 8.29348 5.98954 8.05227C5.74833 7.81106 5.61282 7.48391 5.61282 7.14279C5.61282 6.80166 5.74833 6.47451 5.98954 6.2333C6.23075 5.99209 6.5579 5.85658 6.89902 5.85658ZM5.99611 2.81255C4.48953 2.08113 3.16731 1.9808 2.57222 2.57503C1.97714 3.17012 2.07832 4.49234 2.80974 5.99892C3.24698 5.38343 3.73548 4.80601 4.27002 4.27283C4.74716 3.79476 5.25966 3.35334 5.80318 2.95232L5.99611 2.81255ZM8.05661 2.78597L8.00173 2.81341C8.61706 3.2502 9.19421 3.73842 9.72697 4.27283C10.2617 4.80555 10.7502 5.3827 11.1872 5.99806C11.9187 4.49234 12.0198 3.17012 11.4248 2.57503C10.8365 1.98766 9.54004 2.07856 8.05661 2.78597Z" fill="currentColor"/>
</g>
<defs>
<clipPath id="clip0_1186_144584">
<rect width="11.6667" height="11.6667" fill="white" transform="translate(1.16602 1.16797)"/>
</clipPath>
</defs>
</svg>
