<svg width="16" height="16" viewBox="0 0 16 16" fill="none" xmlns="http://www.w3.org/2000/svg">
<path fill-rule="evenodd" clip-rule="evenodd" d="M2.81366 13.716C2.96839 13.8708 3.21925 13.8708 3.37398 13.716L7.99993 9.09008L12.6274 13.7176C12.7821 13.8723 13.033 13.8723 13.1877 13.7176L13.718 13.1873C13.8727 13.0326 13.8727 12.7817 13.718 12.627L9.09049 7.99951L13.7193 3.37068C13.8741 3.21595 13.8741 2.96508 13.7193 2.81035L13.1891 2.28011C13.0344 2.12538 12.7835 2.12538 12.6288 2.28011L7.99993 6.90894L3.37263 2.28165C3.2179 2.12692 2.96704 2.12692 2.81231 2.28165L2.28206 2.81189C2.12733 2.96662 2.12733 3.21748 2.28206 3.37221L6.90936 7.99951L2.28341 12.6255C2.12868 12.7802 2.12869 13.0311 2.28341 13.1858L2.81366 13.716Z" fill="#737A87"/>
</svg>
