<svg width="12" height="14" viewBox="0 0 12 14" fill="none" xmlns="http://www.w3.org/2000/svg">
<path id="Vector" d="M4.66645 9.33303C4.66645 10.389 3.96445 11.283 3.00045 11.569V13.239C3.00045 13.387 2.98445 13.441 2.95545 13.495C2.92718 13.5488 2.88324 13.5928 2.82945 13.621C2.77545 13.651 2.72145 13.666 2.57245 13.666H2.09445C1.94545 13.666 1.89145 13.65 1.83745 13.621C1.78366 13.5928 1.73972 13.5488 1.71145 13.495C1.68145 13.441 1.66645 13.387 1.66645 13.238V11.569C1.18494 11.4253 0.762663 11.13 0.462421 10.7271C0.162178 10.3241 0 9.83504 0 9.33253C0 8.83002 0.162178 8.34094 0.462421 7.93799C0.762663 7.53504 1.18494 7.23975 1.66645 7.09603V0.759031C1.66645 0.610031 1.68245 0.556031 1.71145 0.502031C1.73972 0.448239 1.78366 0.404301 1.83745 0.376031C1.89145 0.347031 1.94545 0.332031 2.09445 0.332031H2.57245C2.72145 0.332031 2.77545 0.347031 2.82945 0.376031C2.88412 0.406031 2.92612 0.448031 2.95545 0.502031C2.98545 0.556031 3.00045 0.610031 3.00045 0.759031V7.09503C3.48246 7.23834 3.90518 7.53374 4.20545 7.93711C4.50573 8.34048 4.66745 8.83017 4.66645 9.33303ZM3.33345 9.33303C3.33345 9.06781 3.22809 8.81346 3.04056 8.62592C2.85302 8.43839 2.59867 8.33303 2.33345 8.33303C2.06823 8.33303 1.81388 8.43839 1.62634 8.62592C1.43881 8.81346 1.33345 9.06781 1.33345 9.33303C1.33345 9.59825 1.43881 9.8526 1.62634 10.0401C1.81388 10.2277 2.06823 10.333 2.33345 10.333C2.59867 10.333 2.85302 10.2277 3.04056 10.0401C3.22809 9.8526 3.33345 9.59825 3.33345 9.33303ZM11.3334 4.66603C11.3334 5.72303 10.6304 6.61603 9.66645 6.90303V13.239C9.66645 13.387 9.65145 13.441 9.62245 13.495C9.59418 13.5488 9.55024 13.5928 9.49645 13.621C9.44145 13.651 9.38845 13.666 9.23945 13.666H8.76045C8.61245 13.666 8.55845 13.65 8.50445 13.621C8.45029 13.5929 8.40598 13.549 8.37745 13.495C8.34845 13.441 8.33345 13.387 8.33345 13.238V6.90203C7.85193 6.75831 7.42966 6.46302 7.12942 6.06007C6.82918 5.65712 6.667 5.16804 6.667 4.66553C6.667 4.16303 6.82918 3.67394 7.12942 3.27099C7.42966 2.86804 7.85193 2.57275 8.33345 2.42903V0.759031C8.33345 0.611031 8.34845 0.557031 8.37745 0.503031C8.40598 0.449093 8.45029 0.405138 8.50445 0.377031C8.55845 0.348031 8.61245 0.333031 8.76045 0.333031H9.23945C9.38845 0.333031 9.44145 0.348031 9.49645 0.377031C9.55112 0.407031 9.59312 0.449031 9.62245 0.503031C9.65145 0.557031 9.66645 0.611031 9.66645 0.760031V2.43003C10.1483 2.57306 10.571 2.86808 10.8715 3.27106C11.1719 3.67405 11.3339 4.16338 11.3334 4.66603ZM10.0004 4.66603C10.0004 4.40081 9.89509 4.14646 9.70756 3.95892C9.52002 3.77139 9.26567 3.66603 9.00045 3.66603C8.73523 3.66603 8.48088 3.77139 8.29334 3.95892C8.10581 4.14646 8.00045 4.40081 8.00045 4.66603C8.00045 4.93125 8.10581 5.1856 8.29334 5.37314C8.48088 5.56067 8.73523 5.66603 9.00045 5.66603C9.26567 5.66603 9.52002 5.56067 9.70756 5.37314C9.89509 5.1856 10.0004 4.93125 10.0004 4.66603Z" fill="#42464E"/>
</svg>
