<svg width="20" height="20" viewBox="0 0 20 20" fill="none" xmlns="http://www.w3.org/2000/svg">
<g id="Frame 2119903309">
<path id="Union" fill-rule="evenodd" clip-rule="evenodd" d="M11.1802 2.02836C11.8999 2.44385 12.1464 3.36405 11.731 4.08368C11.5518 4.3939 11.279 4.61621 10.9688 4.73548C10.9063 4.75947 10.8711 4.82667 10.8711 4.89355V4.89355L10.8711 7.93355C10.8711 8.24454 11.09 8.5055 11.3593 8.66099C11.6404 8.82327 11.9907 8.88781 12.2718 8.72553L13.926 7.77049C14.1391 7.64746 14.2261 7.39047 14.2155 7.14463C14.2036 6.86861 14.2676 6.58606 14.4159 6.32908C14.8314 5.60945 15.7516 5.36288 16.4712 5.77836C17.1909 6.19385 17.4375 7.11405 17.022 7.83368C16.6065 8.55332 15.6863 8.79989 14.9666 8.38441V8.38441C14.8563 8.32069 14.7197 8.30842 14.6094 8.37213L12.8052 9.41379C12.4711 9.60665 12.3355 10.01 12.3317 10.3957C12.3282 10.7431 12.237 11.0968 12.0492 11.422C11.8845 11.7074 11.6636 11.9393 11.41 12.1112C11.1142 12.3116 10.8711 12.6145 10.8711 12.9718L10.8711 14.9364C10.8711 15.0461 10.9377 15.1434 11.0328 15.1983V15.1983C11.7524 15.6138 11.999 16.534 11.5835 17.2536C11.168 17.9732 10.2478 18.2198 9.52817 17.8043C8.80853 17.3888 8.56197 16.4686 8.97745 15.749C9.1294 15.4858 9.34886 15.2859 9.60133 15.1585C9.82424 15.046 10.0084 14.8403 10.0084 14.5906L10.0084 13.1553C10.0084 12.7477 9.69413 12.4179 9.33815 12.2193L9.31313 12.2051L9.30139 12.1982C8.95317 11.994 8.51498 11.8907 8.16534 12.0926L6.60907 12.9911C6.42895 13.0951 6.33694 13.2982 6.31521 13.5051C6.29385 13.7084 6.23044 13.9108 6.12158 14.0993C5.7061 14.8189 4.7859 15.0655 4.06626 14.65C3.34662 14.2345 3.10005 13.3143 3.51554 12.5947C3.93102 11.8751 4.85122 11.6285 5.57086 12.044C5.59426 12.0575 5.61717 12.0716 5.63957 12.0861C5.84862 12.222 6.11859 12.2781 6.3345 12.1534L7.90151 11.2487C8.19485 11.0794 8.32841 10.7437 8.34244 10.4053C8.35794 10.0312 8.23482 9.62698 7.91064 9.43982L6.02137 8.34904C5.84065 8.24471 5.61787 8.26698 5.42746 8.35234C5.00168 8.54323 4.49342 8.53398 4.05845 8.28284C3.33881 7.86736 3.09224 6.94716 3.50772 6.22752C3.92321 5.50788 4.84341 5.26132 5.56305 5.6768C6.06859 5.96867 6.34067 6.50962 6.31378 7.05514C6.30153 7.3035 6.38786 7.56445 6.60321 7.68878L8.40463 8.72883C8.71441 8.90768 9.10581 8.83253 9.41855 8.65892C9.74303 8.4788 10.0084 8.17471 10.0084 7.8036L10.0084 4.89355V4.89355C10.0084 4.83044 9.97406 4.76762 9.91476 4.74603C9.8333 4.71638 9.7533 4.67925 9.67563 4.63441C8.95599 4.21892 8.70943 3.29872 9.12491 2.57908C9.5404 1.85945 10.4606 1.61288 11.1802 2.02836ZM16.7867 11.9834C17.5063 12.3989 17.7529 13.3191 17.3374 14.0388C16.9219 14.7584 16.0017 15.005 15.2821 14.5895C14.5624 14.174 14.3159 13.2538 14.7314 12.5342C15.1468 11.8145 16.067 11.568 16.7867 11.9834Z" fill="url(#paint0_linear_1593_203061)"/>
</g>
<defs>
<linearGradient id="paint0_linear_1593_203061" x1="16.7373" y1="22.0185" x2="9.63858" y2="1.62696" gradientUnits="userSpaceOnUse">
<stop stop-color="#1D72FD"/>
<stop offset="1" stop-color="#B655F7"/>
</linearGradient>
</defs>
</svg>
