<svg xmlns="http://www.w3.org/2000/svg" width="12" height="12" viewBox="0 0 12 12" fill="none">
  <path opacity="0.7" fill-rule="evenodd" clip-rule="evenodd" d="M10.6637 3.21681C10.5287 3.08183 10.3456 3.006 10.1547 3.006C9.9638 3.006 9.78072 3.08183 9.64572 3.21681L5.83547 7.02705L2.02522 3.21681C1.95867 3.14868 1.87926 3.09444 1.79159 3.05723C1.70392 3.02001 1.60973 3.00057 1.5145 3.00001C1.41926 2.99946 1.32485 3.01781 1.23676 3.054C1.14866 3.09019 1.06862 3.1435 1.00128 3.21085C0.933931 3.27819 0.880619 3.35823 0.844428 3.44633C0.808238 3.53442 0.789889 3.62883 0.790443 3.72406C0.790998 3.8193 0.810445 3.91349 0.847659 4.00115C0.884873 4.08882 0.939114 4.16824 1.00724 4.23479L5.32648 8.55403C5.46148 8.68901 5.64456 8.76484 5.83547 8.76484C6.02637 8.76484 6.20946 8.68901 6.34446 8.55403L10.6637 4.23479C10.7987 4.09979 10.8745 3.91671 10.8745 3.7258C10.8745 3.5349 10.7987 3.35181 10.6637 3.21681Z" fill="#42464E"/>
</svg>
