<svg width="16" height="16" viewBox="0 0 16 16" fill="none" xmlns="http://www.w3.org/2000/svg">
<g id="icon_card-search_outlined">
<g id="Union">
<path d="M12.6667 1.99935H3.33333V13.9993H6.66667V15.3327H3.33333C2.59695 15.3327 2 14.7357 2 13.9993V1.99935C2 1.26297 2.59695 0.666016 3.33333 0.666016H12.6667C13.403 0.666016 14 1.26297 14 1.99935V6.66602H12.6667V1.99935Z" fill="#272E3B"/>
<path d="M14.6667 11.3327C14.6667 12.1073 14.4025 12.8201 13.9593 13.3861L15.0828 14.6786C15.3244 14.9564 15.2949 15.3775 15.0171 15.6191C14.7392 15.8606 14.3181 15.8312 14.0765 15.5533L12.9447 14.2513C12.4671 14.5156 11.9178 14.666 11.3333 14.666C9.49238 14.666 8 13.1736 8 11.3327C8 9.49173 9.49238 7.99935 11.3333 7.99935C13.1743 7.99935 14.6667 9.49173 14.6667 11.3327ZM13.3333 11.3327C13.3333 10.2281 12.4379 9.33268 11.3333 9.33268C10.2288 9.33268 9.33333 10.2281 9.33333 11.3327C9.33333 12.4373 10.2288 13.3327 11.3333 13.3327C12.4379 13.3327 13.3333 12.4373 13.3333 11.3327Z" fill="#272E3B"/>
<path d="M4.66667 5.33268C4.66667 4.96449 4.96514 4.66602 5.33333 4.66602H10.6667C11.0349 4.66602 11.3333 4.96449 11.3333 5.33268C11.3333 5.70087 11.0349 5.99935 10.6667 5.99935H5.33333C4.96514 5.99935 4.66667 5.70087 4.66667 5.33268Z" fill="#272E3B"/>
<path d="M5.33333 7.66602C4.96514 7.66602 4.66667 7.96449 4.66667 8.33268C4.66667 8.70087 4.96514 8.99935 5.33333 8.99935H7.33333C7.70152 8.99935 8 8.70087 8 8.33268C8 7.96449 7.70152 7.66602 7.33333 7.66602H5.33333Z" fill="#272E3B"/>
</g>
</g>
</svg>
