<?xml version="1.0" standalone="no"?><!DOCTYPE svg PUBLIC "-//W3C//DTD SVG 1.1//EN" "http://www.w3.org/Graphics/SVG/1.1/DTD/svg11.dtd"><svg t="1748102262819" class="icon" viewBox="0 0 1024 1024" version="1.1" xmlns="http://www.w3.org/2000/svg" p-id="4976" xmlns:xlink="http://www.w3.org/1999/xlink" width="200" height="200"><path d="M931.0933333333332 33.81333333333332H203.73333333333335c-56.31999999999999 0-101.97333333333333 45.65333333333333-101.97333333333333 101.97333333333333v730.0266666666666c0 56.31999999999999 39.25333333333333 101.97333333333333 95.57333333333332 101.97333333333333h733.76c56.31999999999999 0 101.97333333333333-45.65333333333333 101.97333333333333-101.97333333333333V135.78666666666666c0-56.31999999999999-45.65333333333333-101.97333333333333-101.97333333333333-101.97333333333333zM586.7733333333333 185.17333333333337h225.49333333333334c22.506666666666668 0 40.74666666666667 18.240000000000002 40.74666666666667 40.74666666666667S834.7733333333333 266.6666666666667 812.2666666666667 266.6666666666667H586.7733333333333c-22.506666666666668 0-40.74666666666667-18.240000000000002-40.74666666666667-40.74666666666667-0.10666666666666667-22.506666666666668 18.133333333333333-40.74666666666667 40.74666666666667-40.74666666666667z m0 274.4533333333333h225.49333333333334c22.506666666666668 0 40.74666666666667 18.240000000000002 40.74666666666667 40.74666666666667s-18.240000000000002 40.74666666666667-40.74666666666667 40.74666666666667H586.7733333333333c-22.506666666666668 0-40.74666666666667-18.240000000000002-40.74666666666667-40.74666666666667-0.10666666666666667-22.506666666666668 18.133333333333333-40.74666666666667 40.74666666666667-40.74666666666667z m225.49333333333334 356.05333333333334H188.69333333333333c-22.506666666666668 0-40.74666666666667-18.240000000000002-40.74666666666667-40.74666666666667s18.240000000000002-40.74666666666667 40.74666666666667-40.74666666666667h623.4666666666667c22.506666666666668 0 40.74666666666667 18.240000000000002 40.74666666666667 40.74666666666667 0.10666666666666667 22.506666666666668-18.133333333333333 40.74666666666667-40.64 40.74666666666667z" fill="#BAD4FF" p-id="4977"></path><path d="M852.16 993.7066666666666H131.2c-70.50666666666666 0-127.89333333333333-57.38666666666666-127.89333333333333-127.89333333333333V135.78666666666666c0-70.50666666666666 57.38666666666666-127.89333333333333 127.89333333333333-127.89333333333333h720.9599999999999c70.50666666666666 0 127.89333333333333 57.38666666666666 127.89333333333333 128v730.0266666666666c0 70.4-57.38666666666666 127.78666666666666-127.89333333333333 127.78666666666666zM131.2 59.84000000000002c-41.919999999999995 0-76.05333333333333 34.13333333333333-76.05333333333333 76.05333333333333v730.0266666666666c0 41.919999999999995 34.13333333333333 76.05333333333333 76.05333333333333 76.05333333333333h720.9599999999999c41.919999999999995 0 76.05333333333333-34.13333333333333 76.05333333333333-76.05333333333333V135.78666666666666c0-41.919999999999995-34.13333333333333-76.05333333333333-76.05333333333333-76.05333333333333l-720.9599999999999 0.10666666666666667z" fill="#4E8CEE" p-id="4978"></path><path d="M208.53333333333336 185.17333333333337h203.94666666666666c22.506666666666668 0 40.74666666666667 18.240000000000002 40.74666666666667 40.74666666666667S434.9866666666667 266.6666666666667 412.48 266.6666666666667h-62.82666666666666v294.93333333333334c0 22.506666666666668-18.240000000000002 40.74666666666667-40.74666666666667 40.74666666666667s-40.74666666666667-18.240000000000002-40.74666666666667-40.74666666666667V266.77333333333337h-59.519999999999996c-22.506666666666668 0-40.74666666666667-18.240000000000002-40.74666666666667-40.74666666666667s18.133333333333333-40.85333333333333 40.64-40.85333333333333z" fill="#4E8CEE" p-id="4979"></path></svg>