<?xml version="1.0" standalone="no"?><!DOCTYPE svg PUBLIC "-//W3C//DTD SVG 1.1//EN" "http://www.w3.org/Graphics/SVG/1.1/DTD/svg11.dtd"><svg t="1743247258016" class="icon" viewBox="0 0 1069 1024" version="1.1" xmlns="http://www.w3.org/2000/svg" p-id="6605" xmlns:xlink="http://www.w3.org/1999/xlink" width="267.25" height="256"><path d="M117.59898 118.445524m59.892942 0l795.468569 0q59.892942 0 59.892942 59.892942l0 596.813062q0 59.892942-59.892942 59.892942l-795.468569 0q-59.892942 0-59.892942-59.892942l0-596.813062q0-59.892942 59.892942-59.892942Z" fill="#56E5BE" p-id="6606"></path><path d="M215.127829 191.883159m59.892942 0l701.678619 0q59.892942 0 59.892942 59.892942l0 523.375427q0 59.892942-59.892942 59.892942l-701.678619 0q-59.892942 0-59.892942-59.892942l0-523.375427q0-59.892942 59.892942-59.892942Z" fill="#50DDB8" p-id="6607"></path><path d="M293.080362 269.447694m59.892942 0l602.597775 0q59.892942 0 59.892942 59.892942l0 445.810892q0 59.892942-59.892942 59.892942l-602.597775 0q-59.892942 0-59.892942-59.892942l0-445.810892q0-59.892942 59.892942-59.892942Z" fill="#42D3AD" p-id="6608"></path><path d="M936.806035 849.153526H132.413489A132.378216 132.378216 0 0 1 0.176363 716.951672V132.342944A132.378216 132.378216 0 0 1 132.413489 0h804.568909a132.378216 132.378216 0 0 1 132.237126 132.201853v584.749819a132.378216 132.378216 0 0 1-132.413489 132.201854zM132.413489 55.519135a76.894354 76.894354 0 0 0-76.823809 76.823809v584.608728a76.894354 76.894354 0 0 0 76.823809 76.682719h804.568909a76.894354 76.894354 0 0 0 76.823809-76.788537V132.342944a76.894354 76.894354 0 0 0-76.823809-76.823809z" fill="#2E3138" p-id="6609"></path><path d="M471.947918 288.530192m19.541042 0l29.170473 0q19.541042 0 19.541042 19.541042l0 284.121112q0 19.541042-19.541042 19.541042l-29.170473 0q-19.541042 0-19.541042-19.541042l0-284.121112q0-19.541042 19.541042-19.541042Z" fill="#2E3138" p-id="6610"></path><path d="M713.001137 428.386208m19.541042 0l29.170473 0q19.541042 0 19.541042 19.541042l0 140.596742q0 19.541042-19.541042 19.541042l-29.170473 0q-19.541042 0-19.541042-19.541042l0-140.596742q0-19.541042 19.541042-19.541042Z" fill="#2E3138" p-id="6611"></path><path d="M254.139368 366.94127m19.541043 0l29.170473 0q19.541042 0 19.541042 19.541042l0 202.04168q0 19.541042-19.541042 19.541042l-29.170473 0q-19.541042 0-19.541043-19.541042l0-202.04168q0-19.541042 19.541043-19.541042Z" fill="#2E3138" p-id="6612"></path><path d="M254.139368 962.378699m17.671593 0l491.771141 0q17.671592 0 17.671592 17.671592l0 26.278117q0 17.671592-17.671592 17.671592l-491.771141 0q-17.671592 0-17.671593-17.671592l0-26.278117q0-17.671592 17.671593-17.671592Z" fill="#2E3138" p-id="6613"></path></svg>